<?xml version="1.0" encoding="UTF-8"?>
<svg id="Capa_1" xmlns="http://www.w3.org/2000/svg" version="1.1" xmlns:xlink="http://www.w3.org/1999/xlink" viewBox="0 0 44.1227662 27.8254629">
  <!-- Generator: Adobe Illustrator 29.5.1, SVG Export Plug-In . SVG Version: 2.1.0 Build 141)  -->
  <defs>
    <style>
      .st0 {
        fill: url(#linear-gradient2);
      }

      .st1 {
        fill: url(#linear-gradient1);
      }

      .st2 {
        fill: #ffbb1d;
      }

      .st3 {
        fill: #8e2e00;
      }

      .st4 {
        fill: url(#linear-gradient);
      }
    </style>
    <linearGradient id="linear-gradient" x1="4.4648814" y1="-1.1175725" x2="42.4243274" y2="31.3060655" gradientUnits="userSpaceOnUse">
      <stop offset="0" stop-color="#fff"/>
      <stop offset="1" stop-color="#dee4e9"/>
    </linearGradient>
    <linearGradient id="linear-gradient1" x1="12.4610904" y1="-3.7911323" x2="33.4958704" y2="17.2436477" gradientUnits="userSpaceOnUse">
      <stop offset="0" stop-color="#9dcff1"/>
      <stop offset="1" stop-color="#6eb5e5"/>
    </linearGradient>
    <linearGradient id="linear-gradient2" x1="9.0075733" y1="8.9625083" x2="29.2265619" y2="29.1814969" xlink:href="#linear-gradient1"/>
  </defs>
  <rect class="st4" y="9.275175" width="44.1227662" height="9.2751439"/>
  <path class="st1" d="M4,0h36.1227662c2.2076601,0,4,1.7923399,4,4v5.275175H0V4C0,1.7923399,1.7923399,0,4,0Z"/>
  <path class="st0" d="M0,18.550319h44.1227662v5.2751439c0,2.2076601-1.7923399,4-4,4H4c-2.2076601,0-4-1.7923399-4-4v-5.2751439h0Z"/>
  <g>
    <g>
      <g>
        <path class="st2" d="M21.5670124,10.2920763c-.0978909.2364814-.1566067.5311497-.0351922.7669777.0239904.0477008.0622008.0893029.0911076.1339543.0715356.1025894.1174939.2336188.1258952.3585805.0098638.1256463.0000933.2378816.0065655.3440182.0134421.324633.1635456.6107133.3440533.88108.0986376.1568868-.1295086.3026962-.2299199.1447204-.17789-.3024784-.3315096-.6585074-.3212102-1.0222532.0009996-.1208856.0173627-.2354235.0152468-.3367682-.0004667-.1135422-.0360284-.2194921-.1000067-.3152982-.0628854-.0896762-.1076302-.1953772-.1227836-.3031007-.0272576-.1848911.0076545-.3623767.0679573-.5329233.0204121-.0558221.0424111-.1086259.0709755-.1633589.0125397-.0239593.0420999-.033263.0660592-.0207232.0237415.0123219.0328896.0414465.0212522.0650946h0Z"/>
        <path class="st3" d="M21.9833442,13.0014689c-.0442469,0-.090143-.0208477-.1237482-.0737449-.226182-.3845313-.3317897-.7209572-.3230772-1.028912.0004979-.0573779.0044185-.1132622.0082146-.1672484.0042007-.0597427.0081524-.1161248.0070322-.1689286-.0004356-.1083769-.0334186-.2122732-.0980153-.3089817-.0664948-.0948415-.1096527-.2014137-.1246506-.3080482-.0244572-.1659415-.0027071-.3370794.0685174-.538462.023337-.0638189.0454293-.1146313.0716601-.1648836.007499-.0143756.0201632-.0249861.0356278-.0298402.0154958-.0048852.03196-.0034228.0463006.0041073.0288756.015029.0407619.0510302.0265419.0804037-.0864091.2089127-.1626432.5096797-.0354722.7567095.0144378.0287512.0347294.0558843.0543324.0821462.0122869.0164915.0250133.0335119.0362462.0508124.0725002.1040207.1191431.2368859.127735.3642125.0054102.0693886.0049124.1342343.0044456.1969641-.0004006.051248-.000809.0996645.0021159.1471163.0140955.3408755.1808461.633708.342089.8752613.0529905.0842932.0179539.1679018-.043998.2070457-.023866.0150912-.0525549.0242705-.0818973.0242705ZM21.5231389,10.2331738c-.0037339,0-.007499.0005601-.0111667.0017114-.0094632.0029871-.0172111.0094593-.0218162.0182651-.0257329.0493188-.0474519.09926-.0703843.1619587-.0698243.1974931-.0912632.3650526-.067335.5271358.0145.103025.0562305.2060811.1207611.2980911.0673661.1008469.101687.2091305.1021226.3220193.0011513.0536751-.0028627.1105862-.0070944.1708267-.003765.0536751-.0076545.1091548-.0081524.166066-.0085841.3036297.0959656.6359483.3195922,1.0162167.0470474.0739627.1226592.0736204.1730048.0418199.0504701-.0318939.0834881-.100069.0368141-.1743117-.1628961-.2440115-.3315136-.5404223-.3458891-.8868987-.002921-.048012-.0025204-.0968018-.0021159-.1484854.0004667-.0622008.0009646-.1265798-.0043874-.1950661-.0083391-.1233126-.0534261-.2518527-.1238105-.3527618-.0110151-.0169893-.0234926-.0337297-.0355656-.0498478-.0202254-.027102-.0411042-.0551064-.0564093-.0855689-.1313445-.2551199-.0535856-.5632303.0348148-.7767793l.0003112-.0006846c.0088992-.0180473.0016491-.040233-.0161181-.0494744-.0053831-.0028316-.011264-.0042318-.017176-.0042318Z"/>
      </g>
      <path class="st3" d="M21.9847444,12.9000308c-.0150562,0-.0283155-.0079035-.0383932-.0229014-.1149775-.2001069-.2399042-.4420647-.2881068-.7084797-.0317072-.1534329-.0225591-.3108175-.013691-.4630369.0020225-.0348188.0040179-.0695753.0055737-.1042385.0011785-.0635077-.0050136-.126362-.0183935-.1874115.0001245-.0013069.0013691-.0020225.0027382-.0020225.0342587.111084.0331074.2293559.0320183.3437382l-.0003112.0334808c-.0121041.3251931.1018115.6544312.3585845,1.0354153.0139049.0207544.0100776.0377437.0044456.0483231-.0085258.0159625-.026822.0271331-.0444647.0271331Z"/>
    </g>
    <g>
      <g>
        <path class="st2" d="M20.1793021,10.758567c.0000311.2559289.0585603.5506595.2609697.7220463.0404197.0349121.0916366.0587158.135479.0888983.1053276.0673972.1978976.1708578.2535019.2831243.0571912.1122664.0911387.2197099.1377193.3152982.1366303.2947617.3848113.5016207.6550535.6823423.1511614.1071945-.0038273.329207-.1570384.2217013-.28011-.2113708-.5582868-.4815198-.6879743-.821524-.0453399-.1120798-.074056-.2241595-.1147908-.3169473-.0438735-.1047364-.1172761-.1890296-.2130511-.2530351-.0924145-.0587781-.1742184-.1393373-.2294453-.2330587-.0959345-.1603717-.1315934-.3377017-.141146-.5183611-.0024893-.0593693-.0023959-.1165916.0030805-.1780767.0023998-.0269464.0261374-.0468295.0530839-.0444336.0266664.0023026.0462383.0257329.0445581.0520259h0Z"/>
        <path class="st3" d="M21.5490585,13.1127708c-.0286578,0-.0595871-.0092103-.0908275-.0311471-.3561224-.2687487-.58246-.5391777-.692206-.8269693-.0215323-.0532083-.0392995-.1063544-.0564755-.1577269-.0189496-.0567555-.0368724-.1103373-.0580935-.1586915-.0418821-.0999445-.1121109-.1833353-.2088504-.2479943-.0977042-.0621386-.1783568-.1440981-.2330275-.2368548-.0860979-.1439114-.131465-.3103508-.142729-.523713-.0028938-.0679262-.0019603-.1233126.0030805-.179757.002956-.0333563.032454-.0581246.0658414-.0551064.032454.0028004.0571951.0315205.0552931.0640989.0000933.2260887.0447448.5331412.2568313.7127115.0243327.0210344.0534884.038366.0816483.0551375.0176428.0104861.0358806.0213456.052866.0330452.1068211.0683307.2007603.1732226.2574225.2875739.0315827.0620764.0559465.1222236.0795013.1803793.0192297.047483.0374014.0923211.058218.1350122.1435069.3095417.4096107.5163074.6510085.6777371.0812438.0575646.0808082.1482365.0385838.2081037-.0258574.0366546-.0685796.06413-.1180851.0641611ZM20.1303878,10.7181163c-.019043,0-.0352855.0145934-.036993.0338853-.0049202.0553864-.0058537.1098083-.0030221.1765521.0110462.2092549.0553553.3722404.1394618.5128224.0528038.089614.1308466.1688353.2256531.2291381.1008469.0674283.1740005.1543352.2175979.2584182.0215906.0491632.039669.1032428.0588092.1605273.0170476.0510302.0346904.103834.0560671.1565756.1082253.2837777.3319764.5507839.6841159.8165455.0717846.0503457.1415466.0210966.1758053-.0275376.0344143-.0487899.038895-.1244017-.0326718-.1751518-.2438559-.1630788-.5130713-.3723649-.658943-.6870097-.0210655-.0432201-.0393617-.0884316-.058747-.1362569-.0233681-.0577201-.0475452-.1174006-.0787545-.1786679-.0548575-.1107418-.1457161-.2122421-.2493634-.2785191-.0166782-.0114818-.034601-.0221235-.0518975-.032454-.0290662-.0172694-.0590931-.0351611-.0849466-.0574712-.218967-.1854201-.2649876-.4998471-.2650498-.7309765l.0000311-.0007468c.0013069-.0200698-.0138777-.0378059-.0338231-.0395173-.0011163-.0000933-.0022092-.0001556-.0033294-.0001556Z"/>
      </g>
      <path class="st3" d="M21.5475961,13.0112705c-.0093659,0-.0189807-.0032361-.0285956-.0095837-.1828064-.1409243-.3908167-.3166362-.5373107-.5443118-.0879921-.129598-.139773-.2785191-.1898386-.4225239-.0114507-.0329518-.0229014-.0658414-.0347254-.098451-.0232436-.0591826-.0530216-.1148802-.0887077-.1661282-.000284-.0016803.0014585-.0030494.0023298-.0030805.0735932.0896762.1177779.1993601.1605273.3054344l.0125397.0310849c.113231.3050922.344485.5656574.7275227.819377.0264486.0176739.0243366.0403263.0207232.052306-.0053831.0178295-.0224035.0358767-.0444647.0358767Z"/>
    </g>
    <g>
      <g>
        <path class="st2" d="M19.0757118,11.7205797c.0979842.2364192.2648592.4863427.5174276.5672132.050719.0167715.1071634.0191986.1591893.030307.1230948.0219368.2482433.0821151.3425558.1645413.0958061.0818661.1682752.1681196.247901.2385973.2390329.2200522.5474545.3162006.8662999.3797394.1806905.0411664.1224725.3056211-.0602366.2648903-.339697-.0880582-.7000512-.2311917-.9499708-.4957086-.0847949-.0861913-.1542147-.1787302-.2273683-.2488967-.0805904-.0799681-.1806905-.1297225-.2936415-.1522194-.1078791-.0189496-.2142957-.0620764-.3011715-.1275133-.1500101-.1114574-.2508259-.2616543-.3287714-.4248887-.0250484-.0538929-.0468295-.1068212-.0653124-.1657237-.0080902-.0257951.0062232-.0532706.0320183-.0613607.0255462-.008059.052586.0060676.0610807.0310226h0Z"/>
        <path class="st3" d="M21.186713,13.3820173c-.0126953,0-.0261685-.0014625-.0404197-.0046363-.4318236-.1119553-.7444186-.2751897-.9560073-.4991314-.0402602-.0409175-.077012-.0832352-.1125154-.1241216-.0392372-.0451493-.0762964-.0878093-.1143823-.1243706-.0769498-.0762964-.1737205-.1264553-.2878228-.14917-.1140712-.0200387-.2199588-.0648768-.3059634-.1296603-.1346388-.1000379-.2402465-.2364503-.3323186-.4292138-.0285917-.0616096-.0489143-.1131377-.0659036-.1672484-.0048852-.0154958-.0033916-.031925.0041073-.0463006s.0201359-.0249861.0356278-.0298402c.0310849-.0097704.0648768.0072811.0756118.038086.0865958.2088504.2453806.475421.510022.5601498.0305287.0101127.0640678.0149979.0965218.0196964.0202876.002956.041322.0060054.0615163.0102994.1248062.022279.2517594.0832352.3478766.1672173.0528972.0452115.0983926.0914187.1423867.1361324.035974.0365302.0699487.0710067.1055143.102496.2510437.2310984.576019.3202768.8608274.3770323.0970818.0221235.1313988.1060121.1152808.1774855-.0133799.0594315-.0619208.115098-.1399597.115098ZM19.0291623,11.6991097c-.0036406,0-.0073434.000529-.0109839.0016803-.0094865.0029871-.0172383.0094593-.0218123.0182651-.0046052.0088058-.0055075.0188563-.0025204.0283467.0166782.0530839.0366274.1037718.0647523.1642924.0902674.1890296.1936036.3226727.3250997.4203769.0831108.0625742.1855135.1059188.2962241.1253663.1189564.0236793.2197721.0759852.2999269.1554865.0387083.0371214.0761097.0801859.1156892.1257708.0352855.0406064.0717846.0826129.1117064.1232193.2086326.2207679.5175209.3818553.9445877.4925659.0855378.0190119.1387773-.0346943.151846-.0927256.0131309-.0582491-.0116685-.1298159-.0972063-.1492945-.2876672-.0573467-.6165008-.1476764-.871683-.3825709-.0360012-.0318628-.070256-.0666504-.1064789-.1034606-.0436868-.0443403-.0888361-.0902052-.1410798-.1348566-.0930679-.081306-.2158515-.1402708-.3369549-.1618964-.0198209-.0042318-.0404508-.0072189-.0603961-.0101127-.0334497-.0048541-.0680195-.0098638-.1004424-.0205988-.2732605-.0874981-.4361215-.3603541-.5246154-.573872l-.00028-.0007157c-.0052275-.0154024-.0198831-.0252662-.0353789-.0252662Z"/>
      </g>
      <path class="st3" d="M21.1842548,13.2815438c-.0039789,0-.0081213-.0004356-.0124153-.0012758-.2228215-.0602405-.4822626-.143009-.7046524-.2972509-.130936-.0860668-.2357658-.2038408-.3371416-.3177252-.0231814-.0260752-.0463317-.052057-.0697309-.0776655-.0441847-.0458338-.0930368-.0859112-.1455605-.1195165-.0008712-.0014313.0001867-.0033916.0009957-.0037339.1023093.0546708.1851128.1390884.2652015.2207367l.0234926.0239282c.2213591.2385351.5347592.3907856.9856919.4785949.0318939.0063165.0411353.0303692.0391439.0507502-.0021159.02147-.0168649.0431579-.0450248.0431579Z"/>
    </g>
    <g>
      <g>
        <path class="st2" d="M18.4242988,13.0316825c.1810016.1809394.4308007.34797.6950998.3260332.0532744-.0038895.1063233-.0232748.1586604-.0329207.1221302-.026822.260783-.0191363.3794593.0209099.1198276.0389883.2198033.090952.3203079.1255841.3050922.1118308.6268314.0826129.9457079.019323.1826858-.031116.2300715.2354857.0457094.2677841-.3475343.0486032-.7352394.0542974-1.0673714-.094437-.1113018-.0471718-.2108419-.1061366-.3052788-.1429468-.1050787-.0430334-.2165983-.050719-.3295804-.0282844-.1069145.0238037-.2217013.024675-.3270289-.0025204-.1812194-.0455849-.3318519-.1457472-.4663351-.2667262-.0437491-.040233-.0841376-.0807771-.1237794-.1281356-.0173277-.0207232-.0145934-.0515903.0061298-.0689219.0205054-.0172383.0509096-.0145312.0682996.0052586h0Z"/>
        <path class="st3" d="M20.5612507,13.800745c-.2568313,0-.4761678-.0418199-.6641705-.1260197-.052866-.0224035-.1029939-.0474207-.1514726-.0715979-.0535195-.0267286-.1041141-.0519637-.1532773-.0711311-.1003179-.0410731-.2089438-.0504079-.323015-.0277243-.1131066.0251728-.228049.0242705-.3322875-.002676-.1626393-.0408864-.3124355-.1264864-.4712515-.269371-.0500034-.0459583-.0884938-.0857868-.1249306-.129318-.0215011-.0256707-.0180784-.0640367.0075923-.0855378.024955-.0209722.0627298-.0181095.0844488.0062543.1599361.1597805.4086772.3451384.6855472.3223615.0320495-.0023648.0649079-.0106728.0966462-.0187629.0199142-.0050408.0405441-.0102683.0608317-.0140022.1238727-.0272265.2644236-.0194786.3853714.0213456.0662148.0215323.1259886.0468295.183806.0713178.0471368.0199453.0916949.0388016.1365991.0542663.3203351.1174006.6547074.0754251.939543.0189185.0983887-.0167404.1619626.0476697.1744362.1198587.0120419.0697931-.021719.1530906-.1243706.1710756-.1463656.0204743-.2828131.0307426-.4100463.0307426ZM19.3887696,13.4686753c.0738693,0,.144876.0138466.2123043.0414465.0500034.0194786.1010025.0449626.1550509.071909.0481364.0240527.0979531.0488832.1503524.0711.2772122.1241216.6242798.1547398,1.0611482.0935969.0863468-.0151224.1149735-.0851644.1048297-.1437869-.0101749-.0588403-.0605828-.1153158-.1469608-.1007224-.2877294.0570978-.6260846.0994778-.9517133-.0198831-.0454604-.0156513-.0903297-.0346632-.1378749-.0547641-.0573467-.0242705-.1166538-.0493811-.1820285-.0706644-.1171478-.0395484-.2531907-.0470162-.3732984-.0205988-.0199142.0036717-.0401396.0088058-.0597116.0137533-.032734.008308-.0665882.0169271-.100598.0193853-.2858625.0238971-.5408268-.1660349-.7043101-.3294249l-.000529-.0005601c-.0132554-.0151224-.036499-.0169271-.0518703-.0040451-.0157136.0131932-.0177983.0366857-.0046363.0523993.0357211.04266.0735582.081835.122663.1269843.1557938.1401152.3023812.224035.4612594.2639568.1006952.0260441.2118998.0269153.3216186.0024893.0421894-.0084013.083667-.0125709.1243045-.0125709Z"/>
      </g>
      <path class="st3" d="M20.5488043,13.7009872c-.1295669,0-.2459718-.0116063-.3558734-.0354411-.1538374-.0294357-.2957574-.0981087-.4330099-.1645102-.031396-.0151846-.0627298-.0303692-.0941881-.0450871-.058218-.0253906-.1186763-.0437179-.1801926-.054733-.0013691-.0009646-.0011513-.0031738-.000529-.0038273.1154714.0113884.224284.0577201.3295493.102496l.0308048.0130998c.1764626.0809015.3716181.1203877.5960265.1203877.1511925,0,.3140536-.0181406.4977934-.0554487.0042007-.0008401.008343-.0012758.0122597-.0012758.0281911,0,.0433134.0225902.0453982.0435624.0020265.0201009-.0072189.0438735-.0390817.0502834-.1601539.0207232-.2906232.0304937-.4089573.0304937Z"/>
    </g>
    <g>
      <g>
        <path class="st2" d="M18.3241987,14.4922976c.2364814.0978909.5311497.1566067.7669777.0351922.0477008-.0239904.0893029-.0622008.1339543-.0911387.1025894-.0715356.2336188-.1174628.3585844-.1258641.1256424-.0098638.2378778-.0001245.3440144-.0065655.324633-.0134421.6106822-.1635456.88108-.3440494.1568868-.0986688.3027001.1295047.1447204.2298848-.3024784.1779212-.6585035.3315407-1.0222493.3212414-.1208895-.0009957-.2354274-.0173627-.3367721-.0152468-.1135422.0004356-.2194921.0360323-.3152982.0999756-.0896762.0628854-.1954083.1076613-.3031318.1228148-.18486.0272576-.3623455-.0076545-.5328922-.0679573-.0558221-.0204121-.108657-.0424111-.1633589-.0710067-.0239593-.0125086-.033263-.0420688-.0207544-.0660281.012353-.0237415.0414776-.0328896.0651257-.0212522h0Z"/>
        <path class="st3" d="M18.8457025,14.7398564c-.1257085,0-.2578581-.0256396-.406468-.0781633-.0637878-.023337-.1146001-.0453982-.1648524-.0716601-.0143756-.0075301-.0249861-.0201632-.0298402-.0356278-.0048852-.0154958-.0033916-.031925.0041073-.0463006.0149979-.0289067.0510302-.0407619.0803726-.0265419.2089127.0864402.5096175.1626743.7567717.0354722.0286928-.0144689.0558532-.0346943.0820528-.0542974.0164915-.0122908.033543-.0250172.0509057-.0362501.1039585-.0725313.2368237-.1191742.3641814-.1277622.0693264-.0054453.134141-.0049163.1969641-.0044496.051248.0003734.0996334.0007468.1470852-.0021159.3409066-.0140955.6337741-.1808461.8752924-.3420891.084266-.0529594.1678707-.0179539.2070457.043998.037837.059836.0384905.1497301-.0494744.2056455-.3845312.226182-.7219218.3314474-1.028877.3230461-.0574129-.0004667-.1132972-.0044185-.1672834-.0081835-.0597116-.0042007-.1162493-.0082457-.1688975-.0070633-.1083769.0004356-.2122732.0334186-.3090439.0980153-.0947793.0664948-.2013826.1096838-.3080171.1246817-.0435001.006441-.0873425.009646-.1320251.009646ZM18.3026703,14.4990498c-.0135082,0-.0265769.0073123-.0331424.0199142-.0094865.0182028-.002427.0406997.0157447.0501901.0493188.025764.09926.0474519.1619587.0703532.1974931.0698554.3650838.0913254.5271358.0673972.1030561-.0145312.2061122-.0562888.2980911-.1207922.100878-.0673972.2091616-.101687.3220192-.1021538.0536751-.0011202.1105901.0028938.1708578.0071256.0536439.003765.1091548.0076545.1660349.0081213.3033185.0083391.6359211-.0959306,1.0161856-.3195611.0739938-.0470474.0736515-.1226903.041851-.1730048-.0318628-.0504701-.1000651-.0834842-.1743117-.0368102-.2440115.1628921-.5404223.3315096-.8868987.3458541-.048012.0029249-.096864.0025826-.1484854.002147-.062197-.0004667-.1265487-.0009646-.1950622.0043874-.1233476.008308-.2518566.0534261-.3527657.1238105-.0170204.0110462-.0337608.0235237-.04991.0355967-.0270709.0201943-.0550753.0410731-.0855067.0563822-.2551783.1314028-.5632614.0535817-.7767792-.0348188l-.0006846-.0003423c-.0052275-.0025826-.0107972-.0037961-.016332-.0037961Z"/>
      </g>
      <path class="st3" d="M19.4450273,14.4276386c-.0005912-.0004356-.0012446-.0025826-.0008712-.0033916.0923211-.0280355.1894341-.0318316.2808256-.0318316.0210927,0,.042096.0001867.0629749.0004045l.0332941.0003112c.0145312.000529.0297508.000809.0448692.000809.3119999,0,.626738-.1141956.9905771-.3594207.0094281-.0062854.0190119-.0095215.0284089-.0095215.0223413,0,.0395484.0181095.0449976.0360012.0035744.0117618.0056281.0341653-.0208477.0519637-.2001419.1149735-.4420997.2399042-.7084836.2881028-.0734026.0151535-.1509397.0221857-.2445716.0221857-.0726558,0-.1467429-.0043251-.2183408-.0084635-.0348499-.0020225-.0696687-.0040451-.1043591-.0056009-.005667-.0001245-.0106767-.0001867-.0156863-.0001867-.0577824,0-.1155959.0062543-.1717291.0185762l-.000809.0000622h-.0002489Z"/>
    </g>
    <g>
      <g>
        <path class="st2" d="M18.7906583,15.880008c.2559289-.0000311.5506906-.0585603.7220774-.2609697.0349121-.0404508.0587158-.0916677.0888983-.135479.0673972-.1053276.1708578-.1979287.2831243-.253533.1122664-.0571601.2197099-.0911076.3152982-.1376882.2947616-.1366614.5016207-.3848113.6823423-.6550536.1071945-.1511614.329207.0038273.2217013.1570423-.2113708.280106-.4815197.5582829-.8215201.6879743-.1120836.045336-.2241634.0740249-.3169512.1147868-.1047364.0438424-.1890296.1172761-.2530351.21302-.0588092.0924145-.1393373.1742495-.2330587.2294803-.1603717.0958994-.3377017.1315895-.5183611.1411421-.0593693.0024893-.1165916.0023648-.1781079-.0030805-.0269153-.0023959-.0467984-.0261685-.0444025-.0530839.0023026-.0266664.0257329-.0462383.0519948-.0445581h0Z"/>
        <path class="st3" d="M18.8906651,15.9940792c-.0380548,0-.0731225-.0015558-.1086259-.0046985-.0161803-.0014313-.0308048-.0090859-.0411976-.0215011-.0104239-.0124464-.0153402-.0281911-.0139088-.0443403.0027693-.032454.0317694-.0572845.0640678-.0553242.2261198-.0000933.5331723-.0447448.7127464-.2568002.0209994-.0243327.0383621-.0534572.0551025-.0816483.0105172-.0176428.0213767-.0358767.0330763-.052866.0683346-.1068212.1732226-.2007603.287605-.2574225.062018-.0316138.1221924-.0559776.1803482-.0795324.047483-.0192297.092325-.0374014.1350122-.0581869.3095729-.1435069.5163074-.4096107.677706-.6510085.0575957-.0811816.1482676-.0808082.2081348-.0385838.0578485.0408242.0928812.1236238.0329829.2089127-.2686865.3561224-.5391154.5824289-.8269693.692206-.0531772.0215323-.1062611.0392684-.1576335.0564444-.0567867.0189807-.1103956.0369035-.1587537.0581246-.0999445.0418821-.1833042.1121109-.2479943.2088193-.0621386.0977042-.144067.1783568-.2368548.2330587-.1439425.0860979-.3103469.131465-.523713.142729-.0252039.0010891-.0486965.001618-.0711311.001618ZM18.7875467,15.8916765c-.0190702,0-.0355033.014749-.0371525.0338853-.001832.0204743.0133176.0385527.0337297.0403574.0553864.0049163.1098705.0058809.1765521.0030182.2092549-.0110462.3722443-.0553864.5127913-.1394618.0896451-.0528349.1688975-.1308738.2291692-.2256842.0674283-.1008469.1543352-.1740005.2584182-.217594.0491632-.0215634.103305-.0396729.1605896-.0588092.0509991-.0170516.1037718-.0346943.1565134-.0560088.2838088-.1082525.5508189-.3320075.8165143-.684147.0503768-.0717846.0210966-.1415155-.0275065-.1758053-.0487587-.0343832-.1244017-.038895-.1751518.0326718-.1630477.2438248-.3723649.5130402-.6870097.6589431-.0432201.0210344-.0884005.0393617-.1362569.058747-.0577201.0233681-.1174006.0475452-.1786679.0787545-.1107729.0548575-.2122421.1457472-.2785191.2493634-.0114818.0166782-.0221546.034601-.032454.0519326-.0173005.0290312-.0351611.0590581-.0574712.0848844-.1854512.2189942-.4998471.2650148-.7309765.2650459h-.0007468c-.0007779-.0000622-.0015558-.0000933-.0023648-.0000933Z"/>
      </g>
      <path class="st3" d="M19.8015269,15.3913316c-.0008751-.0002489-.0022131-.0018981-.0022131-.0027693.0896762-.0735893.1993601-.1178051.3054655-.1605273l.0310226-.0125397c.3051583-.1132622.5657196-.3445472.8194081-.7275227.0099571-.0149046.0232748-.022808.0385527-.022808.0177361,0,.0360945.0110773.0446242.0269153.0055658.0104239.0093348.0272576-.004578.0482298-.1409243.1828064-.3166673.3908167-.5443079.5372796-.1296019.087996-.278523.139773-.4225278.1898697-.0329207.0114507-.0658103.0229014-.098451.0347254-.0591515.0232125-.1148491.0529905-.1661282.0887117l-.0008674.0004356Z"/>
    </g>
    <g>
      <g>
        <path class="st2" d="M19.7605122,16.9992186c.2364231-.0979842.4863427-.2648281.5672131-.5174276.0167754-.050719.0191986-.1071323.030307-.1591893.0219407-.1230948.0821151-.2482433.1645413-.3425558.0818661-.0958061.1681196-.1682752.2385973-.2478699.2200522-.2390641.3162006-.5474856.3797394-.866331.0411664-.1806905.3056211-.1224414.2649214.0602405-.0880893.3396931-.2312228.7000473-.4957086.9500019-.0861913.0847599-.1787613.1541797-.2488967.2273333-.0799681.0805904-.1297536.1806905-.1522505.2936415-.0189496.1078791-.0620764.2142957-.1275133.3011715-.1114574.1500101-.2616542.2508259-.4248887.3287714-.0538929.0250484-.1068173.0468295-.1657237.0653124-.0257951.0081213-.0532394-.0062232-.0613607-.0320183-.008059-.0255462.0060987-.052586.0310226-.0610807h0Z"/>
        <path class="st3" d="M19.7761324,17.106382c-.009646,0-.0192297-.0023026-.0280355-.0069077-.0144028-.0075301-.0249822-.0201943-.0298402-.0356589-.0098015-.0310537.00725-.0649079.038086-.0756118.2088543-.0865958.4753899-.2453495.5601537-.510022.0101088-.0304937.0149629-.0640056.0196925-.0964284.0029249-.0203187.0060054-.0413843.0103305-.0616096.0222518-.1248684.0832041-.2517905.1672173-.3478455.0452115-.0529594.091481-.0985132.1361946-.1425423.0364679-.035939.0709444-.0698554.1024338-.1053898.2310361-.2510126.3202145-.576019.3770012-.8608235.0221235-.0970507.1060121-.1314028.1774855-.1152536.0690775.0155269.1331141.0786301.1104617.1803482-.1119864.4318275-.2751897.7444186-.4991003.9559762-.0409486.0402952-.0832352.0770432-.1241216.1125465-.0451804.0392372-.0878404.0762964-.1243706.1143823-.0763275.0769498-.1264864.1737516-.1492011.2878228-.0200387.1140712-.0648768.2199588-.1296564.3059945-.1000107.1345766-.2364231.2401842-.4291866.3322875-.0616407.0286267-.1131999.0489454-.1673067.0659036-.0059782.0018981-.012108.0028316-.0182378.0028316ZM21.2720952,14.7679541c-.0508124,0-.1034295.0290934-.1197032.1005046-.0573467.2877294-.1477075.6165631-.3825359.871683-.0318667.0359701-.0666232.0701976-.1034023.1063855-.0443714.0437179-.0902674.0888983-.1349189.1411732-.0813372.0930368-.1403019.2158204-.1618964.336986-.0042318.019852-.00725.0404819-.0101438.0604583-.0048541.0334186-.0098638.0679573-.0205949.1003179-.087502.2733227-.3603891.4361527-.5738759.5246465l-.0007157.0002489c-.019043.0064721-.0295913.0272887-.0235859.0463939.0029871.0094904.0094631.0172383.0182651.0218123.0088058.0046052.0188913.0055386.0283467.0025515.0530877-.0166782.1037407-.0366546.1642612-.0647523.1890957-.0903608.3227349-.1936658.420408-.3251308.0626053-.0831108.1059188-.1855446.1253663-.296193.0236793-.1189875.0759852-.2197721.1554904-.2999269.0371486-.0387083.0802131-.0761097.1257669-.1157203.0406375-.0353166.082644-.0717846.1232193-.1117064.2207679-.2086326.3818553-.5175521.4925659-.9445566.0190741-.0855689-.0346943-.1388084-.0927256-.1518771-.0095837-.002147-.0195408-.0032983-.0295913-.0032983Z"/>
      </g>
      <path class="st3" d="M20.5073267,16.1609231c-.0011513,0-.0027382-.0010891-.0030182-.0017425.0546708-.1022782.1390884-.185109.2207407-.2651704l.0239243-.0234926c.2385351-.2213902.3907856-.5347592.4785988-.9857231.0072461-.0365613.0366507-.0393928.0454876-.0393928.0154335,0,.0299647.0065032.0389261.0173627.0086502.0104861.0114235.0240527.0082146.0402952-.0602094.2228215-.1429468.4822043-.2972509.7047147-.0860357.1308738-.2037785.2356724-.3176319.3370172-.0261063.0232125-.0521193.0463939-.0777588.0698243-.0457405.0440913-.0858179.0929123-.1195165.1455605l-.0007157.0007468Z"/>
    </g>
    <g>
      <g>
        <path class="st2" d="M21.1028865,17.6506316c.1809394-.1810016.34797-.4307696.3260332-.6950998-.0039206-.0532706-.0232748-.1063233-.0329207-.1586604-.0268492-.1221302-.0191363-.2607519.0209099-.3794593.0389883-.1198276.0909209-.2197721.1255841-.3203079.1118308-.3050922.0826129-.6268003.019323-.9457079-.031116-.1826819.2354897-.2300715.2677841-.0457094.0486071.3475344.0542974.7352394-.094437,1.0673714-.0471718.1113019-.1061366.2108419-.1429468.3052789-.0430334.1050787-.050719.2165983-.0282805.3295804.0237687.1069145.024671.2217013-.0025554.3270289-.0455538.1812195-.1457161.3318519-.2667262.4663352-.0402018.0437491-.080746.0841376-.1281045.1237794-.0207232.0173316-.0515903.0145934-.068953-.0061298-.0172032-.0205054-.0145-.0509057.0052897-.0682996h0Z"/>
        <path class="st3" d="M21.1352472,17.7482424c-.0018047,0-.0036406-.0000933-.0054764-.0002489-.0161492-.0014313-.0307737-.0090859-.0411976-.0215011-.0209371-.0249239-.0181095-.0627298.0062543-.0844176.1597805-.1599361.3453251-.4086461.3223615-.6855783-.0023648-.0320495-.0107-.0648768-.0187629-.0966462-.0050408-.0199142-.0102683-.040513-.0140294-.0608317-.0271993-.1238105-.0194514-.2644236.0213416-.3853714.0215323-.0661526.0468024-.1258952.0712556-.1836776.0199765-.0472029.0388639-.091761.0543596-.1367236.1174317-.3204012.0754562-.6547113.0189185-.9395469-.0167404-.0981709.0476386-.1619898.1198899-.1744362.0697931-.0121041.1530595.021719.1710173.1244017.0618546.4417535.0306453.7930218-.0952811,1.0742169-.0223724.0528349-.0473896.1029317-.0715667.1514103-.0267286.0535506-.0519637.1041141-.0711311.1533395-.0411042.1002557-.0503768.2088816-.0277243.3229838.0251768.1130755.0242433.228049-.002676.3322875-.0408864.1626432-.1264825.3124044-.269371.4712515-.0460205.0500967-.0858801.0885872-.1292869.1249306-.0110462.0092103-.024671.0141578-.038895.0141578ZM21.6968594,15.0005149c-.0076545,0-.0152779.0006534-.0227147.0019603-.0588403.0101438-.1154403.0604583-.1007224.1469608.0571289.2876983.0994778.6260535-.0198831.9517133-.0156825.0454916-.0346943.090423-.0548575.1380305-.0242393.0573156-.0493499.1165605-.070571.1818729-.0395173.1171205-.0470162.2531596-.0205988.3732984.0036717.0199453.0088058.0401707.0137533.0597427.008308.032734.016896.0665571.0194164.100598.0237415.2859247-.166066.5408268-.329456.704279l-.0005601.000529c-.0150912.0132865-.0168921.0365302-.004014.0518703.0063788.0075923.0153402.0122908.0252351.0131621.0098055.0007468.0194786-.002147.027102-.0084947.0426289-.0356589.0817728-.0734959.1270154-.1227214.1401152-.1557977.224035-.3023851.2639568-.4612321.0260441-.1007224.0268531-.2118998.0024621-.3216147-.023621-.1189875-.0138817-.2321563.0289028-.3365815.0195097-.0500034.0449626-.1010958.0719401-.1551443.0240215-.0481053.0488521-.0978909.0710689-.1502902.1241527-.2772434.1547086-.6242799.0935969-1.0611482-.0132243-.075394-.0682996-.10679-.1210723-.10679Z"/>
      </g>
      <path class="st3" d="M21.470833,16.5905414c-.0012135,0-.0020537-.0004356-.0022092-.0006223.0113262-.1154403.0576618-.224284.1024338-.3295182l.0131038-.0308048c.1356657-.2958196.156385-.6436029.0649662-1.0938511-.0032049-.0160558-.0004356-.0296224.0082457-.040233.0089614-.0109217.0240215-.0176739.0393306-.0176739.0111084,0,.037837.0038273.0449937.0393617.0296224.2289514.0524304.5003138-.0049474.7647996-.0294357.1538685-.0981087.2957885-.1645413.4330099-.0151846.031396-.0303653.0627609-.0450871.0941881-.0254178.0583425-.0437179.1187697-.0547019.1801926l-.0015869.0011513Z"/>
    </g>
    <g>
      <g>
        <path class="st2" d="M22.6064728,17.7351115c.0978909-.2364814.1566067-.5311809.0351922-.7669777-.0239904-.0477319-.0622008-.089334-.0911076-.1339543-.0715356-.1025894-.1174939-.2336188-.1258952-.3586116-.0098638-.1256152-.0000933-.2378505-.0065655-.3439871-.0134421-.324633-.1635456-.6107133-.3440494-.88108-.0986376-.1568868.1295047-.3026962.229916-.1447204.177894.3024784.3315096.6585074.3212102,1.0222532-.0009957.1208856-.0173627.2354235-.0152468.3367371.0004667.1135422.0360323.2195232.1000107.3153293.0628814.0896762.1076262.1953772.1227797.3031007.0272576.18486-.0076506.3623456-.0679573.5329233-.0204121.0557909-.0424111.1086259-.0709755.1633589-.0125397.0239593-.0420999.0332319-.0660592.0207232-.0237415-.0123219-.0328896-.0414776-.0212522-.0650946h0Z"/>
        <path class="st3" d="M22.6502529,17.8175377c-.0094281,0-.019039-.0022092-.0279733-.0068766-.0288756-.015029-.0407619-.0510302-.026538-.0804037.0864362-.2089127.1626704-.5096797.0354371-.7567406-.0144378-.0287512-.0347254-.0559154-.0543285-.0821773-.0122597-.0164604-.0249822-.0334497-.0361839-.0507813-.0725353-.1039585-.1191742-.2368237-.1277662-.3641814-.0054453-.0694509-.0049163-.1343899-.0044496-.1971819.0004045-.0511858.0007779-.09954-.0020848-.1468985-.0141227-.3409378-.1808772-.6337702-.3421202-.8752613-.0529905-.0842621-.0179228-.1678707.043998-.2070146.059836-.0378993.1497301-.0385216.2056455.0494433.2261549.3845001.3317897.7209572.3230461,1.028912-.0004667.0574401-.0043874.1133244-.0081835.167404-.0041695.0596493-.0081524.1160004-.0070322.1687419.0004045.1083769.0333874.2122421.0980153.3090439.0664948.0948415.1096527.2014137.1246506.3080171.0244572.1658793.0027071.3370172-.0684823.538462-.0234032.0638811-.0454644.1146935-.0716952.1649147-.0108284.0207232-.0320183.0325784-.0539551.0325784ZM22.1894876,15.0495848c-.0246439,0-.0486614.0076856-.0686418.0203187-.0504701.031925-.0835464.100069-.0368413.1743117.1628921.2439804.3315096.5403601.3458892.8868987.0028898.0479497.0025164.0966773.0021119.1482676-.0004667.0622942-.0009957.1267043.0043874.1952839.0083391.1233437.0534572.2518527.1238105.3527618.0110151.0169893.0234926.0336675.0355384.0498167.0202254.0270709.0411314.0551064.0564404.0856001.1314028.2551199.0535817.5632303-.0348499.7767481l-.00028.0007157c-.0088992.0180162-.0016491.040233.016087.0494744.0182028.009397.0406686.0023959.0501901-.0157447.0257329-.0492566.0474558-.0991977.0703843-.1619587.0698243-.1975865.0912671-.3651149.0673661-.5271669-.0145-.1029939-.0562577-.2060189-.1207883-.2980599-.0674012-.1009091-.101691-.2091616-.1021266-.3220193-.0011202-.0536439.0028666-.110524.0070944-.1707334.003765-.0536751.0076856-.1092171.0081213-.1661593.0086191-.3036297-.0959306-.6359483-.3195922-1.0161856-.0283155-.0445892-.0670238-.0621697-.1043008-.0621697Z"/>
      </g>
      <path class="st3" d="M22.5384221,16.6151541c-.0336986-.111084-.0325473-.2294803-.031396-.343956l.00028-.0331385c.0121352-.3252242-.1018115-.6544935-.3586116-1.0354464-.0138777-.0207544-.0100465-.0377437-.0043874-.0483231.0085258-.0159936.026822-.0271642.0444376-.0271642.0150562,0,.0283427.0079346.0383932.0229014.1149735.2001691.2399042.4421269.2881028.7085108.0317072.1533395.0225591.3106619.0137533.4627879-.0020186.0349121-.0040762.0697309-.005632.1044875-.0011824.0634766.0050097.1263309.0183895.1874115-.0001516.0013069-.0013691.0020225-.0027382.0020225-.0003423,0-.0005601-.0000622-.0005912-.0000933Z"/>
    </g>
    <g>
      <g>
        <path class="st2" d="M23.9629427,17.2178395c-.0000622-.2559289-.0585914-.5506906-.2610008-.7220463-.0404197-.0349432-.0916366-.058747-.1354478-.0889295-.1053587-.0673661-.1979287-.1708578-.253529-.2830932-.0571951-.1122976-.0911116-.2197099-.1376922-.3152982-.1366614-.2947928-.3848113-.5016518-.6550535-.6823734-.1511925-.1071945.0037961-.329207.1570112-.2217013.2801371.2113708.558314.4815198.6879742.821524.045336.1120798.074056.2241595.1147868.3169473.0438735.1047364.1173072.1890296.2130511.2530351.0924145.0588092.1742184.1393373.2294492.2330587.0959306.1603717.1315895.3377017.1411421.5183611.0025204.0593693.0023959.1165916-.0030494.1781079-.0023919.0269153-.0261685.0467984-.0530839.0444336-.0266664-.0023337-.0462695-.0257329-.0445581-.0520259h0Z"/>
        <path class="st3" d="M24.0119192,17.281845c-.0018047,0-.0036406-.0000933-.0054453-.0002489-.0324851-.0028316-.0571872-.0315516-.0553202-.0641611-.0000973-.2260576-.0447488-.53311-.2568353-.7126492-.0243327-.0210655-.0534572-.038366-.0816483-.0551375-.0176428-.0104861-.0358767-.0213767-.0528349-.0330763-.1068483-.0682996-.2007603-.1732226-.2574225-.287605-.0316138-.0620453-.0559776-.1222547-.0795947-.1804727-.0191986-.0474207-.0373392-.0921966-.0581246-.1348878-.1435069-.3095417-.4096107-.5162763-.6510396-.677706-.0812127-.0575957-.0808082-.1482365-.0385838-.2081348.0408553-.0578446.1236549-.0928812.2089438-.0330141.3560912.2687176.5824289.5391465.692206.8270005.0215323.0532083.0392995.1063233.0564755.1577269.0189496.0567555.0368724.1103373.0580935.1586604.0418821.0999756.1121109.1833353.2087882.2479632.0977353.0621697.178419.1441292.2330587.2368859.086129.1439736.1314961.3103819.1427601.523713.0028938.0679573.0018981.1233749-.0031116.179757-.0014313.0161492-.0090859.0307737-.0215011.0411976-.0110151.0092414-.0246399.0141889-.0388639.0141889ZM22.5935636,14.8875639c-.0416371,0-.0775139.0230258-.0992328.0537684-.0344143.0487899-.0388639.1244017.0326718.1751518.2438559.1630788.5131025.3724271.6589742.6870408.0210033.0431579.0392995.0883383.0586847.1361324.0233992.0577201.0475763.1174628.0787857.1787613.0548886.1107418.1457472.212211.2493946.2785502.0166782.0114818.034601.0221235.0519054.0324228.0290583.0173005.0590541.0351611.0849115.0575023.2189942.1853579.2650148.4998159.2650459.7309143v.0007779c-.001338.0200387.0138466.0377748.033792.0395484.0097704.0007779.0195137-.002147.0271642-.0085258.0076234-.0063788.0122908-.0153402.0131621-.0252039.0049163-.0553864.0058809-.1098394.0030494-.1765832-.0110462-.2092238-.0553864-.3722093-.1394618-.5127913-.052866-.0896451-.1308738-.1688664-.2257153-.2292003-.1008158-.0673972-.1739383-.154273-.2175629-.2583871-.0215634-.0491632-.0396418-.1032428-.0587741-.1605273-.0170867-.0510302-.0347294-.1038029-.056075-.1565756-.1082174-.2837777-.3320075-.550815-.6841159-.8165455-.0263552-.0184829-.0524615-.0262308-.0766036-.0262308Z"/>
      </g>
      <path class="st3" d="M23.4716565,16.2091528c-.07378-.0896762-.1179646-.1993601-.1606869-.3054033l-.0125709-.0310849c-.113231-.305061-.344485-.5656262-.7274915-.819377-.0264797-.0176428-.0243638-.0403263-.0207544-.0522748.0054142-.0178606.0224346-.0359078.0444647-.0359078.009397,0,.0190119.0032361.0285956.0096148.1828064.1408931.3908167.3166362.5373107.5442807.087996.1296292.139773.2785502.1898386.422555.0114547.0329518.0229014.0658103.0347254.098451.0232436.0591515.0530216.1148491.0887467.1661282.0002449.0015247-.0012175.0028316-.0021781.0030182Z"/>
    </g>
    <g>
      <g>
        <path class="st2" d="M25.0352614,16.2010938c-.0979842-.2364192-.2648592-.4863427-.5174587-.5672132-.0506879-.0167715-.1071323-.0191986-.1591582-.030307-.1231259-.0219368-.2482433-.0821151-.3425869-.1645413-.095775-.0818661-.1682441-.1681196-.2478659-.2385973-.239068-.2200522-.5474896-.3162006-.8663039-.3797394-.1806905-.0411664-.1224725-.3056211.0602094-.2649214.3396931.0880893.7000784.2312228.9500019.4957398.084795.0861601.1541837.1787302.2273333.2488967.0806215.0799681.1807216.1297225.2936726.1522194.1078791.0189496.2142646.0620764.3011715.1275133.149979.1114574.2507948.2616543.3287714.4248887.0250172.0538929.0468295.1068212.0653124.1657237.0080902.0257951-.0062543.0532706-.0320495.0613607-.0255151.008059-.052586-.0060676-.0610495-.0310226h0Z"/>
        <path class="st3" d="M25.0819083,16.2461186c-.0252391,0-.0490117-.0159314-.057693-.0408553-.0865646-.2088504-.2453184-.4753899-.5099909-.5601498-.0305248-.0101127-.0640989-.0149979-.0965218-.0196964-.0203187-.0029249-.0413531-.0060054-.0615163-.0102994-.1248684-.022279-.2517905-.0832352-.3478766-.1671861-.0529283-.0452426-.098451-.091481-.1424801-.1361946-.035939-.0365302-.0698865-.0710067-.105452-.102496-.2510126-.2310361-.5759878-.3202145-.8607924-.3770012-.0970818-.0220923-.1314028-.1060121-.1153158-.1775167.0155931-.0690464.0786612-.1331142.1803793-.1104306.4318586.1119553.7444226.2751897.9560113.4991314.0402601.0409486.0770081.0832352.1125425.1241528.0392684.0451493.0762964.0877782.1143823.1243083.0769498.0763275.1737205.1264864.2878228.1492011.1141063.0200387.21999.0649079.3059323.1296603.1346388.1000068.2402465.2364192.3323186.4291827.0286267.0615785.0489143.1131377.0659348.1673106.0048852.0154335.0033916.0318939-.0041073.0462695-.007526.0144067-.0201632.0249861-.0356589.0298402-.005912.001867-.0119797.0027693-.0179188.0027693ZM22.9251004,14.5632732c-.0656547,0-.1066033.0467362-.1178362.0966151-.0130998.0582491.0116996.1298159.0972374.1493256.2876983.0573467.616532.1477075.871683.3825398.0360012.0318939.0701976.0666504.1064478.1034606.0436557.0443403.0888361.0902052.141111.1348878.0930057.081306.2158204.1402708.3369549.1618964.0198209.0042318.0404508.0072189.060365.0101127.0334497.0048541.0680506.0098638.1004464.0205988.2732876.0874981.4361486.3603853.5246154.573872l.000276.0007157c.0064721.0190119.0271954.0296535.0463628.0235859.0094904-.0029871.0172383-.0094593.0218434-.0182651s.0055075-.0188874.0025204-.0283467c-.0166782-.0531461-.0366546-.1038029-.0647794-.1642612-.0903026-.1890918-.1936387-.3227038-.3251037-.420408-.0830797-.0625742-.1854823-.1059188-.296193-.1253663-.1189524-.0236793-.2197681-.0759852-.2999269-.1554865-.0387043-.0371214-.0761097-.0801548-.1156892-.1257397-.0352855-.0406375-.0717846-.0826752-.1117375-.1232504-.2086015-.2207679-.5175209-.3818553-.9445566-.4925659-.0119797-.002676-.023337-.0039206-.0340409-.0039206Z"/>
      </g>
      <path class="st3" d="M24.1953168,15.4572352c-.0002138-.0000311-.0006846-.0002178-.0014002-.0005601-.1010336-.0540485-.1838643-.1385283-.2639879-.2202078l-.0233681-.0238348c-.2213902-.2385351-.5347863-.3907544-.985723-.4785949-.0318939-.0063165-.0411664-.0303692-.039175-.050719.0021159-.0215011.0168649-.043189.0450559-.043189.0039517,0,.0081213.0004356.0123842.0012758.2227904.0602094.4822043.1429468.7046835.2972509.1308738.0860668.2356724.2037785.3370483.3176319.0232165.0260752.0463939.0521193.0698243.0777588.0440913.0457716.0929123.0858179.1455605.1195476.0008401.001338-.0000933.0031738-.0009024.0036406Z"/>
    </g>
    <g>
      <g>
        <path class="st2" d="M25.6788643,14.8860703c-.1810016-.1809394-.4307967-.34797-.6951309-.3260021-.0532706.0038895-.1063233.0232436-.1586292.0328896-.1221613.0268531-.260783.0191363-.3794905-.0209099-.1198236-.0389572-.2197721-.0909209-.3203079-.1255841-.305061-.1117997-.6268002-.0826129-.9456768-.019323-.1826819.031116-.2300987-.2354857-.0457405-.2677841.3475343-.0486032.7352705-.0542974,1.0673714.094437.1113018.0472029.210873.1061366.305314.1429468.1050435.0430334.2165672.050719.3295453.0282844.1069145-.0237726.2217325-.024675.32706.0025515.1812194.0455538.3318208.1457472.4663351.2667262.0437491.0402018.0841376.080746.1237482.1281045.0173627.0207232.0146245.0515903-.0061298.068953-.0204743.0172071-.0508746.0145-.0682685-.0052897h0Z"/>
        <path class="st3" d="M25.7158612,14.914417c-.0168649,0-.0336675-.0068766-.0455849-.0202876-.1599984-.1597805-.4090195-.3453562-.6855783-.3223304-.0321117.0023337-.0649702.0107039-.0967707.0187629-.0198831.0050408-.0404508.0102683-.0607073.0140022-.1238105.0272265-.2644236.0194475-.3853674-.0213456-.0661877-.0215323-.1259304-.0468295-.1836816-.0712867-.0471989-.0199765-.091761-.0388327-.1366925-.0543285-.320339-.1174317-.6547424-.0754251-.9395469-.0189185-.0981087.0168337-.1619898-.0476386-.1744673-.1198587-.0120419-.069762.0217501-.1530906.1244056-.1710445.4417495-.0618274.7930489-.0306181,1.0742129.0952771.0528349.0223724.1029317.0473896.1514103.0715667.0535546.0267286.1041452.0519637.1533395.0711311.1002908.0410731.2089438.0503457.3229838.0277243.1131066-.0251728.2280801-.0242082.3322875.002676.1626743.0409175.3124666.1265176.4712515.269371.0500967.0460205.0885872.0858801.1249306.1292869.0103968.0124464.0153753.0282222.01394.0443714-.0014313.0161492-.0090859.0308048-.0215011.0411976-.011264.0094281-.0250795.0140333-.0388639.0140333ZM25.0318387,14.5462839c.2659794,0,.5012784.1774544.6553336.3314474l.000529.0005601c.0132554.0151224.0365302.0168649.0519014.0040451.0075923-.0063788.0122597-.0153402.0131309-.0252351.0009024-.0098949-.0021159-.0195097-.0085258-.0271331-.0356238-.0426289-.0734648-.0817728-.1226592-.1270154-.1557666-.1401152-.3023851-.224035-.4612632-.2639568-.1006913-.026013-.2118647-.0268531-.3216147-.0024582-.1189524.023617-.2321563.0138777-.3365815-.0289067-.0500034-.0195097-.1010647-.0449626-.1551403-.0719401-.0481093-.0240215-.0978949-.0488521-.1502631-.0710689-.2772122-.1240905-.6242798-.1546775-1.0611482-.0935969-.086378.0151535-.1149735.0851644-.1048608.1437869.0101749.0588403.0603961.1155025.1469608.1007224.2877294-.0570978.6261157-.0994467.9517133.0198831.0454916.0156513.090423.0346632.1379994.0548264.0572845.0242705.1165604.0493499.181904.0706022.1171205.0395173.2530974.0469851.3732984.0206299.0199142-.0036717.0400774-.0088058.0595911-.0137533.0327611-.0083391.0666775-.0169271.1007495-.0194164.0164292-.0013691.0327651-.0020225.0489454-.0020225Z"/>
      </g>
      <path class="st3" d="M24.6166582,14.5202709c-.1140089-.011264-.2228837-.0576268-.3281491-.1024338l-.0307115-.0130376c-.1764587-.0809327-.3716492-.1204188-.5960225-.1204188-.1512237,0-.3140887.0181406-.4978285.0554487-.0042007.0008401-.0083391.0012758-.0122597.0012758-.0281911,0-.0432823-.0225591-.0453982-.0435313-.0019914-.0201009.0072229-.0438735.0391128-.0503145.1601539-.0207232.2905921-.0304625.4089262-.0304625.1295669,0,.2459718.0115751.3559045.0354411.1538374.0294046.2957262.0980464.4329166.1644791.0314271.0151846.062792.0303692.0942503.0450871.0582842.0254218.1187075.0437491.1801926.054733.0014002.0009957.0011513.0031738.000529.0038273l-.0014625-.0000933Z"/>
    </g>
    <g>
      <g>
        <path class="st2" d="M25.7203419,13.4606474c-.2364814-.0978909-.5311808-.1566067-.7669777-.0351922-.0477319.0239904-.089334.0621697-.1339854.0911076-.1025583.0715356-.2335876.1174628-.3585805.1258952-.1256152.0098638-.2378505.0000933-.3439871.0065655-.324633.0134421-.6107133.1635456-.8811111.3440494-.1568556.0986376-.3026611-.1295047-.1447204-.229916.3024784-.17789.6585425-.3315096,1.0222883-.3212102.1208816.0009957.2354195.0173627.3367331.0152468.1135422-.0004667.2195232-.0360323.3152982-.1000068.0896762-.0628854.1954083-.1076302.3031318-.1227836.18486-.0272576.3623455.0076545.5329233.0679573.0557909.0204121.1086259.0424111.1633589.0709755.0239593.0125086.0332319.0420999.0207273.0660592-.0123571.0237415-.0414816.0328896-.0650987.0212522h0Z"/>
        <path class="st3" d="M23.1579101,14.028794c-.0518392,0-.0968952-.0291557-.1226903-.0699176-.0378681-.0598671-.0384905-.1497612.0494433-.2056455.3845935-.226182.7220151-.3319141,1.028916-.3230772.057405.0004979.1132893.0044185.1672755.0082146.0597427.0041695.1163115.0081835.1688975.0070322.1083769-.0004356.2122732-.0333874.3090439-.0980153.0947793-.0664948.2013826-.1096527.3080171-.1246506.1658793-.0244572.3370171-.0027071.538466.0685174.0638148.023337.1146272.0454293.1648795.0716601.0143756.007499.0249861.0201632.0298402.0356278.0048541.0154958.0033916.031925-.0041073.0463006-.0149979.0289067-.0510302.0408242-.0804037.0265419-.2089127-.0864402-.5096486-.1626743-.7567406-.0354722-.0287512.0144689-.0559465.0347565-.0822395.0543907-.0163981.0122597-.0334186.024955-.0506839.0361568-.1040247.0725313-.2368899.1191742-.3642476.1277622-.0693886.0054453-.1342654.0048852-.1969952.0044496-.0512169-.0004356-.0996334-.0007779-.1470541.0021159-.3408755.0140955-.6337351.1808461-.8752924.3420891-.0287512.0180784-.0574672.0259196-.0843243.0259196ZM24.0784452,13.4532107c-.2941704,0-.6156607.1049542-.9814913.3201212-.0739898.0470162-.0736204.1226592-.0418199.1729426.0318939.0504701.1001001.0835153.1742806.0368413.2440115-.1628921.5404223-.3315407.8868987-.3458541.048012-.0029249.096864-.0025515.1484543-.002147.0622671.0004979.1266109.0009646.1950972-.0044185.1233437-.0082769.2518838-.053395.3527929-.1237794.0169582-.0110151.0336364-.0234614.0497544-.0355033.0271331-.0202254.0551375-.0411664.0856623-.0564755.2550888-.1313405.5631992-.0535506.7767792.0348188l.0006846.0003112c.0180473.0088681.0402018.0016491.0494433-.0161181.0046052-.0088058.0055075-.0188874.0025515-.0283467-.0029831-.0094593-.0094593-.0172383-.0182651-.0218123-.0493188-.0257329-.09926-.0474207-.1619898-.0703532-.1974931-.0698865-.3651149-.0913254-.5271046-.0673972-.1030561.0145-.2060771.0562577-.2980911.1207922-.100878.0673661-.2091616.101687-.3220192.1021226-.0536128.0011513-.1105551-.0028627-.1708267-.0070944-.0536751-.003765-.109186-.0076545-.166066-.0081524-.0115129-.0003112-.0230881-.0004979-.0347254-.0004979Z"/>
      </g>
      <path class="st3" d="M23.1594348,13.927916c-.0223413.0000311-.0395484-.0180784-.0449897-.0359701-.0035823-.0117618-.0056671-.0341965.0208126-.0519948.2001691-.1149424.4420958-.2398731.7084797-.2880717.0734337-.0151846.1509787-.0221857.2446378-.0221857.072714,0,.1468012.004294.2184613.0084635.0347877.0020225.0695442.0040451.1042114.0056009.0056591.0001245.0106688.0001556.0156473.0001556.0577864,0,.1155647-.0062232.1717602-.0185451.0016491.0003734.0022715.0024893.0019292.0032983-.0923522.0280666-.1894652.0318628-.2808528.0318628-.0210655,0-.0420688-.0002178-.0629787-.0004045l-.0332941-.0003112c-.0145312-.0005601-.0297469-.000809-.0448692-.000809-.3119688,0-.6267069.1141956-.990546.3593895-.0094281.0063165-.0190119.0095215-.0284089.0095215Z"/>
    </g>
    <g>
      <g>
        <path class="st2" d="M25.2304209,12.1159082c-.2559289.0000622-.5506906.0585603-.7220462.2610008-.0349432.0404197-.058743.0916366-.0889255.1354479-.0673701.1053276-.1708618.1979287-.2830972.253533-.1122976.0571601-.2197099.0911076-.3152982.1376882-.2947928.1366614-.5016518.3848113-.6823734.6550536-.1071945.1511614-.329207-.0038273-.2217013-.1570112.2113708-.2801371.4815197-.558314.821524-.6880054.1120797-.045336.2241635-.0740249.3169473-.1147868.1047364-.0438424.1890296-.1172761.2530351-.21302.0588092-.0924145.1393373-.1742184.2330587-.2294492.1603717-.0959306.3377017-.1316206.5183611-.1411732.0593693-.0024893.1165956-.0023648.1781079.0030805.0269153.0023959.0467984.0261685.0444336.0530839-.0023297.0266664-.0257329.0462695-.0520259.0445581h0Z"/>
        <path class="st3" d="M23.0275031,13.6319098c-.0313338,0-.0619519-.0103927-.0871559-.02816-.0578757-.040793-.0928772-.1235927-.0329829-.2089127.2686904-.3561224.5391154-.5824289.8269693-.692206.0532083-.0215323.1063233-.0392995.1576998-.0564444.0567204-.0189807.1103644-.0369035.1586915-.0581246.0999405-.041851.1833002-.1120798.2479592-.2087882.0622008-.0977664.1441603-.178419.2368859-.2330587.1439425-.086129.3103819-.1314961.523713-.1427912.0678951-.0028316.1233126-.001867.179761.0031116.0161452.0014313.0308048.0090859.0412246.0215011.0103927.0124464.0153402.0281911.0139088.0443714-.0028316.032454-.0315827.0571912-.06413.055262-.2260887.0000933-.5331411.0447448-.7126803.2568313-.0210344.0243638-.0384282.0535195-.0551997.0817106-.0104861.0176428-.0213456.0358456-.0329829.0528349-.0683618.10679-.1732538.2007292-.2876361.2573914-.0620141.0315827-.1221302.0559465-.1803171.0795013-.047483.0192297-.0923211.0374014-.1350433.0582491-.3095106.1434758-.5162763.4095796-.677706.6509774-.0333874.0470474-.0778211.0667438-.1209789.0667438ZM25.1302585,12.0253918c-.0220612,0-.0451182.000529-.0698554.0015869-.2092238.0110462-.3722093.0553864-.5128224.1394929-.0895829.0528038-.1688042.1308116-.2291381.2256531-.0674283.1008469-.1543352.1739694-.2584182.2175629-.0491632.0215945-.1032428.0396729-.1605233.0588092-.0510653.0170827-.103838.0347254-.1565796.0560399-.2837777.1082525-.550815.3320075-.8165143.6841781-.0503768.0717534-.0210616.1415155.0275376.1758053.0487938.0344454.1244056.0388639.1751247-.0327029.1630749-.2438559.3724232-.5130714.6870408-.6589119.0432161-.0210655.0884276-.0393928.136288-.0587781.057685-.0233992.1173655-.0475452.1786057-.0787545.1107378-.0548575.2122381-.1457161.2785462-.2493634.0114547-.016647.0220923-.0345387.0323917-.0518392.0173005-.0290623.0351922-.0591204.0575334-.0849777.185393-.2189942.4998159-.2650148.7309454-.265077l.0007468.0000311c.0205988.0017114.0378059-.0138777.0395484-.0338231.0008712-.0098949-.002147-.0195408-.0085258-.0271642-.0063788-.0075923-.0153402-.0122908-.0252351-.0131621-.034881-.0030805-.0693575-.0046052-.1066967-.0046052Z"/>
      </g>
      <path class="st3" d="M23.0273475,13.5307828c-.0177633,0-.0361217-.0110773-.0446514-.0269464-.0055698-.0104239-.0093348-.0272576.004574-.0482298.1409243-.1828064.3166713-.3908167.5443118-.5372796.129598-.087996.2785191-.139773.4225238-.1898697.0329207-.0114507.0658143-.0229014.098451-.0347254.0592137-.0232436.1148802-.0529905.1661593-.0887117.0001245,0,.0002489-.0000311.0003463-.0000311.0014896,0,.0027031.0015558.0027031.0023648-.0896762.0735893-.1993561.1178051-.3054616.1605584l-.0310266.0125086c-.3050922.1132622-.5656885.3445161-.8194081.7275538-.0099571.0148734-.0232748.022808-.0385216.022808Z"/>
    </g>
    <g>
      <g>
        <path class="st2" d="M24.3113794,11.0162385c-.2364503.0979842-.4863427.2648281-.5672131.5174276-.0168026.050719-.0191986.1071634-.030307.1591893-.0219368.1230948-.0821151.2482433-.1645413.3425558-.0818661.0958061-.1681196.1682752-.2385973.2478699-.2200522.2390641-.3162006.5474856-.3797705.866331-.0411353.1806905-.30559.1224725-.2648863-.0602405.0880854-.3396931.2312189-.7000473.4957047-.9499708.0861913-.084791.1787613-.1542108.2489007-.2273644.0799681-.0805904.1297536-.1806905.1522465-.2936415.0189496-.1078791.0620764-.2142957.1275133-.3011715.1114574-.1500101.2616231-.2508259.4248887-.3287714.0538929-.0250484.10679-.0468295.1656926-.0653124.0257991-.0081213.0532706.0062232.0613607.0320183.0080902.0255462-.0060676.052586-.0309915.0610807h0Z"/>
        <path class="st3" d="M22.7992402,13.2710266c-.0115129,0-.0230258-.0013069-.0342276-.0038273-.0690775-.015558-.1331181-.0786612-.1104346-.1803793.1119553-.4318275.2751897-.7444186.4991003-.9560073.0409175-.040233.083173-.0769498.1240594-.1124531.0451844-.0392684.0879026-.0763275.1244328-.1144757.0762964-.0768876.1264553-.1736583.1492011-.2877917.0200076-.1141023.0648768-.21999.1296603-.3059634.1000067-.1346388.2363881-.2402465.4291827-.3323186.0616407-.0286267.1132039-.0489454.1672795-.0659036.0154646-.0049163.031925-.0034228.0463006.0040762.0143756.0075301.024955.0201632.0298091.0356589.0098367.0310537-.0072189.0649079-.0380548.0756118-.2088504.0865958-.4754521.2453495-.5601498.510022-.0101127.0305559-.0149979.0640989-.0197275.0965529-.0029249.0203187-.0060054.041322-.0102994.0614852-.0222479.1248062-.0832001.2517283-.1671861.3478455-.0452115.0529283-.091481.0984821-.1361946.1425112-.036499.035939-.0709755.0698554-.1024649.1054209-.2310361.2510126-.3202456.576019-.3770323.8608235-.0186385.0818661-.0812127.119112-.143254.119112ZM24.295728,10.9326298c-.0037339,0-.007499.0005912-.0111706.0017425-.0530839.016647-.1037407.0366235-.1642924.0647523-.1890607.0902986-.3226727.1936036-.4203768.3251308-.0626053.0830797-.1059188.1854823-.1253663.2961619-.0237104.1190186-.0760163.2198344-.1555177.2999269-.0371214.0387394-.080213.0761719-.1258019.1157826-.0406375.0352855-.0826089.0717534-.1231882.1116441-.2207367.2086326-.3818242.5175521-.4925348.9445566-.0190741.0856001.0346632.1388084.0926945.1519082.058218.0131621.1297847-.0117307.1492945-.0972374.0573779-.2877294.1477698-.6165631.3825709-.871683.0318628-.0360012.0666233-.0701976.1033984-.1064166.0443714-.0436868.0902674-.0888672.1349189-.1411421.0813372-.0930679.1403019-.2158515.1618964-.336986.0042318-.0197898.0072189-.0403885.0101438-.0603339.0048541-.0334497.0098638-.0680506.0205988-.1004735.087471-.2732605.3603581-.4361215.573872-.5245843l.0007157-.00028c.0190119-.0064721.0295913-.0272887.0235548-.0463939-.0029871-.0094904-.0094593-.0172383-.0182651-.0218434-.0053831-.0028004-.0112329-.0042318-.0171449-.0042318Z"/>
      </g>
      <path class="st3" d="M22.7988006,13.1700553c-.0154024,0-.0299647-.0064721-.0389261-.0173627-.0086191-.0104861-.0113884-.0240527-.0081835-.0403263.0602405-.2228215.1429779-.4822354.2972509-.7046835.0860668-.1309049.2038408-.2357346.3177252-.3371105.0260441-.0231814.052057-.0463317.0776655-.0697309.0457716-.0441225.0858218-.0929434.1195165-.1455605.0004356-.0001867.0008712-.0002489.0012758-.0002489.0012758,0,.0022404.0007468.002427.0012446-.0546397.1023093-.1390573.185109-.2207367.2652015l-.0238931.0234614c-.2385079.2213902-.3907895.5347903-.4785988.9857231-.00725.0365613-.0366546.0393928-.0455227.0393928Z"/>
    </g>
    <g>
      <g>
        <path class="st2" d="M23.0276315,10.3921764c-.1809434.1810016-.3479739.4308007-.3260372.6950998.0038895.0532706.0232787.1063233.0329247.1586604.026818.1221302.0191324.260783-.020945.3794593-.0389572.1198276-.0909209.2198033-.125553.3203079-.1118308.3050922-.0826129.6268314-.019323.9457079.031116.1826819-.2354857.2301027-.2677841.0457094-.0486343-.3475344-.0542934-.7352394.0944059-1.0673714.0472029-.1113019.1061406-.2108419.1429779-.3052789.0430334-.1050787.050719-.2165983.0282533-.3295493-.0237726-.1069456-.0246399-.2217325.0025515-.32706.0455849-.1812195.1457472-.3318519.2667262-.4663352.0402018-.0437491.0807771-.0841376.1281045-.1237482.0207583-.0173627.0516214-.0146245.068953.0060987.0172383.0205054.0145312.0509057-.0052546.0682996h0Z"/>
        <path class="st3" d="M22.4331879,13.065879c-.0627609,0-.1281978-.0371214-.1438803-.1267043-.0618274-.4417846-.0306181-.7930218.0952771-1.0742169.0224035-.052866.0473896-.1029628.0715667-.1514103.0267286-.0535506.0519637-.1041452.0711622-.1533707.0410731-.1002868.0503807-.2088816.0276932-.3229838-.0251417-.1130755-.0242082-.2280801.002676-.3322875.0409175-.1626432.1265487-.3124355.269371-.4712515.0459894-.0500345.085849-.088525.129322-.1248995.0124464-.0104239.0280938-.0153713.0443363-.01394.0161492.0014313.0307737.0090547.0411976.0215011.0209411.024955.0181406.0627298-.0062232.0844488-.1598117.1599361-.3453523.408615-.3223615.6855472.0023648.0320495.0107039.0649079.0187318.0966462.0050719.0199142.0102994.040513.0140333.0608317.0272265.1238105.0194786.2644236-.0213456.3853714-.0215323.0661837-.0467984.1259264-.0712556.1837087-.0200076.0472029-.0388639.091761-.0543245.1366925-.1174357.3204012-.0754602.6547113-.0189225.9395469.0167093.0981709-.0476657.1619898-.1198899.1744362-.0088992.0015558-.017985.0023337-.0271642.0023337ZM22.995298,10.3181204c-.0087125,0-.0170516.0030182-.0238037.0086814-.0426289.03569-.0818039.0735271-.1269843.1226903-.1401152.1557666-.224035.302354-.2639568.4612321-.0260441.1006913-.0268842.2118998-.0024893.3216147.0236481.1189875.0139088.2321563-.0288756.3365815-.0195097.0500345-.0449626.1010958-.0719401.1551443-.0240176.0481364-.0488521.0978909-.0710689.1502902-.1241216.2772434-.1547398.6242799-.0935929,1.0611482.0151184.0863468.0851605.1150047.1437558.1048297.0588364-.0101438.1154674-.0604583.1007496-.1469296-.0571289-.2877294-.0995049-.6260846.019852-.9517444.0156864-.0454604.0346943-.0903919.0548575-.1379682.0242705-.0573156.0493188-.1165916.0706022-.1819351.0395173-.1171205.0470162-.2531285.0206027-.3732984-.0036756-.0199453-.0088098-.0401396-.0137883-.0596804-.008304-.0327651-.0168649-.0666193-.0193853-.1006291-.0237415-.2859558.166066-.5408579.329456-.7043102l.0005641-.0004979c.0150873-.0132865.016892-.0365613.00401-.0518703-.0063788-.0076545-.0153402-.0123219-.0252351-.0131932-.0010891-.0000933-.0022404-.0001556-.0033294-.0001556Z"/>
      </g>
      <path class="st3" d="M22.4338102,12.9649699c-.0111395,0-.0378331-.0038273-.0450248-.0393617-.0296224-.2288891-.0524304-.5002205.0049786-.7647996.0294357-.1538685.0981087-.2957885.1645413-.4330411.0151846-.031396.0303381-.0627298.0450559-.0941569.0254218-.0583425.0437802-.1188008.0547019-.1801926l.0038273-.000529c-.0113573.1155025-.0577201.2243462-.1025271.3296427l-.0130065.0307115c-.1356657.2957885-.15642.6435718-.0650013,1.09382.0032361.0160558.0004356.0296224-.0082457.040233-.0089614.0109217-.0240215.0176739-.0392995.0176739Z"/>
    </g>
    <g>
      <g>
        <g>
          <path class="st2" d="M22.0041297,10.1525834l-.1347011,2.9016271c-.0015247.0326407.0245505.0599605.0572534.0599605h.2694332c.0327029,0,.058747-.0273198.0572534-.0599605l-.1347322-2.9016271c-.0033916-.0728425-.1111152-.0728425-.1145068,0Z"/>
          <path class="st3" d="M22.1961153,13.1259328h-.2694644c-.019043,0-.0367791-.0075923-.04991-.0213456-.0131932-.0138155-.0199453-.0318939-.0190702-.0509369l.1347322-2.901596c.0020808-.0452737.0372419-.0658725.0689802-.0658725.0317694,0,.0668994.0205988.0690152.0658725l.1347322,2.901596c.0008712.019043-.0058809.0371214-.019043.0509057-.0131581.0137844-.0308942.0213767-.0499723.0213767ZM22.0613831,10.1097367c-.0216256,0-.0440874.013411-.0454916.0434068l-.1347322,2.901596c-.0005601.0125709.0039206.0244883.0126059.0335741.0086463.0090859.0203459.0140644.0328856.0140644h.2694644c.0125437,0,.0242705-.0049786.0329207-.0140955.0086814-.0090859.0131309-.0210033.0125709-.033543l-.1347322-2.901596c-.0014002-.0299958-.023866-.0434068-.0454916-.0434068Z"/>
        </g>
        <path class="st3" d="M21.998591,13.0906162c-.0003734-.000529-.0033877-.0050408-.0031738-.0119797l.0628232-1.7587373c.0002489-.0070633.0025515-.0101127.0033605-.010455.0003734.0003423.0026799.0033916.0029249.0104239l.0628232,1.7587995c.0002178.0064721-.002392.0108284-.0038273.0119485h-.1249306Z"/>
      </g>
      <g>
        <g>
          <path class="st2" d="M22.1186365,17.7392188l.1347322-2.901596c.0014936-.0326407-.0245505-.0599605-.0572534-.0599605h-.2694332c-.0327029,0-.0587781.0273198-.0572534.0599605l.1347011,2.901596c.0033916.0728736.1111152.0728736.1145068,0Z"/>
          <path class="st3" d="M22.0613831,17.8056514c-.0317383,0-.0668993-.0205988-.0689802-.0658725l-.1347322-2.901596c-.0008752-.019043.005877-.0371525.0190702-.0509369.0131309-.0137844.030867-.0213767.04991-.0213767h.2694644c.019078,0,.0368141.0075923.0499723.0214078.0131621.0137844.0199142.0318628.019043.0509057l-.1347322,2.901596c-.0021159.0452737-.0372458.0658725-.0690152.0658725ZM21.9266509,14.7894241c-.0125086,0-.0242393.0050097-.0328856.0140955-.0086853.0090859-.013166.0210033-.0126059.0335741l.1347322,2.901596c.0014042.0299958.023866.0434068.0454916.0434068s.0440913-.013411.0454916-.0434068l.1347322-2.9016271c.0005601-.0125397-.0038895-.0244572-.0125709-.033543-.0086502-.0090859-.020377-.0140955-.0329207-.0140955h-.2694644Z"/>
        </g>
        <path class="st3" d="M22.0613831,16.5822334c-.0009024-.0006534-.0029249-.0037961-.0031427-.0102994l-.0628232-1.7587684c-.0002139-.0069389.0028004-.0114196.0041073-.0121352l.1246506.0001867c.0003734.000529.0034228.0050097.0031738.0119797l-.0628232,1.7587373c-.0002178.0065032-.0022092.009646-.0031427.0102994Z"/>
      </g>
    </g>
    <g>
      <g>
        <g>
          <path class="st2" d="M20.5568634,10.4632453l.9859137,2.732294c.0111045.0307426.0456432.0459894.0758568.0334808l.0957439-.0396418.0574129-.0237726.095771-.0396729c.0302136-.0125086.0438424-.0477319.0299375-.0773232l-1.2348726-2.6291756c-.0309915-.0660281-.1305315-.0247994-.1057632.0438113Z"/>
          <path class="st3" d="M21.596666,13.2452315c-.0094281,0-.0188874-.0019914-.0278799-.0059432-.0174249-.0076856-.0306181-.0218123-.0370902-.0397351l-.9859408-2.732294c-.0153402-.0426289.0092414-.0751451.0385838-.0872803.0293424-.0121975.0697309-.0065655.0889606.0344454l1.2348375,2.6291756c.0081213.0172694.0088058.0365613.0018981.0543285-.0068766.0177672-.0203498.0315827-.0379926.0388639l-.2488967.1031183c-.0085569.0035472-.0175144.0053208-.0264797.0053208ZM20.5679407,10.4592625l.9859408,2.7322629c.0042318.0118241.0129442.0211277.0244572.0261997s.0242082.0052275.0357834.0004356l.2489278-.1031183c.0116063-.004823.0204743-.0139088.0250484-.0256084.0045118-.0117307.0040762-.0244572-.0012446-.0358145l-1.2348687-2.6291756c-.0127576-.0271642-.0385216-.0309915-.0586536-.0227147-.0199765.0082769-.0355656.0292801-.0253906.0575334h0Z"/>
        </g>
        <path class="st3" d="M21.6766652,13.1795146c-.0017114-.0004979-.0058187-.0035161-.0081213-.0096148l-.6150073-1.648929c-.002427-.0065655-.0015247-.0102994-.0009024-.0108906.0003112.0001245.0035783.001618.0067522.0084947l.7310738,1.6008548c.0028587.0063165.0018008.0116374.0008362.0127887l-.0438735.0179539-.0707577.0293424Z"/>
      </g>
      <g>
        <g>
          <path class="st2" d="M23.5659028,17.428588l-.9859097-2.732294c-.0111084-.0307737-.0456471-.0460205-.0758296-.0335119l-.0957399.0396729-.0574129.0237726-.095775.0396729c-.0302136.0125086-.0438424.0477319-.0299647.0773232l1.2348726,2.6291756c.0310186.0660281.1305275.0247994.1057592-.0438113Z"/>
          <path class="st3" d="M23.5101118,17.5175174c-.0231814,0-.0471096-.0113262-.0606139-.0401085l-1.2348687-2.6291756c-.0081213-.0172694-.0088058-.0365613-.0018981-.0543285.0068766-.0177672.0203498-.0315827.0379926-.038895l.2489278-.1030872c.0176428-.0073123.0369035-.0070633.0543285.0006223.0174561.0076856.0306181.0218123.0370942.0397351l.9859369,2.732294c.0153753.0426289-.0092414.075114-.0385527.0873114-.0087747.0036095-.0184829.005632-.0283467.005632ZM22.5261002,14.6701877c-.005912,0-.0118241.0011513-.0174561.003485l-.2488967.1031183c-.0116374.0047919-.0205054.0139088-.0250795.0256084-.0045118.0117307-.0040762.024426.0012446.0357834l1.2348998,2.6292068c.0127887.0271954.038646.0309604.0586225.0226835.0199765-.0082457.0355967-.029249.0253906-.0575023l-.9859097-2.732294c-.0042629-.0118241-.0129442-.0210966-.024426-.0261997-.005912-.0025826-.0121663-.0038895-.0183895-.0038895Z"/>
        </g>
        <path class="st3" d="M23.0702875,16.3815665c-.0009957-.0002489-.004014-.0020225-.0068727-.0083391l-.731105-1.6008237c-.0028627-.0063165-.0017736-.0116374-.0008401-.0127887l.0706333-.0290312.0446203-.018514c.000529.0003423.0050719.0033294.007499.0098638l.6150073,1.6488979c.0023026.0060987.0016531.0097704.0010579.010735Z"/>
      </g>
    </g>
    <g>
      <g>
        <g>
          <path class="st2" d="M19.3386418,11.3041235l1.9564793,2.1470024c.021999.024146.0597427.0250172.0828618.0018981l.0732781-.0732781.0439358-.0439358.0733092-.0733092c.0231231-.0231192.0222479-.0608629-.0018981-.0828618l-2.1470024-1.9564793c-.053924-.0491321-.1300959.0270398-.0809638.0809638Z"/>
          <path class="st3" d="M21.3375321,13.4816196c-.0005601,0-.0011202-.0000311-.0016763-.0000311-.0190469-.0004356-.0366274-.0084635-.0494472-.022528l-1.9564793-2.1470024c-.0305248-.0335119-.0202565-.0729359.0022092-.0954016s.0619208-.0327029.0953743-.0022092l2.1470296,1.9564793c.0140644.0128509.0220652.0304003.022528.0494433.0004356.0190741-.0067522.0369969-.0202254.0504701l-.1905231.1905231c-.0130998.0130998-.0303692.0202565-.0487899.0202565ZM19.3812084,11.2191146c-.0123842,0-.0239282.0057253-.0323917.0141889-.0153091.0153091-.021719.0406686-.0014936.0628854l1.9564832,2.1470024c.0084596.0092726.0200348.0145623.0326056.0148423.0123219.0002178.0243366-.0044185.033263-.0133176l.1905271-.1905231c.0088641-.0088992.0136249-.0206921.0133137-.033263-.0003112-.0125397-.0055698-.024146-.0148695-.0325784l-2.1470024-1.9564793c-.0098988-.0090547-.0204471-.0127576-.0304353-.0127576Z"/>
        </g>
        <path class="st3" d="M21.4122416,13.3850667c-.002676,0-.0070633-.0018047-.0107661-.0057565l-1.1992097-1.2880459c-.0047919-.0051341-.0053208-.0089614-.0049786-.0097393.0020537.0002178.0054142.0015247.0094593.0052897l1.2880459,1.1992098c.0050719.0047296.0061298.0100505.0056942.0114818l-.0541418.0538618-.0341653.0341653.0000622-.0004667Z"/>
      </g>
      <g>
        <g>
          <path class="st2" d="M24.7841555,16.5877098l-1.9564793-2.1470024c-.0220301-.0241771-.0597738-.0250484-.082889-.0019292l-.0732821.0732781-.0439358.0439358-.0733092.0733092c-.0231192.0231192-.0222479.0608629.0019292.082893l2.1470024,1.9564793c.053924.0491321.1300999-.0270398.0809638-.0809638Z"/>
          <path class="st3" d="M24.7412466,16.696429c-.0151846,0-.0311471-.0055386-.0459894-.019043l-2.1470024-1.9565104c-.0140955-.0128198-.0220923-.0303692-.022524-.0494433-.0004396-.019043.0067171-.0369658.0202254-.0504701l.1904881-.190492c.0135043-.0135043.0305248-.0199453.0504701-.0202254.0190741.0004667.0366235.0084635.0494744.022528l1.9564522,2.1470024c.0305208.0334808.0202525.0729359-.0022132.0954016-.0125086.0125086-.030307.0212522-.0493811.0212522ZM22.7852652,14.4337685c-.0121352,0-.0235237.0047296-.0321428.0133488l-.1905231.1905231c-.0088641.0088681-.0136288.0206921-.0133176.033263.00028.0125397.0055386.0241149.0148423.0325784l2.1470024,1.9565104c.0221546.0201943.0475763.0138155.0628543-.0014936.0152779-.0152779.0216878-.0406686.0014625-.0628543l-1.9564793-2.1470024c-.0084635-.0092726-.0200347-.0145312-.0325784-.0148423-.0003734-.0000311-.0007468-.0000311-.0011202-.0000311Z"/>
        </g>
        <path class="st3" d="M23.9252612,15.8100904c-.0018358,0-.0051964-.001338-.0092103-.0050719l-1.2880459-1.1992098c-.005103-.0047607-.0060987-.0100505-.0056942-.0114818l.0541107-.0538618.0341653-.0341653c.0026137.0004667.0070011.0022404.0107039.0062232l1.1992097,1.2880459c.0047919.0051341.0053519.0089303.0050097.0097393l-.0002489-.0002178Z"/>
      </g>
    </g>
    <g>
      <g>
        <g>
          <path class="st2" d="M18.5349161,12.5471757l2.6291795,1.2348376c.0295874.0139088.0647795.00028.0772882-.0299336l.0396729-.0957439.0237726-.057409.0396729-.095775c.0125125-.0302136-.0027343-.0647523-.0334808-.0758296l-2.7322939-.9859409c-.0686107-.0247683-.1098394.0747717-.0438113.1057943Z"/>
          <path class="st3" d="M21.1883932,13.7992826c-.0099843,0-.0199414-.0022092-.0293424-.0065966l-2.6291445-1.2348687c-.0410109-.0192608-.0466117-.0596182-.0344454-.0889606.0121663-.0293735.0446825-.0538929.0872803-.0385527l2.7322939.9859409c.0179228.0064721.0320495.0196342.0397351.0370591.0076856.0174561.0079346.036748.0006223.0543596l-.1031183.2489278c-.0072772.0176116-.0210966.0310849-.0388639.0379926-.0081213.0031427-.0165848.0046985-.0250172.0046985ZM18.5399258,12.5365029l2.6291756,1.2348687c.0113573.0053208.0240838.0057876.0358145.0012446.0116996-.0045429.0207894-.0134421.0256084-.0250484l.1031183-.2489278c.0047919-.0116063.0046363-.0243016-.0004356-.0357834-.0050719-.0115129-.0143756-.0201943-.0261997-.0244572l-2.7322628-.9859409c-.0282844-.010206-.0492255.0054142-.0575334.0254218-.0082768.0199765-.0044807.045865.0227147.0586225Z"/>
        </g>
        <path class="st3" d="M21.2430018,13.6768412c-.0018358,0-.0046985-.0003423-.0080902-.001867l-1.6008548-.731101c-.0063788-.0028938-.0083702-.0062232-.0083702-.0070944l.000035.0000622c.0003384,0,.0013341-.0003734.0031116-.0003734.0021781,0,.0048191.000529.0076506.0015869l1.6488978.6150384c.0065344.002427.0095215.00697.009646.0084324l-.0478524.115098c.0000272-.0001556-.000035-.0001867-.0002217-.0001867-.0004979,0-.0018981.0004045-.0039517.0004045Z"/>
      </g>
      <g>
        <g>
          <path class="st2" d="M25.5878541,15.3446576l-2.6291485-1.2348687c-.0295913-.0138777-.0648146-.0002489-.0773192.0299647l-.0396768.0957439-.0237726.057409-.0396729.095775c-.0125086.0302136.0027382.0647212.0335119.0758296l2.7322628.9859409c.0686107.0247372.1098394-.0747717.0438153-.1057943Z"/>
          <path class="st3" d="M25.5657618,15.4662277c-.0080631,0-.0166511-.0014313-.0257058-.0046985l-2.7322939-.9859409c-.0179228-.0064721-.0320495-.0196342-.0397351-.0370591-.0077168-.0174249-.0079346-.0367169-.0006223-.0543596l.1030912-.2489278c.0073083-.0176428.0210927-.031116.038895-.0379926.0177361-.0069077.037028-.0062854.0543245.0018981l2.6291445,1.2348687c.041046.0192608.0466117.0596182.0344765.0889917-.0095837.0230881-.0317694.0432201-.0615745.0432201ZM22.9343729,14.1161055c-.0055698,0-.0111395.0010268-.0164915.0031116-.0116996.0045429-.0208166.013411-.0256045.0250484l-.1031223.2489278c-.0047919.0116063-.0046674.0243016.0004045.0358145.005103.0114818.0144067.0201632.0262308.0243949l2.7322628.9859409c.0281288.0102372.0492255-.0053831.0575023-.0253595.008308-.0200076.0044807-.0458961-.0227147-.0586536l-2.6291756-1.2348998c-.006161-.0028627-.0126953-.0043251-.0192919-.0043251Z"/>
        </g>
        <path class="st3" d="M24.4939679,14.9553656c-.0021781,0-.004819-.0005601-.0076545-.001618l-1.648929-.6150073c-.0065344-.002427-.0094904-.00697-.009646-.0084324l.0478875-.115098c-.0000622.0001245.0000311.0001867.0001867.0001867.000529,0,.0018981-.0004045.0039828-.0004045.0018047,0,.0046674.0003112.008059.001867l1.6008859.7310699c.0064099.0029249.0083391.0062232.0083391.0070944l-.0000622-.0000311c-.00028,0-.0012758.0003734-.0030494.0003734h0Z"/>
      </g>
    </g>
    <g>
      <g>
        <g>
          <path class="st2" d="M18.2680655,14.0031545l2.9015959.1347322c.0326718.0015247.0599916-.0245505.0599916-.0572534v-.2694332c0-.0327029-.0273198-.0587781-.0599916-.0572534l-2.9015959.1347322c-.0728736.0033605-.0728736.111084,0,.1144757Z"/>
          <path class="st3" d="M21.1724307,14.1497107c-.0011202,0-.0022092,0-.0033294-.0000622l-2.9015648-.1347322c-.0452737-.0021159-.0659036-.0372458-.0659036-.0690152s.0206299-.0668994.0659036-.0689841l2.9015648-.1347322c.0193541-.000809.0371525.0058809.0509369.019043s.0213767.0308982.0213767.0499723v.2694332c0,.0190741-.0075923.0368102-.0214078.0499723-.0129442.0124153-.0297469.0191052-.0475763.0191052ZM18.2686256,13.9914238l2.9015959.1347011c.0121663.0004979.0244572-.0038895.033543-.0125709.0090859-.0086502.0140955-.020381.0140955-.0329207v-.2694332c0-.0125709-.0049786-.0242705-.0140644-.0329207-.009117-.0087125-.0210966-.0132243-.0335741-.0125709l-2.9015959.1347011c-.0299958.0014002-.0434341.023866-.0434341.0454916s.0134383.0441225.0434341.0455227h0Z"/>
        </g>
        <path class="st3" d="M19.4353813,13.9490749c-.0070322-.00028-.0101127-.0025515-.010455-.0033605.0003423-.0004045.0034228-.0027071.010455-.002956l1.7587995-.062792c.0076234,0,.0115129.0030182.012073.0040762l-.0001867.1246817c-.0003734.0001245-.0042629.0031427-.0111395.0031427l-1.7595463-.062792Z"/>
      </g>
      <g>
        <g>
          <path class="st2" d="M25.8547007,13.8886788l-2.9015959-.1347322c-.0326718-.0015247-.0599605.0245505-.0599605.0572534v.2694332c0,.0327029.0272887.0587781.0599605.0572534l2.9015959-.1347322c.0728736-.0033916.0728736-.1111152,0-.1144757Z"/>
          <path class="st3" d="M22.9503354,14.1497107c-.0178295,0-.034601-.0066899-.0475763-.0191052-.0138155-.0131621-.0214078-.0308982-.0214078-.0499723v-.2694332c0-.0190741.0075923-.0368102.0213767-.0499723s.0317072-.019852.0509369-.019043l2.9015959.1347322c.0452426.0020848.0658725.0372147.0658725.0689841s-.0205988.0668994-.0658725.0690152l-2.9015959.1347322c-.0011202.0000622-.0022092.0000622-.0033294.0000622ZM22.9503977,13.7656462c-.0117579,0-.0228391.0044496-.031396.0126331-.0090859.0086502-.0140955.0203498-.0140955.0329207v.2694332c0,.0125397.0050097.0242705.0140955.0329207.0090859.0086814.0211277.0130065.033543.0125709l2.9015959-.1347011c.0299958-.0014002.0434379-.0238971.0434379-.0455227s-.0134421-.0440913-.0434379-.0454916l-2.9015959-.1347011c-.0007157-.0000311-.0014313-.0000622-.002147-.0000622Z"/>
        </g>
        <path class="st3" d="M22.9278697,14.011867c-.0068766,0-.0107661-.0030494-.0113573-.0040762l.0001867-.1246817c.0004045-.0001245.004294-.0031738.0111706-.0031738l1.7595151.0628232c.0070633.0002489.0101438.0025515.010455.0033605-.0003112.0004045-.0033916.002676-.010455.002956l-1.7595151.062792Z"/>
      </g>
    </g>
    <g>
      <g>
        <g>
          <path class="st2" d="M18.5787274,15.4504519l2.7322939-.9859409c.0307465-.0111084.0459933-.045616.0334808-.0758296l-.0396418-.0957439-.0238037-.057409-.0396729-.095775c-.0125086-.0302136-.0477008-.0438424-.0772882-.0299647l-2.6291795,1.2348687c-.0660281.0310226-.0247994.1305315.0438113.1057943Z"/>
          <path class="st3" d="M18.5570396,15.4662277c-.0298091,0-.0519948-.020132-.0615785-.0432201-.0121663-.0293735-.0065655-.0697309.0344454-.0889917l2.6291445-1.2348687c.0172694-.0081213.0365924-.0088058.0543596-.0018981.0177672.0068766.0315866.0203498.0388639.0379926l.1031183.2489278c.0073123.0176116.0070633.0369035-.0006223.0543285-.0076856.0174561-.0218123.0306181-.0397351.0370902l-2.7322939.9859409c-.0090509.0032672-.0176428.0046985-.0257018.0046985ZM21.1884244,14.1161055c-.0065927,0-.0131621.0014625-.019323.0043251l-2.6291756,1.2348998c-.0271954.0127576-.0309915.038646-.0227147.0586536.0082768.0199765.0293113.0355967.0575334.0253595l2.7322628-.9859409c.0118241-.0042318.0211277-.0129131.0261997-.024426.0050719-.0114818.0052275-.0241771.0004356-.0357834l-.1031183-.2489278c-.0048191-.0116374-.01394-.0205054-.0256396-.0250484-.0053519-.0020848-.0109178-.0031116-.0164604-.0031116Z"/>
        </g>
        <path class="st3" d="M19.6288333,14.9553656c-.0021198,0-.0031116-.000529-.0032711-.0007157.0001245-.0004979.0021159-.0037961.0084947-.0067211l1.6008237-.7310699c.0034228-.0015558.0062854-.001867.0081213-.001867.0028316,0,.0043562.0007468.0046985.0010268l.0290351.0706022.0185101.0446203c-.0003423.000529-.0033294.0050719-.0098326.007499l-1.648929.6150073c-.0028316.0010579-.0054453.001618-.0076506.001618h0Z"/>
      </g>
      <g>
        <g>
          <path class="st2" d="M25.5440388,12.4413813l-2.7322628.9859409c-.0307737.0110773-.0460205.045616-.0335119.0758296l.0396729.0957439.0237726.057409.0396768.095775c.0125047.0302136.0477279.0438424.0773192.0299336l2.6291485-1.2348376c.0660241-.0310226.0248265-.1305626-.0438153-.1057943Z"/>
          <path class="st3" d="M22.9343729,13.7992826c-.0084324,0-.0168649-.0015558-.0249822-.0046985-.0178023-.0069077-.0315867-.020381-.038895-.0379926l-.1030912-.2489278c-.0073123-.0176116-.0070594-.0369347.0006223-.0543596.0076856-.0174249.0218123-.0306181.0397351-.0370591l2.7322939-.9859409c.0425978-.0153713.075114.0092103.0872803.0385527.0121352.0293424.0065695.0696998-.0344765.0889606l-2.6291445,1.2348687c-.009397.0043874-.0193541.0065966-.0293424.0065966ZM25.5653532,12.4492537c-.0053831,0-.0111706.0009957-.0173005.0032049l-2.7322628.9859409c-.0118241.0042629-.0211277.0129442-.0262308.024426-.0050719.0114818-.0051964.0242082-.0004045.0358145l.1031223.2489278c.0047879.0116063.0138738.0205054.0255734.0250484.0117307.0045429.0244572.0041073.0358145-.0012446l2.6291756-1.2348687c.0271954-.0127576.0310226-.038646.0227147-.0586225-.0064721-.0156825-.0207544-.0286267-.0402018-.0286267Z"/>
        </g>
        <path class="st3" d="M22.8797955,13.6768412c-.0028316,0-.0043874-.0007468-.0046985-.0010268l-.0290623-.0706022-.0184789-.0446203c.0003383-.000529.0032943-.0050719.0098287-.007499l1.648929-.6150384c.0028356-.0010579.0054764-.0015869.0076545-.0015869.0020848,0,.0031116.0004979.0032712.0006846-.0001596.0004979-.0020888.0038273-.0084987.0067211l-1.6008548.731101c-.0034228.0015247-.0062854.001867-.0080902.001867Z"/>
      </g>
    </g>
    <g>
      <g>
        <g>
          <path class="st2" d="M19.4195744,16.6686736l2.1470335-1.9564793c.024146-.0220301.0250212-.0597738.0018981-.082893l-.0732781-.0732781-.0439318-.0439358-.0733132-.0733092c-.0231192-.0231192-.0608629-.0222479-.0828618.0019292l-1.9564793,2.1470024c-.0491321.053924.0270398.1300959.0809327.0809638Z"/>
          <path class="st3" d="M19.3815196,16.696429c-.0191052,0-.0368724-.0087436-.0493811-.0212522-.0224657-.0224657-.032734-.0619208-.0022092-.0954016l1.9564793-2.1470024c.0128198-.0140644.0304003-.0220612.0494472-.022528.0188835-.0000622.036993.0067211.0504662.0202254l.1905231.190492c.0134732.0135043.020661.0314271.0202254.0504701-.0004628.0190741-.0084635.0366235-.022528.0494744l-2.1470296,1.9564793c-.0148151.0135043-.0308048.019043-.0459933.019043ZM21.337501,14.4337685c-.0003734,0-.0007468,0-.0010891.0000311-.0125709.0003112-.024146.0055698-.0325784.0148423l-1.9565104,2.1470024c-.0202254.0221857-.0138155.0475763.0014936.0628543.0152779.0152779.0406686.0216567.062827.0014936l.0079307.0086814-.0079307-.0086814,2.1470024-1.9565104c.0092997-.0084635.0145583-.0200387.0148695-.0325784.0003112-.0125709-.0044496-.0243949-.0133137-.033263l-.1905271-.1905231c-.0086502-.0086191-.0200387-.0133488-.0321739-.0133488Z"/>
        </g>
        <path class="st3" d="M20.197011,15.8100282c-.0000661-.000529.0004628-.0043251.0052897-.0094593l1.1991747-1.2880459c.0037028-.0039828.0080902-.0057565.0107661-.0057565l.0341342.0336986.0546397.0546397c-.0000933.0006534-.0011513.0059743-.0062232.0107039l-1.2880459,1.1992098c-.0040451.0037339-.0074056.0050719-.0092103.0050719l-.0005251-.0000622Z"/>
      </g>
      <g>
        <g>
          <path class="st2" d="M24.7031917,11.2231597l-2.1470024,1.9564793c-.0241771.021999-.0250484.0597427-.0019292.0828618l.0732781.0732781.0439358.0439669.0733132.0732781c.0231152.0231192.0608589.0222479.082889-.0018981l1.9564793-2.1470024c.0491361-.053924-.0270398-.1300959-.0809638-.0809638Z"/>
          <path class="st3" d="M22.785238,13.4816196c-.0184246,0-.035694-.0071567-.0487938-.0202565l-.1904881-.1905231c-.0135083-.0134732-.020665-.031396-.0202254-.0504701.0004317-.019043.0084285-.0365924.022524-.0494433l2.1470024-1.9564793.0079346.0087125-.0079346-.0087125c.0334848-.0305248.0729047-.0202565.0953705.0022092s.0327651.0618897.0022404.0954016l-1.9565104,2.1470024c-.0128198.0140644-.0303692.0220923-.0494433.022528-.000529,0-.0011202.0000311-.0016763.0000311ZM24.7415577,11.2191146c-.0100153,0-.0205365.0037028-.0304314.0127576l-2.1470024,1.9564793c-.0093037.0084324-.0145623.0200076-.0148423.0325784-.0003112.0125709.0044535.0243638.0133176.033263l.1905231.1905231c.0088681.0088992.0212833.0138155.033263.0133176.0125437-.00028.0241149-.0055698.0325784-.0148423l1.9565104-2.1470024c.0201943-.0222168.0138155-.0475763-.0014936-.0628854-.0084635-.0084635-.0200347-.0141889-.0324228-.0141889Z"/>
        </g>
        <path class="st3" d="M22.7097778,13.3850045l-.087996-.088276c.0001245-.0006534.0011202-.0059743.0061921-.0107039l1.288077-1.1992098c.004014-.003765.0073745-.0050719.0092103-.0050719.0005912.0005601.0000311.0043874-.0047607.0095215l-1.1992097,1.2880459c-.0037028.0039517-.0080902.0057565-.0107661.0057565l-.0007468-.0000622Z"/>
      </g>
    </g>
    <g>
      <g>
        <g>
          <path class="st2" d="M20.6626266,17.4723993l1.2348726-2.6291756c.0139049-.0295913.0002761-.0648146-.0299375-.0773232l-.0957439-.0396418-.057409-.0238037-.095775-.0396729c-.0302136-.0125086-.0647523.0027382-.0758568.0335119l-.9859137,2.732294c-.0247683.0686107.0747717.1098394.1057632.0438113Z"/>
          <path class="st3" d="M20.6126543,17.5175174c-.0098326,0-.0195719-.0020225-.0283155-.0056631-.0293424-.0121663-.053924-.0446514-.0385838-.0872803l.9859408-2.732294c.0064721-.0179228.0196653-.0320495.0370902-.0397351.0174872-.0077168.036748-.0079346.0543596-.0006223l.2488967.1030872c.0176428.0073123.031116.0210966.0380237.038895.0068766.0177672.0061921.0370591-.0019292.0543285l-1.2348375,2.6291756c-.0135043.0287823-.0374325.0401085-.060645.0401085ZM21.596666,14.6701877c-.0062232,0-.0124464.0012758-.0183584.0038895-.0114818.0050719-.0201943.0143756-.024426.0261997l-.9859408,2.732294c-.0101749.0282533.0054142.0492255.0253906.0575023.0200387.008308.0458961.0044807.0586536-.0226835l1.2348687-2.6292068c.0053208-.0113573.0057565-.0240838.0012446-.0357834-.004574-.0116996-.0134421-.0208166-.0250484-.0256084l-.2489278-.1031183c-.005632-.0023337-.011544-.003485-.0174561-.003485Z"/>
        </g>
        <path class="st3" d="M21.0525098,16.3815665c-.0005912-.0009646-.0012446-.0046363.0010579-.010735l.6149762-1.6488979c.0024582-.0065344.00697-.0095215.0084635-.0096771l.115098.0478875c.0001556.0006223.0012135.0059432-.0016452.0122286l-.7310738,1.6008548c-.0028938.0063165-.0058809.0080902-.0068766.0083391Z"/>
      </g>
      <g>
        <g>
          <path class="st2" d="M23.4601436,10.419434l-1.2348726,2.6291756c-.0138777.0295913-.0002489.0648146.0299647.0773232l.0957127.0396418.057409.0237726.0958061.0396729c.0301825.0125086.0647212-.0027382.0758296-.0334808l.9859448-2.732294c.0247332-.0686107-.0747757-.1098394-.1057943-.0438113Z"/>
          <path class="st3" d="M22.5261002,13.2452315c-.0089614,0-.0178917-.0017736-.0264486-.0053208l-.2489278-.1031183c-.0176428-.0072811-.031116-.0210966-.0379926-.0388639-.0069077-.0177983-.0062232-.0370591.0018981-.0543285l1.2348687-2.6291756c.0192608-.0410109.0596182-.0466117.0889606-.0344454.0293113.0121352.053928.0446514.0385527.0872803l-.9859369,2.732294c-.0064761.0179228-.0196381.0320183-.0370942.0397351-.0089574.0039517-.0184207.0059432-.0278799.0059432ZM23.4601436,10.419434l.0106688.0050097-1.2348998,2.6291756c-.0053208.0113573-.0057565.0240838-.0012446.0357834.004574.0117307.0134421.0208166.0250795.0256396l.2488967.1031183c.0116374.0047919.0243638.0046363.0358145-.0004356.0115129-.0050719.0201943-.0143756.0244572-.0261685l.9859097-2.732294c.010206-.0282533-.0054142-.0492566-.0253906-.0575334s-.0458338-.0044807-.0586225.0227147l-.0106688-.0050097Z"/>
        </g>
        <path class="st3" d="M22.3306608,13.1316893c-.0001245-.0006223-.0012135-.0059432.0016491-.0122286l.731105-1.6008859c.0031387-.0068766.006437-.0083702.0070905-.0083702.0002489.0004667.0011824.0042007-.0012758.0107661l-.6150073,1.648929c-.0022715.0060987-.0064099.009117-.0081213.0096148l-.1154403-.0478253Z"/>
      </g>
    </g>
    <g>
      <g>
        <path class="st3" d="M22.0613831,17.8056514c-.0317383,0-.0668993-.0205988-.0689802-.0658725l-.1347322-2.901596c-.0008752-.019043.005877-.0371525.0190702-.0509369.0131309-.0137844.030867-.0213767.04991-.0213767h.2694644c.019078,0,.0368141.0075923.0499723.0214078.0131621.0137844.0199142.0318628.019043.0509057l-.1347322,2.901596c-.0021159.0452737-.0372458.0658725-.0690152.0658725ZM21.9266509,14.7894241c-.0125086,0-.0242393.0050097-.0328856.0140955-.0086853.0090859-.013166.0210033-.0126059.0335741l.1347322,2.901596c.0014042.0299958.023866.0434068.0454916.0434068s.0440913-.013411.0454916-.0434068l.1347322-2.9016271c.0005601-.0125397-.0038895-.0244572-.0125709-.033543-.0086502-.0090859-.020377-.0140955-.0329207-.0140955h-.2694644Z"/>
        <path class="st3" d="M22.0613831,16.5822334c-.0009024-.0006534-.0029249-.0037961-.0031427-.0102994l-.0628232-1.7587684c-.0002139-.0069389.0028004-.0114196.0041073-.0121352l.1246506.0001867c.0003734.000529.0034228.0050097.0031738.0119797l-.0628232,1.7587373c-.0002178.0065032-.0022092.009646-.0031427.0102994Z"/>
      </g>
      <g>
        <path class="st3" d="M22.1961153,13.1259328h-.2694644c-.019043,0-.0367791-.0075923-.04991-.0213456-.0131932-.0138155-.0199453-.0318939-.0190702-.0509369l.1347322-2.901596c.0020808-.0452737.0372419-.0658725.0689802-.0658725.0317694,0,.0668994.0205988.0690152.0658725l.1347322,2.901596c.0008712.019043-.0058809.0371214-.019043.0509057-.0131581.0137844-.0308942.0213767-.0499723.0213767ZM22.0613831,10.1097367c-.0216256,0-.0440874.013411-.0454916.0434068l-.1347322,2.901596c-.0005601.0125709.0039206.0244883.0126059.0335741.0086463.0090859.0203459.0140644.0328856.0140644h.2694644c.0125437,0,.0242705-.0049786.0329207-.0140955.0086814-.0090859.0131309-.0210033.0125709-.033543l-.1347322-2.901596c-.0014002-.0299958-.023866-.0434068-.0454916-.0434068Z"/>
        <path class="st3" d="M21.998591,13.0906162c-.0003734-.000529-.0033877-.0050408-.0031738-.0119797l.0628232-1.7587373c.0002489-.0070633.0025515-.0101127.0033605-.010455.0003734.0003423.0026799.0033916.0029249.0104239l.0628232,1.7587995c.0002178.0064721-.002392.0108284-.0038273.0119485h-.1249306Z"/>
      </g>
    </g>
    <g>
      <g>
        <path class="st2" d="M23.5428459,14.0149474c0,.8165766-.6619613,1.4785379-1.4785379,1.4785379-.8165455,0-1.4785068-.6619613-1.4785068-1.4785379,0-.8165455.6619613-1.4785068,1.4785068-1.4785068.8165766,0,1.4785379.6619613,1.4785379,1.4785068Z"/>
        <path class="st3" d="M22.064308,15.5052472c-.8217418,0-1.4902997-.6685579-1.4902997-1.4902997s.6685579-1.4902997,1.4902997-1.4902997c.8217729,0,1.4903308.6685579,1.4903308,1.4902997s-.6685579,1.4902997-1.4903308,1.4902997ZM22.064308,12.5482025c-.8087314,0-1.4667449.6579785-1.4667449,1.4667449s.6580135,1.4667449,1.4667449,1.4667449c.8087665,0,1.4667449-.6579785,1.4667449-1.4667449s-.6579784-1.4667449-1.4667449-1.4667449Z"/>
      </g>
      <g>
        <g>
          <g>
            <g>
              <g>
                <path class="st3" d="M21.5270907,13.4242728c-.1511925,0-.2737895.1218191-.2737895.1218191,0,0,.1225969.1217879.2737895.1217879s.2736028-.1217879.2736028-.1217879c0,0-.1224103-.1218191-.2736028-.1218191ZM21.5270907,13.6563047c-.1227797,0-.2223508-.1090615-.2223508-.1090615,0,0,.0995711-.1090615.2223508-.1090615.1227836,0,.2221681.1090615.2221681.1090615,0,0-.0993844.1090615-.2221681.1090615Z"/>
                <circle class="st3" cx="21.5269973" cy="13.5460919" r=".1122664"/>
              </g>
              <path class="st3" d="M21.5269973,13.7367084c-.144876,0-.2630194-.0629476-.2719225-.1424178-.0003423.0036095-.0008712.0071878-.0008712.0108284,0,.0952149.1221302.1723825.2727938.1723825s.2727977-.0771676.2727977-.1723825c0-.0036406-.0005329-.0072189-.0008752-.0108284-.0088992.0794702-.1270465.1424178-.2719225.1424178Z"/>
            </g>
            <path class="st3" d="M21.1635005,13.5233461s.1067589-.203094.3576782-.195315c.2560534.0079035.3500547.22055.3500547.22055,0,0-.0916637-.1041141-.2034674-.1425423-.1368481-.0470474-.3603852-.0687663-.5042655.1173072Z"/>
          </g>
          <g>
            <g>
              <g>
                <path class="st3" d="M22.6104245,13.4242728c-.1511925,0-.2737895.1218191-.2737895.1218191,0,0,.1225969.1217879.2737895.1217879s.2736028-.1217879.2736028-.1217879c0,0-.1224103-.1218191-.2736028-.1218191ZM22.6104245,13.6563047c-.1227836,0-.2223548-.1090615-.2223548-.1090615,0,0,.0995711-.1090615.2223548-.1090615s.2221681.1090615.2221681.1090615c0,0-.0993844.1090615-.2221681.1090615Z"/>
                <circle class="st3" cx="22.6103312" cy="13.5460919" r=".1122664"/>
              </g>
              <path class="st3" d="M22.6103312,13.7367084c-.1448449,0-.2630234-.0629476-.2719186-.1424178-.0003462.0036095-.0008752.0071878-.0008752.0108284,0,.0952149.1221302.1723825.2727938.1723825s.2727938-.0771676.2727938-.1723825c0-.0036406-.000529-.0072189-.0008712-.0108284-.0088992.0794702-.1270465.1424178-.2719225.1424178Z"/>
            </g>
            <path class="st3" d="M22.2468343,13.5233461s.1067589-.203094.3577093-.195315c.2560223.0079035.3500236.22055.3500236.22055,0,0-.0916677-.1041141-.2034674-.1425423-.1368481-.0470474-.3603852-.0687663-.5042655.1173072Z"/>
          </g>
        </g>
        <path class="st3" d="M22.0647436,14.3611749c-.000529,0-.0010579-.0000311-.0015869-.0000933-.102745-.0057565-.1398974-.0475763-.1533084-.0753629-.0493188.0398596-.1326785.0663393-.1933858.0448692-.0309604-.0109528-.0688908-.0389572-.0735893-.110275-.0034539-.052586.0098638-.093099.0396418-.1203566.0449315-.0411976.112671-.0379304.1329586-.0358145.1816551-.1262998.1691153-.41907.1452494-.5831757-.0084013-.0584047-.0416643-.1096216-.0912632-.140582-.2126155-.1330519-.4208125-.1490455-.6188617-.0475452-.1485827.0761719-.2356141.1936347-.2364542.1948171-.0046674.0064099-.013691.007779-.0200387.0031116-.0064099-.0046674-.0078101-.0136599-.0031116-.0200387.0035472-.0049163.3638702-.4862494.893682-.1546775.0567867.0354411.0948726.0940325.1044563.1608074.0250172.1720714.0372458.4807107-.162052.6141049-.002956.0019914-.0065966.0028627-.0101438.0022404-.0007779-.0000933-.0731497-.0105483-.1151291.0280355-.0229636.0210655-.0331385.0537684-.0302758.0971752.0029249.0447448.0212833.0733715.0544841.0851022.0555731.0196031.1424489-.012602.1800993-.0534261.0038584-.0042007.009926-.0056631.0152779-.0037961.0054142.001867.0091481.0067833.0095837.0125086.0002489.0025515.0079968.0668994.1333942.0736826.1270154-.0067833.1332697-.0730292.1333008-.0736826.0004085-.0057253.0041695-.0106105.0095526-.0125086s.0113924-.0004045.0152779.003765c.0366235.0395173.1227836.0822706.1799126.0621386.0327962-.0115751.0512169-.0431579.0547019-.0938458.0031738-.0454604-.0071878-.0792213-.0307426-.1003179-.0418821-.0374948-.1135733-.0250172-.1142268-.0248928-.003765.0006846-.007499-.0001245-.0105794-.0021781-.19908-.1332386-.1867892-.4419713-.1617408-.614136.0095215-.0666504.047483-.1252418.1041141-.1607763.2769011-.1731915.5053857-.1218191.6483014-.0482298.154273.079408.2418062.1978976.2454428.2029073.0046674.0064099.0032361.0153713-.0031427.0200387-.0063165.0046674-.0153713.0032983-.0200387-.0031427-.0034539-.0046674-.34797-.4645615-.855316-.1472408-.0494433.0310226-.0826129.0822395-.0909792.1405509-.0238699.1641368-.0364408.4568448.1447787.5830512.0204471-.0026449.0874048-.0075923.1323985.0325473.030587.0272887.0441847.068953.0403885.1238105-.0054725.0786612-.0431579.1080969-.0738071.1188942-.0622008.0219679-.1458717-.01422-.193168-.053395-.013411.027911-.0505323.0698865-.153184.0753007-.0001245.0000311-.0002178.0000311-.0003112.0000311h-.0005601Z"/>
        <g>
          <path class="st3" d="M21.658369,14.6540696c.0678328-.0413531.1250551-.0959928.1871315-.1447515.0737799-.0454916.1655721-.0270087.2394063.0082769l-.0143133-.0000311c.037837-.0183584.0767942-.0301825.1183652-.0341342.0410109-.0036717.0852889.0025826.1213834.0256707.0322362.0227769.0604895.0523682.0920722.0758608.0302447.0249239.0621075.0478253.0953122.0691086-.054453-.0235548-.1050826-.0559465-.1525656-.0915121l-.023617-.0181406c-.0698243-.0556354-.1703911-.034601-.2438248.003485l-.0071567-.0036095c-.0718468-.0357523-.169018-.0537995-.2362286.00028-.0543013.0425355-.1125815.0821151-.1759648.1094971h0Z"/>
          <path class="st3" d="M21.7827395,14.6388539c.0860979-.0202876.1796948-.0187629.2635523.0127887.0113262.0028938.022808.0058187.0339475.0061921.0479808.0047296.0923251-.0311782.1414221-.0344143.0522748-.0072189.1033984.0025204.1516904.0164915-.0502834-.0029871-.1007224-.0045118-.1477698.0057565-.0504079.0091481-.0924456.0462072-.1474586.041042-.0272887-.0019603-.0537373-.0126331-.0756741-.020381-.0704115-.0230569-.1450005-.0270709-.2197099-.0274754h0Z"/>
          <path class="st3" d="M22.4553736,14.6834431c-.052586-.0063165-.1039896.0126642-.1413288.0483231-.0350366.0398907-.0745539.0823951-.1272643.0999445-.1029628.0384282-.2308805.0221235-.3096973-.0613296-.0237415-.0274754-.0438735-.0519637-.0760435-.0679262-.0297508-.0162114-.0651608-.0231192-.1002907-.0190119.0340137-.0108906.072158-.0073745.1064478.0054764.0338853.012073.0632899.0401396.0867202.0648457.0482298.0460516.1188008.0680506.1841755.0674283.0653436.0006223.1358835-.0213767.1841132-.0673972.045091-.0540485.1224103-.0937213.193168-.0703532h0Z"/>
        </g>
        <path class="st3" d="M22.3379419,15.032471h-.0002489c0-.092819-.1360391-.1683374-.2547776-.1683374-.1187697,0-.2549332.0755185-.2549332.1683374h-.0001245c0-.1146624.1144134-.2079792.2550577-.2079792.1406131,0,.2550265.0933168.2550265.2079792Z"/>
      </g>
    </g>
  </g>
</svg>