<?xml version="1.0" encoding="UTF-8"?>
<svg id="Capa_1" xmlns="http://www.w3.org/2000/svg" version="1.1" viewBox="0 0 80.4983176 80.4983176">
  <!-- Generator: Adobe Illustrator 29.5.1, SVG Export Plug-In . SVG Version: 2.1.0 Build 141)  -->
  <defs>
    <style>
      .st0 {
        fill: #853cd3;
      }

      .st1 {
        fill: #582796;
      }
    </style>
  </defs>
  <rect class="st0" width="80.4983176" height="80.4983176" rx="9.0100554" ry="9.0100554"/>
  <g>
    <path class="st1" d="M47.9216152,42.0631711l-3.6699016-2.7478374c.5560524-.8790881.7781875-1.8687493.7781875-2.9678842,0-3.0773581-2.2228905-5.4956748-4.8913563-5.4956748-2.6683838,0-4.8923734,2.4183167-4.8923734,5.4956748,0,1.099135.3338073,2.1982699.7781875,2.9678842l-3.6687887,2.7478374c-.333821.2200468-.5560661.6601405-.5560661,1.099135v1.4286556c0,2.3088429,1.8902923,4.1775921,4.2248548,4.1775921h8.3390268c2.3345626,0,4.2247449-1.8687493,4.2247449-4.1775921v-1.4286556c-.1104489-.4389945-.3338073-.8790881-.6665154-1.099135ZM40.1385448,33.4901383c1.1109917,0,2.1124135,1.2086088,2.1124135,2.7478374s-1.0014218,2.7478374-2.1124135,2.7478374c-1.1120087,0-2.1134306-1.2086088-2.1134306-2.7478374s1.0014218-2.7478374,2.1134306-2.7478374ZM45.6976256,44.4814879c0,.7696143-.6677245,1.4286556-1.445912,1.4286556h-8.3390268c-.7781875,0-1.444703-.6590413-1.444703-1.4286556v-.6590413l3.4465574-2.6383636c1.3342399.6590413,2.780042.6590413,4.1142819,0l3.4465574,2.6383636v.6590413h.2222451Z"/>
    <path class="st1" d="M64.8219139,36.3474495c-.6676146-3.7363994-2.1124274-7.3633249-4.336417-10.4417821.8897497-1.5381295.7781875-3.6269255-.6666253-4.9461073-1.33413-1.3180826-3.4476565-1.5381295-5.0040316-.6590413-3.1127501-2.1982699-6.7826517-3.7374985-10.5631263-4.287066-.4443803-1.7581763-2.1123175-3.0773581-4.0026098-3.0773581-1.8901823,0-3.5582295,1.3191818-4.0025959,3.0773581-3.7803785.6601405-7.449181,2.0887961-10.5630303,4.287066-1.5563751-.8790881-3.6688025-.7696143-5.0030424.6590413-1.33413,1.3191818-1.5563751,3.4079779-.6665154,4.9461073-2.2240862,3.0784572-3.7804613,6.7053827-4.336417,10.4417821-1.779706.4400936-3.1138493,2.0887961-3.1138493,3.9575453s1.3341432,3.5174517,3.1138493,3.9564462c.6665154,3.7374985,2.1123309,7.364424,4.336417,10.4417821-.8898596,1.5392286-.6676146,3.6269255.6665154,4.9461073,1.3342399,1.3191818,3.4466673,1.5392286,5.0030424.6601405,3.1138493,2.1982699,6.7826517,3.7363994,10.5630303,4.2859669.4443664,1.7592754,2.1124136,3.0773581,4.0025959,3.0773581,1.8902923,0,3.5582295-1.3180826,4.0026098-3.0773581,3.7804746-.6590413,7.4503762-2.0876969,10.5631263-4.2859669,1.5563751.8790881,3.6699016.6590413,5.0040316-.6601405,1.3342399-1.3191818,1.5563751-3.4068787.6666253-4.9461073,2.2239896-3.0773581,3.7803647-6.7042836,4.336417-10.4417821,1.7785102-.4389945,3.1127501-2.0876969,3.1127501-3.9564462s-1.3342399-3.5174517-3.1127501-3.9575453ZM55.0369751,53.1650937l-3.1127501-3.0784572c1.8901823-2.3077438,3.2244222-5.165055,3.4465574-8.2435122h4.4480891c.3328181,1.099135,1.2225678,1.8687493,2.2230004,2.4183167-.5560524,3.187931-1.7786201,6.2652891-3.7804746,8.9036526-1.0003227-.5495675-2.2228905-.4400936-3.2244222,0ZM36.3581662,62.0676472c-3.2244085-.5495675-6.3382578-1.7581763-9.0066414-3.7374985.4453695-.988562.3338209-2.1982699-.110573-3.1868319l3.1127501-3.0773581c2.3345626,1.8676501,5.2262767,3.1868319,8.3390268,3.4068787v4.3965398c-1.0003227.3295207-1.8901823,1.099135-2.3345626,2.1982699ZM22.0146752,53.0545207c-1.8901823-2.6372644-3.2244222-5.7157216-3.7804746-8.9025535,1.0004326-.4400936,1.7797193-1.3191818,2.2240995-2.4183167h4.44699c.3338073,3.187931,1.5574742,6.0452423,3.4465574,8.2435122l-3.1127501,3.0773581c-1.0004326-.3295207-2.2240995-.4389945-3.2244222,0ZM25.2390974,27.5543698l3.1127501,3.0784572c-1.8890832,2.3077438-3.2244222,5.165055-3.4465574,8.2435122h-4.44699c-.3338073-1.099135-1.2236669-1.8687493-2.2240995-2.4183167.5560524-3.187931,1.7797193-6.2652891,3.7804746-8.9036526,1.0003227.5495675,2.2239896.4400936,3.2244222,0ZM43.9190054,18.6518163c3.2244222.5495675,6.3371724,1.7581763,9.0056521,3.7374985-.4443803.988562-.3339172,2.1982699.1115622,3.1868319l-3.1138493,3.0773581c-2.3345626-1.8676501-5.2251775-3.1868319-8.3390268-3.4068787v-4.3965398c1.0014218-.3295207,1.8901823-1.099135,2.3356617-2.1982699ZM58.2613973,27.6649428c1.8902923,2.6372644,3.2244222,5.7157216,3.7804746,8.9025535-1.0004326.4400936-1.7786201,1.3191818-2.2230004,2.4183167h-4.4480891c-.3338073-3.187931-1.5563751-6.0452423-3.4465574-8.2435122l3.1127501-3.0773581c1.0015317.3295207,2.2240995.4389945,3.2244222,0ZM40.1385448,52.725c-6.8942279,0-12.5648848-5.4956748-12.5648848-12.4200052,0-6.8148566,5.5600977-12.4200052,12.5648848-12.4200052,6.8932108,0,12.5638677,5.4956748,12.5638677,12.4200052s-5.6706569,12.4200052-12.5638677,12.4200052ZM38.6927288,20.8500863v4.3965398c-3.2244084.3295207-6.1150372,1.5392286-8.3390268,3.4068787l-3.1127501-3.0773581c.4443939-.988562.5559424-2.1982699.110573-3.1868319,2.6683835-1.8687493,5.7822329-3.187931,9.0066414-3.7374985.4443803,1.099135,1.3342399,1.8687493,2.3345626,2.1982699ZM41.4727707,59.8693773v-4.3965398c3.2244222-.3295207,6.1150372-1.5392286,8.3390268-3.4068787l3.11286,3.0773581c-.4443803.988562-.5560381,2.1982699-.110573,3.1868319-2.669469,1.8687493-5.782329,3.187931-9.0067513,3.7374985-.3338073-1.099135-1.2225678-1.8687493-2.3345626-2.1982699ZM58.2613973,23.8179705c0,.3295207-.110573.7696143-.4443659.988562h-.1115766c-.5549532.4400936-1.3342399.4400936-1.8902923-.1094738-.5559424-.5495675-.5559424-1.4286556,0-1.9782231.2233442-.2200468.5560524-.4400936,1.0015317-.4400936.7781875.2200468,1.444703.7696143,1.444703,1.5392286ZM40.1385448,15.5744583c.7782835,0,1.4447989.6590413,1.4447989,1.4286556s-.6665154,1.4286556-1.4447989,1.4286556c-.7781876,0-1.445816-.6590413-1.445816-1.4286556s.6676285-1.4286556,1.445816-1.4286556ZM23.4604773,22.4987887c.3328316,0,.6666253.1094738,1.0004326.4400936h0c.2221352.2189477.4443803.5495675.4443803.988562,0,.7696143-.6666253,1.4286556-1.4448129,1.4286556-.3338073,0-.6676146-.1094738-.8898596-.3295207h0c-.3338073-.2200468-.4442703-.6590413-.4442703-.988562-.1116721-.9896611.5559424-1.5392286,1.33413-1.5392286ZM16.4556903,38.9858131c.7781875,0,1.444703.6590413,1.444703,1.4286556s-.5559424,1.3191818-1.33413,1.3191818-1.4448129-.5495675-1.4448129-1.3191818.6666253-1.4286556,1.3342399-1.4286556ZM22.0146752,56.901493c0-.3295207.1116721-.6590413.4443803-.988562h.1115622c.2222451-.2200468.5560524-.3306198.8898596-.3306198.7781875,0,1.4448129.6601405,1.4448129,1.4297548,0,.7685152-.6666253,1.4286556-1.4448129,1.4286556-.7781875-.2200468-1.4458021-.7696143-1.4458021-1.5392286ZM40.1385448,65.1450052c-.7781876,0-1.445816-.6590413-1.3341439-1.4286556,0-.7696143.6665154-1.3191818,1.3341439-1.3191818.6666114,0,1.334226.5495675,1.334226,1.3191818.110573.7696143-.5559424,1.4286556-1.334226,1.4286556ZM56.8166944,58.2206748c-.7781875,0-1.445912-.6590413-1.445912-1.4286556s.6677245-1.4286556,1.445912-1.4286556,1.444703.6590413,1.444703,1.4286556c0,.8790881-.6665154,1.4286556-1.444703,1.4286556ZM63.7099191,41.7336505c-.7781875,0-1.3342399-.6590413-1.3342399-1.3191818,0-.7696143.6676146-1.4286556,1.4458021-1.4286556s1.4448129.6590413,1.4448129,1.4286556c-.110573.7696143-.7781875,1.3191818-1.5563751,1.3191818Z"/>
    <path class="st1" d="M31.7995041,19.9633747"/>
  </g>
</svg>