<?xml version="1.0" encoding="UTF-8"?>
<svg id="Capa_1" xmlns="http://www.w3.org/2000/svg" version="1.1" viewBox="0 0 35.5195143 35.5197003">
  <!-- Generator: Adobe Illustrator 29.5.1, SVG Export Plug-In . SVG Version: 2.1.0 Build 141)  -->
  <defs>
    <style>
      .st0 {
        fill: #853cd3;
      }

      .st0, .st1 {
        fill-rule: evenodd;
      }

      .st1 {
        fill: #fff;
      }
    </style>
  </defs>
  <path class="st0" d="M17.7597183.000099C27.5680813.000099,35.5195917,7.951427,35.5195917,17.7599801c0,9.808297-7.9515105,17.7596212-17.7598734,17.7596212S-.0000775,27.5682771-.0000775,17.7599801C-.0000775,7.951427,7.9513554.000099,17.7597183.000099"/>
  <path class="st1" d="M7.2485122,11.9208179c0-.9277743.7590129-1.6866902,1.686566-1.6866902h17.6491561c.8326653,0,1.5290354.6113355,1.6632389,1.4073085l-10.8893446,6.2651541-10.1096164-5.9857724ZM7.2485122,23.5990803v-9.5331841l10.1097328,5.6159853,10.8881261-6.0486364.0243516-.0166833v9.9825185c0,.9275802-.7588926,1.6864961-1.6864884,1.6864961H8.9350782c-.9275531,0-1.686566-.7589159-1.686566-1.6864961Z"/>
</svg>