<?xml version="1.0" encoding="UTF-8"?>
<svg id="Capa_1" xmlns="http://www.w3.org/2000/svg" version="1.1" viewBox="0 0 80.4983176 80.4983176">
  <!-- Generator: Adobe Illustrator 29.5.1, SVG Export Plug-In . SVG Version: 2.1.0 Build 141)  -->
  <defs>
    <style>
      .st0 {
        fill: #853cd3;
      }

      .st1 {
        fill: #582796;
      }
    </style>
  </defs>
  <rect class="st0" width="80.4983176" height="80.4983176" rx="9.0100554" ry="9.0100554"/>
  <g>
    <path class="st1" d="M62.9626472,35.5767774c.2809864-.2809864.4411458-.6692372.4411458-1.0663344v-12.8152261c0-.3968133-.1601594-.7847802-.4411458-1.0657667-.2809773-.2809864-.6683764-.4417686-1.0663344-.4417686h-23.651221v-5.4444495c0-.5678155-.3215093-1.0904559-.8280322-1.3459563-.50601-.2557844-1.1173613-.2042539-1.5740478.1330251l-18.0501927,13.3181682c-.3846244.2840543-.6118641.7321142-.6118641,1.2107151,0,.478317.224465.9272378.6096479,1.2126474l7.5209358,5.584407c-.3092472,1.2531062-.4766686,2.5613877-.4766686,3.9084796,0,1.9450454.3436436,3.8111513.9716161,5.5422906h-7.1185637c-.4195702,0-.8296714.1701505-1.1267754.4669065-.2970491.2968201-.4666226.7072052-.4666226,1.1273523v12.8143653c0,.4209347.1695736.830752.4666226,1.1283688.297104.2959685.7072052.4661098,1.1267754.4661098h21.7751973v5.3591545c0,.5994279.3402918,1.1528291.8756432,1.4221761.5348477.2709953,1.1816576.2161223,1.6649107-.1396644l18.0496249-13.3178843c.4063007-.3003916.6468191-.7740016.6468191-1.2802955.0016484-.5065778-.2372308-.9804167-.6440352-1.2825116l-5.7396212-4.2617113c1.3534474-2.3757515,2.1315883-5.1202753,2.1315883-8.0446568,0-.936368-.0837107-1.8528272-.2360861-2.7465202h4.6843493c.397958,0,.7853572-.1610019,1.0663344-.4414206ZM41.1414873,53.3454159c-8.039153,0-14.5796171-6.5413158-14.5796171-14.5806977,0-8.0419369,6.5404641-14.5815494,14.5796171-14.5815494,8.0396658,0,14.5801299,6.5396125,14.5801299,14.5815494,0,8.0393819-6.5404641,14.5806977-14.5801299,14.5806977Z"/>
    <path class="st0" d="M26.5618702,38.7647181c0,8.0393819,6.5404641,14.5806977,14.5796171,14.5806977,8.0396658,0,14.5801299-6.5413158,14.5801299-14.5806977,0-8.0419369-6.5404641-14.5815494-14.5801299-14.5815494-8.039153,0-14.5796171,6.5396125-14.5796171,14.5815494ZM52.5065513,38.7647181c0,6.1907582-5.0169304,11.2109762-11.2093278,11.2109762-6.1901904,0-11.2093369-5.020218-11.2093369-11.2109762,0-6.1916098,5.0191465-11.21126,11.2093369-11.21126,6.1923974,0,11.2093278,5.0196502,11.2093278,11.21126Z"/>
    <path class="st0" d="M40.9009139,47.3167494h1.2841509c.3863185,0,.6989174-.3125989.6989174-.6988625v-1.1924363c1.0275148-.1532362,1.9220595-.4749745,2.681363-.9724128,1.1960169-.7914287,1.8112236-1.8793846,1.8389166-3.2707998.0166304-.8673646-.2233202-1.6047536-.7232587-2.2096945-.8114017-.9676966-2.0767152-1.5731961-3.7970209-1.8137145v-2.4164392c.3026078.1423934.5952337.3330847.8757073.5763871.1717897.1438129.372408.2169648.5996477.2172487.1829164.0010806.4367227-.1277502.4367227-.1277502l.0044232-.0013645,1.4376709-.9026035c.1961951-.1241146.297104-.2826256.3004008-.4752492.002207-.1551593-.0609538-.2901258-.1872846-.4065205-.8967609-1.0206008-2.0540132-1.6532804-3.467288-1.8990828v-1.3600867c0-.3865475-.3125989-.7005017-.6989174-.7005017h-1.2841509c-.3856958,0-.7005017.3139542-.7005017.7005017v1.3240511c-.6640173.0920534-1.2636742.2605006-1.7979449.5049385-1.727.7859158-2.5721755,1.9636539-2.5433378,3.5238003.0127109.7684429.2449416,1.447891.6916462,2.039544.7509608,1.0056645,1.9669599,1.6360822,3.6496365,1.8955022v3.0160961c-.7260518-.256865-1.4144103-.7354659-2.0617331-1.4371123-.1413769-.1848395-.3314455-.2771219-.5675316-.2771219-.1286019,0-.3835438.1114037-.3835438.1114037l-.0044232.0025001-1.3079884.7672981c-.2239521.1297466-.3314455.3021041-.3292293.5135102.0033517.138593.0537467.2619109.1529523.3732596.3402918.4750294.7981139.9308734,1.3706456,1.3656546.9261022.7121961,1.971383,1.1555581,3.1308515,1.3401137v1.1910809c0,.3862636.3148059.6988625.7005017.6988625ZM42.8839822,39.9742977c.6927909.2183842,1.044713.6212782,1.0402899,1.2151474-.0061265.5526045-.2577166.9806914-.7576551,1.283867-.088079.0560178-.1850776.1031251-.2826348.1474485v-2.6464629ZM39.3546141,35.7241618c-.0027198-.4322903.2450057-.7692304.7482318-1.0083935l.0975664-.0388196v2.1423852c-.5586852-.2161223-.841375-.5802516-.8457981-1.0951721Z"/>
    <path class="st1" d="M39.3546141,35.7241618c.0044232.5149205.2871129.8790498.8457981,1.0951721v-2.1423852l-.0975664.0388196c-.503226.2391631-.7509516.5761032-.7482318,1.0083935Z"/>
    <path class="st1" d="M42.8839822,42.6207606c.0975572-.0443234.1945558-.0914307.2826348-.1474485.4999384-.3031756.7515285-.7312625.7576551-1.283867.0044232-.5938692-.347499-.9967632-1.0402899-1.2151474v2.6464629Z"/>
    <path class="st1" d="M30.0878866,38.7647181c0,6.1907582,5.0191465,11.2109762,11.2093369,11.2109762,6.1923974,0,11.2093278-5.020218,11.2093278-11.2109762,0-6.1916098-5.0169304-11.21126-11.2093278-11.21126-6.1901904,0-11.2093369,5.0196502-11.2093369,11.21126ZM42.8839822,30.3633681v1.3600867c1.4132748.2458024,2.5705271.8784821,3.467288,1.8990828.1263308.1163947.1894916.2513612.1872846.4065205-.0032968.1926235-.1042057.3511346-.3004008.4752492l-1.4376709.9026035-.0044232.0013645s-.2538063.1288308-.4367227.1277502c-.2272397-.0002839-.427858-.0734358-.5996477-.2172487-.2804736-.2433024-.5730995-.4339937-.8757073-.5763871v2.4164392c1.7203058.2405184,2.9856192.8460179,3.7970209,1.8137145.4999384.6049409.7398891,1.3423299.7232587,2.2096945-.027693,1.3914153-.6428996,2.4793711-1.8389166,3.2707998-.7593035.4974384-1.6538482.8191766-2.681363.9724128v1.1924363c0,.3862636-.3125989.6988625-.6989174.6988625h-1.2841509c-.3856958,0-.7005017-.3125989-.7005017-.6988625v-1.1910809c-1.1594685-.1845556-2.2047493-.6279176-3.1308515-1.3401137-.5725317-.4347812-1.0303537-.8906252-1.3706456-1.3656546-.0992056-.1113488-.1496006-.2346667-.1529523-.3732596-.0022162-.211406.1052772-.3837635.3292293-.5135102l1.3079884-.7672981.0044232-.0025001s.2549419-.1114037.3835438-.1114037c.2360861,0,.4261546.0922824.5675316.2771219.6473228.7016464,1.3356814,1.1802473,2.0617331,1.4371123v-3.0160961c-1.6826767-.25942-2.8986758-.8898376-3.6496365-1.8955022-.4467046-.591653-.6789353-1.2711011-.6916462-2.039544-.0288377-1.5601463.8163377-2.7378845,2.5433378-3.5238003.5342707-.2444379,1.1339276-.4128851,1.7979449-.5049385v-1.3240511c0-.3865475.3148059-.7005017.7005017-.7005017h1.2841509c.3863185,0,.6989174.3139542.6989174.7005017Z"/>
  </g>
</svg>