<?xml version="1.0" encoding="UTF-8"?>
<svg id="Capa_1" xmlns="http://www.w3.org/2000/svg" version="1.1" viewBox="0 0 80.4983176 80.4983176">
  <!-- Generator: Adobe Illustrator 29.5.1, SVG Export Plug-In . SVG Version: 2.1.0 Build 141)  -->
  <defs>
    <style>
      .st0 {
        fill: #853cd3;
      }

      .st1 {
        fill: #582796;
      }
    </style>
  </defs>
  <rect class="st0" width="80.4983176" height="80.4983176" rx="9.0100554" ry="9.0100554"/>
  <path class="st1" d="M11.2934369,21.3629071h57.9061302c.3252207,0,.5839568.2581382.5839568.5839651v27.9042745c.0046641.0239781.0099261.0478964.0099261.0764787v7.1579672c0,.3212227-.2634002.5839651-.584563.5839651h-26.0654356l3.8738662,4.8648011h3.1457336c.3199669,0,.5833073.2634002.5833073.5839651s-.2633404.584563-.5833073.584563h-19.8271866c-.3206247,0-.5839651-.2639981-.5839651-.584563s.2633404-.5839651.5839651-.5839651h3.1404118l3.7734691-4.8648011H11.2887729c-.3205649,0-.5839053-.2627424-.5839053-.5839651v-7.1579672c0-.0285824.005262-.0525006.005262-.0764787v-27.9042745c0-.3258269.2633472-.5839651.5833073-.5839651h0ZM11.8779999,49.3437201h56.7370556v-26.8128829H11.8779999v26.8128829ZM47.7262556,52.9729023h-14.9541937v1.0628093h14.9541937v-1.0628093ZM55.5779129,53.1019414c-.1056511-.1050611-.2487502-.1675476-.4075677-.1675476-.1576813,0-.3013107.0624865-.4064316.1675476-.1010548.1004568-.1676074.2440862-.1676074.4023655,0,.1582195.0665526.3019086.1676074.4070295.1051209.1050611.2487502.1675476.4064316.1675476.1588175,0,.3019165-.0624865.4075677-.1675476.1004568-.1051209.1676153-.24881.1676153-.4070295,0-.1582793-.0671585-.3019086-.1676153-.4023655h0ZM60.0789764,53.1019414c-.1010548-.1050611-.2446841-.1675476-.4023654-.1675476-.1588174,0-.3019086.0624865-.4075677.1675476-.1051209.1004568-.1676074.2440862-.1676074.4023655,0,.1582195.0624865.3019086.1676074.4070295.105659.1050611.2487502.1675476.4075677.1675476.1576813,0,.3013107-.0624865.4023654-.1675476.1050611-.1051209.1675476-.24881.1675476-.4070295,0-.1582793-.0624865-.3019086-.1675476-.4023655h0ZM65.6515196,52.6470753c-.2201679-.2155038-.5220167-.3544691-.8566336-.3544691-.3352148,0-.6370637.1389653-.8572315.3544691-.2201597.220706-.3544691.5220167-.3544691.8572316,0,.3351551.1343093.6417278.3544691.8572316v.0046641c.2201679.215444.5220167.349805.8572315.349805.3346169,0,.6411379-.134361.8566336-.349805.2201679-.2201679.3544691-.5267406.3544691-.8618956,0-.3205649-.1243751-.6178095-.3299528-.8333133l-.0245162-.0239183ZM31.2596486,35.5685184l-1.024839-1.5655718,12.2475999-8.0151988,1.024839,1.5655718-12.2475999,8.0151988ZM38.0158482,45.8914138l-1.024839-1.565512,12.2476597-8.0151988,1.024189,1.565512-12.2470097,8.0151988ZM29.1486801,44.3206398l-1.0253771-1.5655718,23.2262747-15.1964864,1.024839,1.565512-23.2257366,15.1965462Z"/>
</svg>