<?xml version="1.0" encoding="UTF-8"?>
<svg id="Capa_1" xmlns="http://www.w3.org/2000/svg" version="1.1" viewBox="0 0 30 30">
  <!-- Generator: Adobe Illustrator 29.5.1, SVG Export Plug-In . SVG Version: 2.1.0 Build 141)  -->
  <defs>
    <style>
      .st0 {
        fill: #fff;
      }

      .st1 {
        fill: #853cd3;
      }
    </style>
  </defs>
  <path class="st1" d="M0,15.000023C.0000029,6.7155454,6.7155902-.0000029,15.0000193,0s14.9999836,6.7155558,14.9999807,15.0000334c-.0000029,8.2844213-6.7155621,14.9999695-14.9999911,14.9999666C6.7155798,29.9999971-.0000029,23.2844442,0,15.000023"/>
  <path class="st0" d="M13.9443773,15.0001121l5.3938602-5.3941834c.9982338-.9982875.9982344-2.616521.0000013-3.6147538-.9977904-.9977902-2.6164681-.9977907-3.6143145-.0000013l-7.1003038,7.1002922c-.5247658.524765-.765927,1.2204122-.7389778,1.9077035-.027503.6879.2136577,1.3842667.7388658,1.9094748l7.1002988,7.0998544c.9982331.9982329,2.6164681.9982334,3.6147019.0000013.9977911-.9977895.9977917-2.616521.0000013-3.6142558l-5.3941332-5.3941318Z"/>
</svg>