<?xml version="1.0" encoding="UTF-8"?>
<svg id="Capa_1" xmlns="http://www.w3.org/2000/svg" version="1.1" viewBox="0 0 35.5195143 35.5197003">
  <!-- Generator: Adobe Illustrator 29.5.1, SVG Export Plug-In . SVG Version: 2.1.0 Build 141)  -->
  <defs>
    <style>
      .st0 {
        fill: #853cd3;
      }

      .st0, .st1 {
        fill-rule: evenodd;
      }

      .st1 {
        fill: #fff;
      }
    </style>
  </defs>
  <path class="st0" d="M17.7597953,0c9.8083637,0,17.7597189,7.9514561,17.7597189,17.7598152s-7.9513552,17.7598851-17.7597189,17.7598851C7.9513162,35.5197003,0,27.5681781,0,17.7598152S7.9513162,0,17.7597953,0"/>
  <path class="st1" d="M27.4589326,17.5103641c0,5.2178809-4.2633205,9.4488897-9.5224506,9.4488897-1.6701225,0-3.2392491-.4264971-4.6033183-1.1757551l-5.2725821,1.6755448,1.718623-5.0694476c-.8672653-1.4241749-1.3659531-3.0943169-1.3659531-4.8792318,0-5.218965,4.2633185-9.4497072,9.5232305-9.4497072,5.2591301,0,9.5224506,4.2307421,9.5224506,9.4497072h0ZM17.936482,9.5656597c-4.4158039,0-8.0066581,3.5633607-8.0066581,7.9447044,0,1.7374987.5660444,3.3478195,1.5249254,4.658039l-.9998104,2.9499,3.0762425-.9774707c1.2638696.8292684,2.7782739,1.3134363,4.4053005,1.3134363,4.4139556,0,8.0058761-3.563645,8.0058761-7.9439046,0-4.3813437-3.5919205-7.9447044-8.0058761-7.9447044h0ZM22.7451225,19.6867471c-.0589859-.0967163-.2147237-.1546359-.4472354-.2704928-.2335819-.1155904-1.3818611-.6765164-1.5955007-.7532923-.2136751-.0770602-.3704595-.1158569-.525115.1155726-.15572.2316961-.6032238.7535766-.7398191.9082125-.1357992.1549202-.2715965.1737765-.5051765.0579374-.2338643-.1155726-.9863568-.3610244-1.8775968-1.149079-.6934888-.6148291-1.1620172-1.37244-1.2988986-1.6041539-.135513-.2314295-.0134536-.3567235.1021368-.4722961.1053358-.1042695.2338288-.2704928.350505-.405206.116941-.1357973.155736-.2327802.233596-.3874161.07786-.1546714.0390633-.2893669-.0199404-.4052238-.0579196-.1155726-.5250973-1.255499-.7198983-1.7197087-.1934486-.4628768-.3882319-.4455845-.5250973-.4455845-.1357973,0-.387736.0403607-.387736.0403607,0,0-.4679597.0579374-.6815975.2896335-.213659.2314473-.8166324.7923733-.8166324,1.9312156,0,1.1396598.8357535,2.2415892.9524119,2.3951587.116941.1549202,1.6143889,2.5700194,3.9877056,3.4973725,2.3733344.9270866,2.3733344.6177793,2.8014666.5786982.4272969-.0376948,1.3807751-.5598597,1.5755584-1.1008453.194801-.5410034.194801-1.0049465.1368637-1.1008631h0ZM22.7451225,19.6867471"/>
</svg>