<?xml version="1.0" encoding="UTF-8"?>
<svg id="Capa_1" xmlns="http://www.w3.org/2000/svg" version="1.1" viewBox="0 0 80.4983176 80.4983176">
  <!-- Generator: Adobe Illustrator 29.5.1, SVG Export Plug-In . SVG Version: 2.1.0 Build 141)  -->
  <defs>
    <style>
      .st0 {
        fill: #853cd3;
      }

      .st1 {
        fill: #582796;
      }
    </style>
  </defs>
  <rect class="st0" y="0" width="80.4983176" height="80.4983176" rx="9.0100554" ry="9.0100554"/>
  <g>
    <path class="st1" d="M40.9566453,21.1770204c-3.2562256,0-5.8793945,2.5930176-5.8793945,5.8120728,0,3.2191162,2.6231689,5.8121338,5.8793945,5.8121338s5.8793945-2.5930176,5.8793945-5.8121338c0-3.2190552-2.6231689-5.8120728-5.8793945-5.8120728ZM40.9566453,30.5658143c-1.9900513,0-3.6177368-1.609314-3.6177368-3.5767212,0-1.9673462,1.6276855-3.5766602,3.6177368-3.5766602s3.6186523,1.609314,3.6186523,3.5766602c0,1.9674072-1.6286011,3.5767212-3.6186523,3.5767212Z"/>
    <path class="st1" d="M61.3087571,59.6264833h-2.2608032v-17.3469238c0-4.0237427-3.2562256-7.2428589-7.3271484-7.2428589h-4.2507935c1.2661133-.9837036,2.3515625-2.3249512,2.9846191-3.8447876,1.3302612-3.6436157.2716064-7.8689575.2716064-7.8689575-1.5377197-4.0238037-5.427002-6.7062988-9.7695923-6.7062988-5.6985474.0894775-10.4017334,4.7393799-10.4017334,10.3724365,0,3.2191162,1.5377197,6.1697388,3.9801636,8.0476074h-4.5233154c-4.0700684,0-7.3262939,3.2191162-7.3262939,7.2428589v17.3469238h-2.0808105c-.6331177,0-1.175415.5365601-1.175415,1.1622314,0,.6260986.5422974,1.1626587,1.175415,1.1626587h40.7041016c.6330566,0,1.1762085-.5365601,1.1762085-1.1626587,0-.6256714-.5431519-1.1622314-1.1762085-1.1622314ZM40.9566453,39.2394593l3.2562256,8.2261353-3.2562256,4.2922974-3.2562256-4.2922974,3.2562256-8.2261353ZM33.3605759,26.9891542c0-4.1137695,3.3470459-7.4608154,7.4607544-7.4608154s7.4607544,3.3470459,7.4607544,7.4608154c0,4.1137085-3.3470459,7.4607544-7.4607544,7.4607544s-7.4607544-3.3470459-7.4607544-7.4607544ZM56.7862962,59.6264833h-4.5223999v-5.6331177c0-.6260986-.5430908-1.1627197-1.1761475-1.1627197-.6331177,0-1.1762085.5366211-1.1762085,1.1627197v5.6331177h-18.0905151v-5.6331177c0-.6260986-.5421753-1.1627197-1.175293-1.1627197-.6339722,0-.9954834.6260986-.9954834,1.25177v5.5440674h-4.7938843v-17.3469238c0-2.7720337,2.2615356-5.0074463,5.0654907-5.0074463h9.3162842l-3.8892822,9.925415c-.1807251.357605-.0907593.8046875.1807861,1.0727539l4.5232544,5.9016113c.4514771.6260986,1.3561401.6260986,1.8084106,0l4.5232544-5.9016113c.270752-.2680664.270752-.7151489.1807861-1.0727539l-3.9801636-9.925415h9.0456543c2.8937988,0,5.1554565,2.2354126,5.1554565,5.0074463v17.3469238Z"/>
  </g>
</svg>