<?xml version="1.0" encoding="UTF-8"?>
<svg id="Capa_1" xmlns="http://www.w3.org/2000/svg" version="1.1" viewBox="0 0 93.8796911 74.8534573">
  <!-- Generator: Adobe Illustrator 29.5.1, SVG Export Plug-In . SVG Version: 2.1.0 Build 141)  -->
  <defs>
    <style>
      .st0 {
        fill: #853cd3;
      }

      .st1 {
        fill: #582796;
      }
    </style>
  </defs>
  <path class="st1" d="M66.8976807,17.9513697c0,.5077141.5143188,1.016275,1.0277909,1.016275h15.0754516c.5143188,0,1.0277909-.5085609,1.0277909-1.016275s-.5134721-1.016275-1.0277909-1.016275h-15.0754516c-.5134721,0-1.0277909.5085609-1.0277909,1.016275Z"/>
  <path class="st1" d="M12.2489825,18.9676448h15.075278c.5143188,0,1.0277955-.5085609,1.0277955-1.016275s-.5134767-1.016275-1.0277955-1.016275h-15.075278c-.5144882,0-1.0279602.5085609-1.0279602,1.016275s.5134721,1.016275,1.0279602,1.016275Z"/>
  <path class="st1" d="M20.8140716,12.701321h14.9049152c.5136414,5.9272831,5.6527701,10.6696177,11.6488046,10.6696177,6.1677613,0,11.1358406-4.7423346,11.649482-10.6696177h15.4185624c.5134662,0,1.0277851-.5077141,1.0277851-1.016275,0-.5077141-.5143188-1.0154283-1.0277851-1.0154283h-15.4185624c-.5136414-5.9272831-5.6536119-10.6696177-11.649482-10.6696177-6.167079,0-11.1351632,4.7423346-11.6488046,10.6696177h-14.9049152c-.5136414,0-1.0279602.5077141-1.0279602,1.0154283,0,.5085609.5143188,1.016275,1.0279602,1.016275ZM46.1687866,12.701321c-.6855326-.1695203-1.199174-.3381938-1.5414323-.6772344-.5143188-.1695203-.8567464-.5077141-1.0286326-.6772344-.3424326-.3390406-.5134771-.6772344-.6846909-1.016275s-.1712138-.8467547-.1712138-1.3544689c0-.6780812.1712138-1.1857953.3424276-1.6935095.1710445-.5085609.5134771-.8467547.8565771-1.3553156.3424276-.3381938.8567464-.6772344,1.3702185-.8467547.5143188-.1695203,1.0277909-.3381938,1.7133235-.3381938v-1.8630298h1.1990047v1.8630298c.8567464,0,1.542279.1686735,2.2269649.5077141.6853633.3390406,1.3708959.5077141,1.8845373.8467547l-1.3702185,2.5402642s-.1712086-.1695203-.3424276-.1695203c-.1718912-.1695203-.343105-.1695203-.6855326-.3381938-.3422531-.1695203-.5143188-.1695203-.8565771-.3390406-.3424276-.1695203-.6855326-.1695203-1.0279602-.1695203v2.5402642l.5136414.1695203c.6855326.1695203,1.1998514.3390406,1.7133235.5077141.514324.1695203.8565771.5085609,1.3710652.6780812.3422635.3381938.6846859.6772344.8565771,1.0154283.1712138.5085609.3424276,1.016275.3424276,1.5248359,0,.6772344-.1712138,1.3544689-.3424276,1.862183-.1718912.5085609-.5143136.8467547-1.0286376,1.1857953-.3424276.3390406-.8558997.5077141-1.3702185.6772344-.5134669.1695203-1.0277909.1695203-1.7133235.3390406v2.2012236h-1.1990047v-2.2012236c-.8567464,0-1.7133235-.1695203-2.5692232-.5085609-.8567464-.3381938-1.5421097-.6772344-2.2276373-1.0154283l1.3708909-2.7097845s.1712138.1695203.3424276.3381938c.1712138.1695203.5143188.3390406.8565771.5085609.3424276.1695203.6855326.3381938,1.199174.5077141.3422583.1695203.8565771.1695203,1.3708959.3390406v-2.3707439l-1.3708959-.5085609Z"/>
  <polygon class="st0" points="5.9958703 62.1521362 0 74.8534573 93.8796911 74.8534573 87.883821 62.1521362 5.9958703 62.1521362"/>
  <path class="st1" d="M47.0253637,7.4512723c-.8565771,0-1.3702185.5085609-1.3702185,1.016275,0,.3390406.1712138.5085609.3424276.6772344.1712138.1695203.5134721.3390406,1.0277909.5085609v-2.2020704h0Z"/>
  <path class="st1" d="M49.4233731,14.3948305c0-.3381938-.1710445-.5077141-.3422583-.6772344-.3424276-.1695203-.6855326-.3390406-1.0279602-.5077141v2.2012236c.8567464,0,1.3702185-.3390406,1.3702185-1.016275Z"/>
  <polygon class="st0" points="18.8443529 29.3276998 12.848487 42.0290209 81.0312045 42.0290209 75.0353343 29.3276998 18.8443529 29.3276998"/>
  <polygon class="st0" points="6.8526168 57.424964 87.0270747 57.424964 82.0591648 46.7561931 11.8206962 46.7561931 6.8526168 57.424964"/>
</svg>