<?xml version="1.0" encoding="UTF-8"?>
<svg id="Capa_1" xmlns="http://www.w3.org/2000/svg" version="1.1" viewBox="0 0 35.5195143 35.5197003">
  <!-- Generator: Adobe Illustrator 29.5.1, SVG Export Plug-In . SVG Version: 2.1.0 Build 141)  -->
  <defs>
    <style>
      .st0 {
        fill: #853cd3;
      }
    </style>
  </defs>
  <circle class="st0" cx="9.0382806" cy="8.7740864" r="3.171446"/>
  <rect class="st0" x="6.3954089" y="14.0598298" width="5.2857434" height="15.8572301" rx="1.5627506" ry="1.5627506"/>
  <path class="st0" d="M29.6526797,19.8741475v8.9857637c0,.5814189-.4757298,1.0571487-1.0571487,1.0571487h-3.171446c-.5814189,0-1.0571487-.4757298-1.0571487-1.0571487v-7.4000407c0-1.4588703-1.1840014-2.6428717-2.6428717-2.6428717s-2.6428717,1.1840014-2.6428717,2.6428717v7.4000407c0,.5814189-.4757298,1.0571487-1.0571487,1.0571487h-3.171446c-.5814189,0-1.0571487-.4757298-1.0571487-1.0571487v-13.7429328c0-.5814511.4757298-1.0571487,1.0571487-1.0571487h3.171446c.5814189,0,1.0571487.4756975,1.0571487,1.0571487v.6765584c1.0571487-1.3689895,2.8067284-2.2622814,4.757169-2.2622814,2.9177407,0,5.8143177,2.1142973,5.8143177,6.342892Z"/>
</svg>