<?xml version="1.0" encoding="UTF-8"?>
<svg id="Capa_1" xmlns="http://www.w3.org/2000/svg" version="1.1" viewBox="0 0 80.4983176 80.4983176">
  <!-- Generator: Adobe Illustrator 29.5.1, SVG Export Plug-In . SVG Version: 2.1.0 Build 141)  -->
  <defs>
    <style>
      .st0 {
        fill: #853cd3;
      }

      .st1 {
        fill: #582796;
      }
    </style>
  </defs>
  <rect class="st0" width="80.4983176" height="80.4983176" rx="9.0100554" ry="9.0100554"/>
  <g id="_x37_38_x2C__Business_x2C__launch_x2C__rocket_x2C__money">
    <g>
      <path class="st1" d="M29.1559788,26.9101468c-1.2121022-.1840876-2.4242965-.2763619-3.6363987-.2763619h-1.4921513c-.279957,4.609104.5595452,9.4027564,2.4242965,13.8273119l11.5632924-11.4304856c-2.7974219-1.1063693-5.7816324-1.8436416-8.8590389-2.1204644h0Z"/>
      <path class="st1" d="M18.9920749,20.3655879c0,.1840876.0931961.3686361.2795882.5527237.1863.0922743.3730609.2768228.7462139.369097v-1.659554c-.7462139,0-1.0258022.2768228-1.0258022.7377332Z"/>
      <path class="st1" d="M20.4837653,23.683774v1.5672797c.65311,0,1.0258022-.2763619,1.0258022-.7372723,0-.1845485-.0931961-.369097-.2794961-.5531847-.1868531-.0922743-.3731531-.1845485-.7463061-.2768228Z"/>
      <path class="st1" d="M51.443089,38.6174552c-.5594899-.6454589-1.212139-1.2904569-1.7716289-1.9359158-2.9842104-3.0418242-6.6210885-5.4386505-10.4443033-7.0977435l-12.3090822,12.0754836c1.6784513,3.6872832,4.1032087,7.1904787,7.0869582,10.1400287.65311.6454589,1.3989552,1.2909178,2.0515675,1.9359158l15.3864888-15.1177688ZM34.6581427,37.234724c1.0258022-1.0140951,2.331082-1.4750054,3.7300188-1.4750054,1.3984851,0,2.7042443.5531847,3.7300372,1.4750054,2.0511444,2.0281901,2.0511444,5.3463762,0,7.3745663-1.025793,1.0140951-2.3315521,1.4750054-3.7300372,1.4750054-1.3989368,0-2.7042166-.5531847-3.7300188-1.4750054-2.0516044-2.0281901-2.0516044-5.3463762,0-7.3745663Z"/>
      <path class="st1" d="M22.9085228,31.5192507c-.1863922-1.6590931-.1863922-3.3181861-.0931961-4.8854658-.279957.1845485-.559453.3686361-.9326061.4609104s-.8395022.1845485-1.2121943.1845485v1.5668188h-.9326061v-1.5668188c-.6526491-.0922743-1.2121022-.1845485-1.8652122-.369097-.559453-.1840876-1.1189983-.4609104-1.6784513-.7372723l.9326061-1.9359158s.0931961.0922743.279957.1845485c.1863922.0922743.3726921.1840876.559453.2763619.2795882.0922743.5595452.1845485.8390413.2768228.279957.0918134.6526491.1840876.9326061.1840876v-1.7513673l-.466257-.0922743c-.4663491-.0922743-.8390413-.2763619-1.1189983-.4609104-.279957-.1840876-.559453-.3686361-.83941-.5531847-.1863922-.1840876-.3726921-.4609104-.4663491-.7372723-.0931961-.2763619-.1863922-.5531847-.1863922-.9218208,0-.4609104.0931961-.8295465.2800492-1.1981827.1863-.369097.3726921-.6454589.6526491-.9218208.2794961-.2768228.559453-.4609104.9326061-.6454589.3726921-.1845485.7458452-.2763619,1.2121022-.2763619v-1.3827312h.9326061v1.3827312c.5595452.0918134,1.1189983.1840876,1.6784513.3686361.4663491.1840876.9322374.3686361,1.3053904.644998l-.9322374,1.8436416s-.0935648-.0918134-.279957-.1840876c-.0931961-.0922743-.279957-.1845485-.466257-.2768228-.1863922-.0918134-.4663491-.1840876-.6527413-.2763619-.279957-.0922743-.466257-.1845485-.7462139-.1845485v1.8436416l.466257.0922743c.4663491.0922743.8395022.2768228,1.2126553.3686361.3726921.1845485.6526491.369097.9321452.5531847.279957.1845485.4663491.4609104.559453.8295465.093657.2768228.1868531.6454589.1868531,1.1063693s-.0931961.8295465-.1868531,1.1981827c.5595452,0,1.2126553-.0918134,1.7721083-.0918134,1.1189983,0,2.2379043.0918134,3.3569026.1840876.9326061-3.0418242.0931961-6.3604713-2.2379043-8.6650233-1.6784513-1.6590931-3.8232517-2.5809139-6.2480091-2.5809139-2.4242965,0-4.5690048.9218208-6.247917,2.5809139-1.6784513,1.6590931-2.6105965,3.7795574-2.6105965,6.1763837,0,2.3963653.9321452,4.5168297,2.6105965,6.1759228,2.3315613,2.2122777,5.6884639,3.0422852,8.7658705,2.2122777Z"/>
      <path class="st1" d="M52.1889157,39.539276l-15.199691,15.0254945c3.9163833,3.1345594,8.4858812,5.2545629,13.3348936,6.4527455l8.2990604-8.2041129c-1.2121022-4.8854658-3.3569026-9.3104822-6.434263-13.2741272ZM51.1631228,53.5511364c-.5594899.5527237-1.3053167.8295465-2.0511434.8295465-.7462785,0-1.4921052-.2768228-2.0515951-.8295465-.5594807-.5531847-.8394469-1.2909178-.8394469-2.0281901s.2799662-1.4750054.8394469-2.0281901c.5594899-.5527237,1.3053167-.8295465,2.0515951-.8295465.7458268,0,1.4916535.2768228,2.0511434.8295465.5594807.5531847.8394469,1.2909178.8394469,2.0281901s-.2799662,1.4750054-.8394469,2.0281901Z"/>
      <path class="st1" d="M38.8540221,63.322068l2.891042,2.8577366,5.1285315-5.0700144c-3.9163925-1.2904569-7.5532613-3.318647-10.8169955-5.8995609-.4663123,3.0418242.5594807,5.9918351,2.7974219,8.1118386Z"/>
      <path class="st1" d="M52.8415741,38.5251809c2.6110943,3.2263728,4.6626986,6.8213817,5.9684578,10.7854876l5.1284578-5.0700144-2.8905535-2.8577366c-2.1448004-2.2122777-5.2221148-3.2263728-8.2063621-2.8577366Z"/>
      <path class="st1" d="M59.3694849,57.6070557l1.6784513.0922743-3.1706026-2.7654624-5.5016201,5.4386505,2.7974588,3.2263728-.0931961-2.1204644c0-.1840876.0931961-.3686361.2794961-.4609104.1867609-.0918134.3731531-.0918134.559453,0l5.0358148,2.304552-2.2383652-4.7931916c-.0931961-.1845485-.0931961-.3686361.093657-.5531847.1863-.2763619.3726921-.3686361.559453-.3686361Z"/>
    </g>
  </g>
</svg>