<?xml version="1.0" encoding="UTF-8"?>
<svg id="Capa_1" xmlns="http://www.w3.org/2000/svg" version="1.1" viewBox="0 0 291.8970335 54.7926283">
  <!-- Generator: Adobe Illustrator 29.5.1, SVG Export Plug-In . SVG Version: 2.1.0 Build 141)  -->
  <defs>
    <style>
      .st0 {
        fill: #fff;
      }
    </style>
  </defs>
  <g>
    <path class="st0" d="M68.3240471,41.4299256v6.0940521c0,.8567522.2093135,1.4924449.6286451,1.9070782.4190968.4146333,1.0019325.6218325,1.7480375.6218325.7369431,0,1.3150805-.2071992,1.7344122-.6218325.4190968-.4146333.6286451-1.050326.6286451-1.9070782v-6.0940521h1.2575252v6.0801918c0,.801546-.1611549,1.4764703-.4836997,2.024538-.3225448.5483026-.757851.9558883-1.3056837,1.222992-.5483026.2673386-1.1633224.400773-1.8448244.400773-.6819719,0-1.2969917-.1334344-1.8448244-.400773-.5483026-.2671037-.9812596-.6746894-1.299106-1.222992-.3178464-.5480677-.4766521-1.222992-.4766521-2.024538v-6.0801918h1.2575252Z"/>
    <path class="st0" d="M85.1137584,44.1867083c.5710898.5574645.8567522,1.3611248.8567522,2.4114508v4.4634744h-1.2436649v-4.2837608c0-.7552669-.1891104-1.3336392-.5666263-1.7344122-.3779858-.400773-.8936346-.6011595-1.547651-.6011595-.6634132,0-1.190808.2074341-1.5824191.6220674-.3916111.4143984-.5872993,1.0179071-.5872993,1.8100563v4.1872088h-1.2575252v-7.5726367h1.2575252v1.0778116c.24878-.3869128.5872993-.6862005,1.0157928-.898333.4282586-.2116627.9004472-.3178464,1.4163309-.3178464.9211202,0,1.6674601.2788497,2.2387848.8360792Z"/>
    <path class="st0" d="M92.0507024,40.8355787v10.2260548h-1.2575252v-10.2260548h1.2575252Z"/>
    <path class="st0" d="M98.3310458,50.7024413c-.5757882-.3225448-1.0273039-.7808731-1.3540772-1.374985-.3272431-.5943469-.4907473-1.2828965-.4907473-2.0661188,0-.7738255.1679676-1.4576768.5043726-2.0520236.336405-.5941119.7947334-1.0500911,1.374985-1.3679374.5804866-.3178464,1.2300396-.476887,1.948659-.476887.7183845,0,1.3679374.1590406,1.948424.476887.5802517.3178464,1.03858.7717112,1.374985,1.3611248.3361701.5896485.5043726,1.2760838.5043726,2.0588363,0,.7832223-.1729009,1.471772-.5182329,2.0661188-.3455669.5941119-.813292,1.0524403-1.4027056,1.374985-.5896485.3225448-1.2436649.4834648-1.9622843.4834648-.7094575,0-1.3519629-.16092-1.9277511-.4834648ZM101.5301824,49.7627625c.3960746-.2118976.7162702-.5297439.9603518-.9535391s.3662398-.9396788.3662398-1.5478859c0-.6079722-.119809-1.1238559-.3591922-1.547651-.239853-.4235602-.5527661-.7392923-.9396788-.9464915-.3869128-.2074341-.8062444-.3110337-1.2575252-.3110337-.4609125,0-.8823584.1035996-1.2645728.3110337-.3822144.2071992-.6887846.5229313-.918771.9464915-.2304562.4237951-.3455669.9396788-.3455669,1.547651,0,.617369.1127615,1.1379511.3385193,1.5617462s.5273947.7392923.9051456.9464915.7921492.3110337,1.2436649.3110337c.4512808,0,.8750759-.1059488,1.2713854-.3178464Z"/>
    <path class="st0" d="M108.5639133,45.2093138c.313148-.5849501.7484542-1.03858,1.3059186-1.3611248.5574645-.3223098,1.1955064-.4836997,1.9138908-.4836997.930517,0,1.6975298.2259928,2.3007979.6772735.6032795.4512808,1.0019383,1.0778116,1.1955121,1.8793576h-1.3543121c-.1292058-.4606775-.3801001-.8245682-.7531526-1.0916719s-.8360792-.400773-1.3888453-.400773c-.7183845,0-1.2988711.2464308-1.7409899.7392923-.4423538.4928615-.6634132,1.190808-.6634132,2.0933695,0,.9121932.2210594,1.6169523.6634132,2.1145123.4421189.497325,1.0226055.746105,1.7409899.746105.5527661,0,1.0134436-.1289709,1.3820326-.3869128.3683541-.2577069.6218325-.6262959.7599652-1.1055321h1.3543121c-.2027357.7738255-.6082071,1.3935437-1.2161793,1.8586847-.6079722.4653759-1.3679374.6977115-2.2801307.6977115-.7183845,0-1.3564264-.16092-1.9138908-.4834648s-.9927707-.7785239-1.3059186-1.3681724c-.313148-.5894135-.4698394-1.2803124-.4698394-2.0729315,0-.7827525.1566914-1.4668386.4698394-2.0520236Z"/>
    <path class="st0" d="M123.9443413,51.0616335l-2.9710295-3.344082v3.344082h-1.2575252v-10.2260548h1.2575252v6.0113603l2.9158234-3.3579423h1.7550851l-3.5653764,3.7723406,3.5792366,3.8002961h-1.7137393Z"/>
    <path class="st0" d="M129.6376203,42.0104122c-.1658533-.1658533-.24878-.368589-.24878-.6082071,0-.2393832.0829267-.4421189.24878-.6079722s.3683541-.24878.6079722-.24878c.2302213,0,.4261443.0829267.5872993.24878s.2419673.368589.2419673.6079722c0,.2396181-.0808124.4423538-.2419673.6082071-.1611549.1656184-.357078.248545-.5872993.248545-.2396181,0-.4421189-.0829267-.6079722-.248545ZM130.8535647,43.4889968v7.5726367h-1.2575252v-7.5726367h1.2575252Z"/>
    <path class="st0" d="M141.6875917,44.1867083c.5710898.5574645.8567522,1.3611248.8567522,2.4114508v4.4634744h-1.2436649v-4.2837608c0-.7552669-.1891104-1.3336392-.5666263-1.7344122-.3779858-.400773-.8936346-.6011595-1.547651-.6011595-.6634132,0-1.190808.2074341-1.5824191.6220674-.3916111.4143984-.5872993,1.0179071-.5872993,1.8100563v4.1872088h-1.2575252v-7.5726367h1.2575252v1.0778116c.24878-.3869128.5872993-.6862005,1.0157928-.898333.4282586-.2116627.9004472-.3178464,1.4163309-.3178464.9211202,0,1.6674601.2788497,2.2387848.8360792Z"/>
    <path class="st0" d="M152.210585,43.7929829c.4928615.2856624.8588664.6448546,1.0987195,1.0778116v-1.3817977h1.2711505v7.73849c0,.6908989-.1472947,1.3059186-.4421189,1.8448244-.2950591.5389058-.7165051.9603518-1.2643379,1.2643379-.5483026.3039861-1.1863445.4559791-1.9138908.4559791-.9951199,0-1.8241515-.2349197-2.4875648-.7047591-.6631783-.4698394-1.0550244-1.1102305-1.1745985-1.9207035h1.2436649c.1383677.4604426.4237885.8313808.8567522,1.1123448.432957.280964.9535391.421446,1.5617462.421446.6908989,0,1.2549411-.216596,1.6925965-.6493181.4376554-.4331919.6566006-1.0411641.6566006-1.8241515v-1.5892318c-.24878.4423538-.617369.8107079-1.1055321,1.1055321-.4883981.2950591-1.0594879.4421189-1.7135043.4421189-.6725751,0-1.2831314-.1656184-1.8311991-.497325s-.9789104-.7968476-1.2920584-1.395658-.4698394-1.2805473-.4698394-2.045211c0-.7738255.1566914-1.4532133.4698394-2.0383983.313148-.5849501.7439907-1.03858,1.2920584-1.3611248.5480677-.3223098,1.158624-.4836997,1.8311991-.4836997.6540165,0,1.2274555.1430661,1.720317.4284935ZM152.9637376,45.7691275c-.2304562-.4237951-.541255-.7484542-.9328661-.9744469-.3916111-.2255229-.822219-.3385193-1.2920584-.3385193s-.898098.1106472-1.2850108.3317066-.6958322.5436042-.9258186.9673993c-.2304562.4237951-.3455669.9213551-.3455669,1.4924449,0,.5802517.1151107,1.0846243.3455669,1.5131178.2299864.4282586.5389058.7555018.9258186.9810247.3869128.2259928.8151714.3387542,1.2850108.3387542s.9004472-.1127615,1.2920584-.3387542c.3916111-.2255229.7024099-.5527661.9328661-.9810247.2302213-.4284935.3455669-.9281678.3455669-1.4994925,0-.5710898-.1153456-1.0684148-.3455669-1.49221Z"/>
    <path class="st0" d="M167.8466057,50.5295404c-.737178-.4190968-1.3197789-1.0040468-1.7480375-1.7548502-.4284935-.7508034-.6427403-1.5960445-.6427403-2.5357233s.2142468-1.7849199.6427403-2.5359582c.4282586-.7505685,1.0108595-1.3355185,1.7480375-1.7548502.7369431-.4190968,1.5521145-.6288801,2.445984-.6288801.9027964,0,1.7224313.2097833,2.4596093.6288801.7369431.4193317,1.3174297,1.0019325,1.7412249,1.7480375.4235602.746105.6356927,1.5939302.6356927,2.5427709s-.2121325,1.796431-.6356927,2.542536c-.4237951.7463399-1.0042817,1.3289408-1.7412249,1.7480375-.737178.4193317-1.5568129.6288801-2.4596093.6288801-.8938695,0-1.7090409-.2095484-2.445984-.6288801ZM172.1096935,49.5969091c.5389058-.313148.962466-.7602002,1.2713854-1.3404518.3084496-.5804866.4627918-1.2528268.4627918-2.0174904,0-.7740604-.1543422-1.4487498-.4627918-2.024538-.3089194-.5755533-.7303654-1.0202563-1.2645728-1.3336392-.5342074-.312913-1.1424145-.4698394-1.8239166-.4698394-.6819719,0-1.2899441.1569264-1.8241515.4698394-.5344423.3133829-.9558883.7580859-1.2643379,1.3336392-.3089194.5757882-.4630267,1.2504776-.4630267,2.024538,0,.7646636.1541073,1.4370038.4630267,2.0174904.3084496.5802517.7322447,1.0273039,1.2711505,1.3404518.5391407.313148,1.1447637.4698394,1.8173388.4698394.6723402,0,1.2781981-.1566914,1.8171039-.4698394Z"/>
    <path class="st0" d="M181.9208801,43.7997956c.4926266-.2901258,1.0660656-.4353062,1.720317-.4353062.6723402,0,1.2828965.1613898,1.8309642.4836997.5480677.3225448.9789104.7761747,1.2920584,1.3611248.313148.585185.4698394,1.2645728.4698394,2.0383983,0,.7646636-.1566914,1.4464006-.4698394,2.045211s-.7439907,1.0639513-1.2920584,1.395658-1.158624.497325-1.8309642.497325c-.6448546,0-1.2138301-.1449455-1.7066917-.4353062-.4928615-.2901258-.8682632-.6514323-1.1262051-1.0846243v4.9885199h-1.2575252v-11.1654987h1.2575252v1.395658c.24878-.432957.6194833-.7947334,1.1125797-1.0848592ZM185.6034814,45.7552672c-.2304562-.4237951-.541255-.7463399-.9326312-.9673993-.3918461-.2210594-.822219-.3317066-1.2920584-.3317066-.4609125,0-.8868219.1129964-1.278433.3385193-.3916111.2259928-.7047591.5527661-.9396788.9812596-.2349197.4282586-.3523796.9237043-.3523796,1.4853973,0,.5713247.1174599,1.0709989.3523796,1.4994925.2349197.4282586.5480677.7555018.9396788.9810247.3916111.2259928.8175206.3387542,1.278433.3387542.4698394,0,.9002123-.1127615,1.2920584-.3387542.3913762-.2255229.702175-.5527661.9326312-.9810247.2302213-.4284935.3455669-.9328661.3455669-1.5131178,0-.5710898-.1153456-1.0686497-.3455669-1.4924449Z"/>
    <path class="st0" d="M194.0262925,43.7997956c.4926266-.2901258,1.0660578-.4353062,1.720317-.4353062.6723402,0,1.2828965.1613898,1.8309642.4836997.5480677.3225448.9789104.7761747,1.2920584,1.3611248.313148.585185.4698394,1.2645728.4698394,2.0383983,0,.7646636-.1566914,1.4464006-.4698394,2.045211s-.7439907,1.0639513-1.2920584,1.395658-1.158624.497325-1.8309642.497325c-.6448546,0-1.2138301-.1449455-1.7066917-.4353062-.4928615-.2901258-.8682632-.6514323-1.1262051-1.0846243v4.9885199h-1.2575252v-11.1654987h1.2575252v1.395658c.24878-.432957.6194833-.7947334,1.1125797-1.0848592ZM197.7088938,45.7552672c-.2304562-.4237951-.541255-.7463399-.9326391-.9673993-.3918382-.2210594-.8222111-.3317066-1.2920505-.3317066-.4609125,0-.8868219.1129964-1.278433.3385193-.3916111.2259928-.7047591.5527661-.9396788.9812596-.2349197.4282586-.3523796.9237043-.3523796,1.4853973,0,.5713247.1174599,1.0709989.3523796,1.4994925.2349197.4282586.5480677.7555018.9396788.9810247.3916111.2259928.8175206.3387542,1.278433.3387542.4698394,0,.9002123-.1127615,1.2920505-.3387542.3913841-.2255229.7021828-.5527661.9326391-.9810247.2302213-.4284935.3455669-.9328661.3455669-1.5131178,0-.5710898-.1153456-1.0686497-.3455669-1.4924449Z"/>
    <path class="st0" d="M205.1363502,50.7024413c-.5757882-.3225448-1.0273039-.7808731-1.3540772-1.374985-.3272431-.5943469-.4907473-1.2828965-.4907473-2.0661188,0-.7738255.1679676-1.4576768.5043726-2.0520236.336405-.5941119.7947334-1.0500911,1.374985-1.3679374.5804866-.3178464,1.2300396-.476887,1.948659-.476887.7183845,0,1.3679374.1590406,1.948424.476887.5802517.3178464,1.03858.7717112,1.374985,1.3611248.3361701.5896485.5043726,1.2760838.5043726,2.0588363,0,.7832223-.1729009,1.471772-.5182329,2.0661188-.3455669.5941119-.813292,1.0524403-1.4027056,1.374985-.5896485.3225448-1.2436649.4834648-1.9622843.4834648-.7094575,0-1.3519629-.16092-1.9277511-.4834648ZM208.3354867,49.7627625c.3960746-.2118976.7162702-.5297439.9603518-.9535391s.3662398-.9396788.3662398-1.5478859c0-.6079722-.119809-1.1238559-.3591922-1.547651-.239853-.4235602-.5527661-.7392923-.9396788-.9464915-.3869128-.2074341-.8062444-.3110337-1.2575252-.3110337-.4609125,0-.8823584.1035996-1.2645728.3110337-.3822144.2071992-.6887846.5229313-.918771.9464915-.2304562.4237951-.3455669.9396788-.3455669,1.547651,0,.617369.1127615,1.1379511.3385193,1.5617462s.5273947.7392923.9051456.9464915.7921492.3110337,1.2436649.3110337c.4512808,0,.8750759-.1059488,1.2713854-.3178464Z"/>
    <path class="st0" d="M217.5734692,43.7100562c.4097-.2393832.9096091-.3594271,1.4992576-.3594271v1.299106h-.3317066c-1.4095182,0-2.1142773.7646636-2.1142773,2.2939909v4.1179075h-1.2575252v-7.5726367h1.2575252v1.2298047c.2212944-.432957.5365566-.7691271.9467264-1.0087452Z"/>
    <path class="st0" d="M224.8212119,44.5252276v4.4634744c0,.368589.0782283.6288801.2349197.7808731.1564565.151993.4282586.228107.8151714.228107h.9260535v1.0639513h-1.1332527c-.7002956,0-1.2253412-.1611549-1.5753715-.4836997-.3502653-.3223098-.5250455-.8520538-.5250455-1.5892318v-4.4634744h-.9812596v-1.0362308h.9812596v-1.9070782h1.2575252v1.9070782h1.9761446v1.0362308h-1.9761446Z"/>
    <path class="st0" d="M237.7970019,43.4889968v7.5726367h-1.2575252v-1.1193924c-.2396181.3869128-.573439.6887846-1.0019325.9051456-.4282586.216361-.9006822.324894-1.4163309.324894-.5896485,0-1.1193924-.1221582-1.5892318-.3662398s-.8407776-.6103214-1.1123448-1.0987195c-.272037-.4881631-.4078206-1.0822751-.4078206-1.7825707v-4.4357539h1.2436649v4.2699006c0,.7463399.1888754,1.3197789.5666263,1.7205519s.8936346.6011595,1.547651.6011595c.6725751,0,1.2023191-.2074341,1.5892318-.6220674.3869128-.4143984.5804866-1.0176722.5804866-1.8100563v-4.1594883h1.2575252Z"/>
    <path class="st0" d="M248.6171686,44.1867083c.5710898.5574645.8567522,1.3611248.8567522,2.4114508v4.4634744h-1.2436649v-4.2837608c0-.7552669-.1891104-1.3336392-.5666263-1.7344122-.3779858-.400773-.8936346-.6011595-1.547651-.6011595-.6634132,0-1.190808.2074341-1.5824191.6220674-.3916111.4143984-.5872993,1.0179071-.5872993,1.8100563v4.1872088h-1.2575252v-7.5726367h1.2575252v1.0778116c.24878-.3869128.5872993-.6862005,1.0157928-.898333.4282586-.2116627.9004472-.3178464,1.4163309-.3178464.9211202,0,1.6674601.2788497,2.2387848.8360792Z"/>
    <path class="st0" d="M254.3381682,42.0104122c-.1658533-.1658533-.24878-.368589-.24878-.6082071,0-.2393832.0829267-.4421189.24878-.6079722s.3683541-.24878.6079722-.24878c.2302213,0,.4261443.0829267.5872993.24878s.2419673.368589.2419673.6079722c0,.2396181-.0808124.4423538-.2419673.6082071-.1611549.1656184-.357078.248545-.5872993.248545-.2396181,0-.4421189-.0829267-.6079722-.248545ZM255.5541126,43.4889968v7.5726367h-1.2575252v-7.5726367h1.2575252Z"/>
    <path class="st0" d="M261.9934966,44.5252276v4.4634744c0,.368589.0782283.6288801.2349197.7808731.1564565.151993.4282586.228107.8151714.228107h.9260535v1.0639513h-1.1332527c-.7002956,0-1.2253412-.1611549-1.5753715-.4836997-.3502653-.3223098-.5250455-.8520538-.5250455-1.5892318v-4.4634744h-.9812596v-1.0362308h.9812596v-1.9070782h1.2575252v1.9070782h1.9761446v1.0362308h-1.9761446Z"/>
    <path class="st0" d="M268.2949828,42.0104122c-.1658533-.1658533-.24878-.368589-.24878-.6082071,0-.2393832.0829267-.4421189.24878-.6079722s.3683541-.24878.6079722-.24878c.2302213,0,.4261443.0829267.5872993.24878s.2419673.368589.2419673.6079722c0,.2396181-.0808124.4423538-.2419673.6082071-.1611549.1656184-.357078.248545-.5872993.248545-.2396181,0-.4421189-.0829267-.6079722-.248545ZM269.5109272,43.4889968v7.5726367h-1.2575252v-7.5726367h1.2575252Z"/>
    <path class="st0" d="M281.284398,47.7450371h-6.0527062c.0460443.7463399.3016369,1.3291757.7670128,1.7482724.465141.4190968,1.0294181.6286451,1.6928314.6286451.5433693,0,.9969992-.1266217,1.3611248-.3801001.3636557-.2532434.6194833-.5917627.7667779-1.0155579h1.3543121c-.2027357.7277812-.6079722,1.319544-1.2159444,1.7757581-.6082071.4559791-1.3637089.6838513-2.2662704.6838513-.7186194,0-1.3613597-.16092-1.9277511-.4834648-.5666263-.3225448-1.0113293-.7808731-1.3336392-1.374985-.3225448-.5943469-.4836997-1.2828965-.4836997-2.0661188,0-.7827525.1566914-1.4691878.4698296-2.0588363.3131578-.5894135.7531624-1.0432784,1.3197887-1.3611248s1.2182936-.476887,1.9554716-.476887c.7183845,0,1.3540772.1569264,1.9068432.4698394.5527661.3133829.9789104.7442256,1.2781981,1.2920584.2992877.5483026.4491665,1.1677859.4491665,1.8586847,0,.2396181-.0138603.4928615-.0413459.7599652ZM279.7090265,45.4858143c-.2121325-.3455669-.4999091-.6082071-.8637998-.7876858-.3638906-.1797136-.7667779-.2694529-1.2091317-.2694529-.6356927,0-1.1769477.2027357-1.6235301.6079722-.4470522.4054714-.7026448.9673993-.7670128,1.6857838h4.7813208c0-.4787664-.1059488-.8912854-.3178464-1.2366173Z"/>
    <path class="st0" d="M286.8670299,50.8889675c-.4606775-.1980373-.8245682-.4745378-1.0916719-.8292666-.2673386-.3544938-.4146333-.7620795-.4421189-1.222992h1.2988711c.0366475.3779858.2142468.6864354.5320931.9260535s.7345939.3591922,1.2504776.3591922c.4790013,0,.8567522-.1057139,1.1332527-.3178464.2762656-.2118976.4146333-.4790013.4146333-.801546,0-.3314717-.1475296-.5779025-.4423538-.7392923-.2948242-.16092-.7508034-.3199606-1.3679374-.4766521-.5621629-.1472947-1.0204912-.2971734-1.374985-.4491665-.3547288-.151993-.6587149-.3777509-.9121932-.6770386s-.3798652-.6932481-.3798652-1.1816461c0-.3869128.1151107-.7414066.345332-1.0639513.2302213-.3223098.5574645-.5781374.9812596-.7670128.4235602-.1886405.9072599-.2833132,1.4508641-.2833132.8381935,0,1.515467.2121325,2.0313507.6356927.5158837.4237951.7923842,1.0042817.8292666,1.7412249h-1.2575252c-.0277205-.3960746-.1865262-.713921-.476887-.9535391-.2901258-.2393832-.6793878-.3591922-1.1675509-.3591922-.4515157,0-.8107079.096552-1.0778116.2901258-.2673386.1933389-.400773.4470522-.400773.7599652,0,.24878.0805775.4538649.2417324.6150198s.3638906.2901258.6079722.3869128.5826009.2050849,1.0157928.324659c.5433693.1475296.9857231.29271,1.3265916.4353062.3406336.1430661.6333435.357078.8774251.6427403s.3707033.6587149.3801001,1.1191575c0,.4146333-.1153456.7876858-.3455669,1.1193924s-.5551153.5919977-.974212.7808731c-.4193317.1886405-.9004472.2830782-1.4440514.2830782-.5802517,0-1.1008337-.0989012-1.5615113-.2969385Z"/>
  </g>
  <g>
    <path class="st0" d="M74.7771059,33.0571078c-1.5972442,0-2.9540283-.2597706-4.0694325-.7797715-1.1158641-.5190814-2.0220726-1.2740253-2.7190853-2.2625328-.6974725-.9889673-1.1981631-2.1995442-1.5020716-3.6321904-.3043684-1.4321865-.4565525-3.0482813-.4565525-4.8492041,0-3.5494316.6845989-6.3319653,2.0537968-8.3476011s3.4859832-3.0234537,6.3512757-3.0234537h14.0335883v5.1719633h-11.9797915c-.8119555,0-1.4901176.0951726-2.0349462.2855178-.5452883.1898854-.9885075.443679-1.3310369.7604611-.3420696.3172419-.5958631.6974725-.7604611,1.1411515-.1655175.443679-.2602303.9190821-.2855178,1.4262094h16.3535924v5.3623084h-16.3535924c.1521842,2.3328777,1.6225316,3.4988568,4.4119619,3.4988568h11.9797915v5.2482852h-13.6915187ZM80.7737712,6.6481468c-.5364198.5275534-1.0525561.8445042-1.5486946.949503-.4219201.0892918-.7899389.0957434-1.1035112.0197092-.3145672-.0762936-.6697566-.2534896-1.065309-.5325827-.5564442-.4264456-.8981345-.9373463-1.024076-1.5324426-.1417437-.6697645.0278694-1.2761845.5094794-1.8184559l-.029433.0452352,2.2414188-3.0013004c.2591396-.365482.6994792-.6142269,1.3197648-.7454992.3220627-.0681588.6217912-.028671.9000163.1201675.2772302.148579.5542984.3230399.8299502.5241179.0956108.0831556.1882968.1547114.2782221.2132228.0904703.058866.1829659.1295222.2786719.2131276.5811837.42121.9350188.9295404,1.0610555,1.5250865.0733945.3468021-.0158346.7223812-.267073,1.1251973-.2515931.4033611-.4808665.7300957-.6861854.9812676l-1.6942969,1.9136464Z"/>
    <path class="st0" d="M113.6449717,33.0571078h-7.229611l-7.5646487-20.0156679h5.5560412l5.5896259,14.8946091,5.6567953-14.8946091h5.5896259l-7.5978287,20.0156679Z"/>
    <path class="st0" d="M152.1026825,26.1621298c0,1.1604928-.1788486,2.1704614-.5357366,3.0290965-.3568879.8594444-.9593892,1.5732203-1.8070993,2.1421369-.8485193.5689166-1.9806876.9990435-3.3973143,1.288762-1.4174359.2901232-3.1747651.4349825-5.2719876.4349825-2.0531173,0-3.7598671-.1505242-5.1206541-.4519771-1.3615963-.3010483-2.4492548-.7473606-3.2633801-1.3385321-.8149346-.5911715-1.3947764-1.3053521-1.7407392-2.1421369s-.5187419-1.7909139-.5187419-2.8619824v-6.3928261c0-1.0710685.1841089-2.0300531.5523266-2.8785724.3682177-.84771.970719-1.5671508,1.8075039-2.158727.8367849-.5911715,1.9462937-1.0374838,3.3301449-1.3389367,1.3834466-.3010483,3.1015262-.4519771,5.1546435-.4519771,2.0972225,0,3.8432219.1400037,5.2379982.4183924,1.3943717.2796027,2.5046898.6919256,3.3305495,1.2385873.8250505.5470663,1.4057015,1.2442522,1.7403345,2.0919622.334633.8481147.5021519,1.840684.5021519,2.9789218v6.3928261ZM141.2916484,17.5268173c-2.0976271,0-3.570498.2735332-4.418208.8197902-.8481147.5470663-1.2717674,1.3223467-1.2717674,2.3262458v4.5185575c0,.5134816.0833548.9820488.2508736,1.4057015.1675188.424462.4629023.7813499.8869596,1.0710685.4236527.2905278.9873091.5138863,1.6901598.6696707.7028507.1561891,1.590215.2342836,2.6608788.2342836,1.2050026,0,2.1809819-.0610999,2.9287471-.1841089.7473606-.1226044,1.327607-.318043,1.7407392-.5859113.4123229-.2678683.6911163-.6300165.8367849-1.0876585.1448593-.4572374.2172889-1.0208937.2172889-1.6901598v-4.3514433c0-.4236527-.0615045-.83112-.1841089-1.2215926-.1226044-.390068-.3795475-.724701-.7696155-1.0043037-.3908773-.2783888-.9488687-.5017472-1.6735698-.6692661-.7255103-.1675188-1.6901598-.2508736-2.8951624-.2508736Z"/>
    <path class="st0" d="M169.9422242,33.0571078c-1.4057015,0-2.599779-.2286187-3.5814231-.6862607-.9820488-.4568328-1.7795841-1.1155783-2.3930106-1.9746181-.6138311-.8586352-1.0544784-1.9078534-1.3219421-3.1464407-.2678683-1.2381827-.4018024-2.6491444-.4018024-4.2340992v-9.9406646h5.3217577v12.0496214c0,2.2538162,1.2940223,3.3803196,3.8828761,3.3803196h10.5431659v4.5521422h-12.0496214Z"/>
    <path class="st0" d="M213.788862,13.1086093v13.0535205c0,1.1604928-.1788486,2.1704614-.5357366,3.0290965-.3572926.8594444-.9597939,1.5732203-1.8075039,2.1421369-.8481147.5689166-1.980283.9990435-3.3973143,1.288762-1.4170313.2901232-3.1743605.4349825-5.2715829.4349825-2.0531173,0-3.765532-.1557844-5.1376488-.4685672-1.3721168-.3123781-2.4658448-.7639506-3.2799702-1.3555268-.8149346-.5911715-1.3947764-1.3106123-1.7407392-2.158727s-.5187419-1.8184291-.5187419-2.9121571v-13.0535205h5.1878235v12.0828015c0,.5134816.0837594.9820488.2512782,1.4057015.1671142.424462.4629023.7813499.8869596,1.0710685.4236527.2905278.9873091.5138863,1.6901598.6696707.7028507.1561891,1.5898104.2342836,2.6608788.2342836,1.2050026,0,2.1809819-.0610999,2.9287471-.1841089.7473606-.1226044,1.3219421-.318043,1.7237445-.5859113s.6745263-.6300165.8201949-1.0876585c.1448593-.4572374.2172889-1.0208937.2172889-1.6901598v-11.9156873h5.3221623Z"/>
    <path class="st0" d="M236.1805458,17.5935821v15.4635257h-5.1882282v-15.4635257h-7.0956769v-4.4849728h19.5471007v4.4849728h-7.2631957Z"/>
    <path class="st0" d="M258.672579,33.0571078h-5.2885776V13.1086093h5.2885776v19.9484985Z"/>
    <path class="st0" d="M275.5052801,24.2718048v8.785303h-6.0469073v-11.4096755c0-3.5236844.6845989-6.2809307,2.0537968-8.2717389,1.3691978-1.9898886,3.4859832-2.9852927,6.3512757-2.9852927h14.0335883v5.096101h-11.9797915c-.8119555,0-1.4901176.0951726-2.0349462.2855178-.5452883.1898854-.9885075.443679-1.3310369.7604611-.3420696.3172419-.5958631.6974725-.7604611,1.1406917-.1655175.4441387-.2602303.9319557-.2855178,1.4643704h16.3917534v5.134262h-16.3917534Z"/>
  </g>
  <path class="st0" d="M55.2126552,3.7107684c-.1825599-.4942678-.7096764-.7696459-1.2234348-.6277471-6.8602861,1.8904262-12.2226093,6.7057173-14.6980571,9.2647945l-1.2529844,1.186174-1.9059903-.3649782c-2.4357379-.5254771-5.0019799-.8478309-7.6401529-.8478309-3.3569976,0-6.5987923.5242829-9.6027328,1.3243488-.5360623-.6205621-1.7873062-1.993445-3.6147674-3.5927469l-2.2333433-1.8139615c-2.6875978-2.0297951-6.1185504-4.073515-10.0475961-5.1557998-.5061079-.1393892-1.0396201.1326292-1.2225443.6277471C.7622766,6.4511102.3056744,9.2708514.1561048,11.8898981c0,0-2.1337652,16.666223,9.3763342,28.0655721,7.933706,9.0962808,18.2110605,12.27084,18.6655982,12.4056145.0185798.0058897.0380097.0114353.0574396.0164547h.0025097c.0012953.0017204.0030359.0008501.0030359.0008501.0007691,0,.0016596,0,.0020644.0008703.0760599.0173047.1529698.0257851.2289488.0257851h.0068005c.0869487-.0008703.1752737-.0131556.2623034-.0354798.0021049-.0017204.003805-.0025907.0059099-.0025907-.0012953-.0007691.0012953-.0007691.0029145-.0007691.0008905,0,.0017811-.0008703.0034002-.0008703,0,.0025097.00761-.0017406.0118603-.0042503.6328474-.1871138,22.2959905-6.8607516,26.9520376-29.0549376.0093506-.0262101.0270804-.0468948.0354595-.0743193.1141505-.422013,2.7864068-10.4307493-.5600663-19.5210595ZM3.3674188,5.3151706c6.3981788,2.0690799,11.4056638,6.8847961,13.3531045,8.9670316-6.504193,2.0855143-11.619433,5.292153-13.8900169,6.8598003-.5638713-2.946845-1.4450974-9.6145121.5369124-15.826832ZM3.4941583,24.0584883c4.0978023.7261513,7.6811581,2.918611,10.7427406,5.7721925-.7483742.3702607-1.2937872,1.083904-1.3674993,1.9293062-.1137862,1.3043522.9428754,2.5412462,2.2645931,2.6509239.9282625.0770314,1.8022833-.4236726,2.2764129-1.1926304,4.9032518,5.92243,8.0457922,13.0673639,9.3800583,16.481457-5.2297143-2.0969294-19.2705557-9.1502594-23.2963055-25.6412492ZM28.4920357,48.4522987c-1.041725-2.623722-2.9299855-6.8835007-5.6977316-11.2645948-5.232224-8.2834844-11.3993896-13.3919643-17.9694823-14.9262165,3.9894403-2.6001026,13.3949597-7.9092163,23.6672138-7.9092163,10.2584103,0,19.6709731,5.309984,23.6647446,7.9096616-6.5688784,1.5346772-12.7372178,6.6431572-17.9673369,14.9257712-2.7673817,4.381094-4.655278,8.6408727-5.6974077,11.2645948ZM30.1953076,49.6959325c1.3633704-3.4891208,4.6132609-10.8691562,9.6998012-16.8616957.416609.5478012,1.0496993.9356702,1.7618449.9947694,1.340176.1112158,2.5687517-.980622,2.6414113-2.3473927.0474008-.8916089-.3670628-1.6693101-1.0436275-2.1132019,2.9481201-2.6264948,6.3619096-4.6234211,10.2360255-5.3099233-4.0223901,16.4596794-18.0628267,23.5324798-23.2954555,25.6374442ZM54.15316,21.1424275c-2.2701387-1.5680723-7.3850143-4.7751563-13.8904217-6.8606706,1.94315-2.081345,6.9448061-6.8941467,13.3531045-8.9665863,1.9837099,6.2127651,1.1016742,12.880837.5373172,15.827257Z"/>
</svg>