<?xml version="1.0" encoding="UTF-8"?>
<svg id="Capa_1" xmlns="http://www.w3.org/2000/svg" version="1.1" viewBox="0 0 44.1227662 27.8254629">
  <!-- Generator: Adobe Illustrator 29.5.1, SVG Export Plug-In . SVG Version: 2.1.0 Build 141)  -->
  <defs>
    <style>
      .st0 {
        fill: #009b2d;
      }

      .st1 {
        fill: #fff;
      }

      .st2 {
        fill: #002279;
      }

      .st3 {
        fill: #ffdf00;
      }
    </style>
  </defs>
  <path class="st0" d="M40.1227539-.0001103H4.0000122C1.7908448-.0001103.0000122,1.7909053.0000122,3.9998897v19.8256836C.0000122,26.0345576,1.7908448,27.8255732,4.0000122,27.8255732h36.1227417c2.2091675,0,4-1.7910156,4-4V3.9998897C44.1227539,1.7909053,42.3319214-.0001103,40.1227539-.0001103Z"/>
  <g>
    <polygon class="st3" points="8.3026347 13.885989 22.0289155 5.0164994 35.8201314 13.8648073 22.0579912 22.8089635 8.3026347 13.885989"/>
    <ellipse class="st2" cx="22.0728435" cy="13.8599902" rx="5.814823" ry="5.8862001"/>
    <path class="st1" d="M21.5345369,11.5442666c3.9767495.8470447,6.2875184,3.201755,6.2875184,3.201755-.061381.4585123-.2149309.9325439-.2149309.9325439-2.5565056-2.447967-5.7501855-3.1085275-5.7501855-3.1085275-2.8443127-.6935731-5.4123157-.194246-5.4123157-.194246.0805843-.3322454.310945-.9034235.310945-.9034235,0,0,1.9384452-.3633376,4.7789687.071898Z"/>
    <polygon class="st1" points="17.3196828 12.5600448 17.3756856 12.7345347 17.5568743 12.7345347 17.4102738 12.8422878 17.4662766 13.0167755 17.3196828 12.908924 17.1730913 13.0167755 17.229094 12.8422878 17.0825002 12.7345347 17.2636823 12.7345347 17.3196828 12.5600448"/>
    <polygon class="st1" points="19.8454364 13.8952258 19.8942099 14.0470971 20.0519564 14.0470971 19.924304 14.1409357 19.9730798 14.2927622 19.8454364 14.1989237 19.717831 14.2927622 19.7665688 14.1409357 19.6389634 14.0470971 19.7966986 14.0470971 19.8454364 13.8952258"/>
    <polygon class="st1" points="18.4098165 14.7811627 18.4395144 14.8736248 18.5355732 14.8736248 18.4578873 14.9308071 18.4875382 15.0232669 18.4098165 14.9661294 18.3321396 15.0232669 18.3617927 14.9308071 18.2840598 14.8736248 18.3801634 14.8736248 18.4098165 14.7811627"/>
    <polygon class="st1" points="17.8340591 15.0211295 17.896369 15.2152412 18.0979897 15.2152412 17.934874 15.3352235 17.9971838 15.529333 17.8340591 15.4093508 17.6709009 15.529333 17.7332465 15.3352235 17.570086 15.2152412 17.7717605 15.2152412 17.8340591 15.0211295"/>
    <polygon class="st1" points="17.1124242 15.6161304 17.158418 15.7593893 17.3072566 15.7593893 17.1868446 15.8479683 17.2328384 15.9912809 17.1124242 15.902702 16.992001 15.9912809 17.0380038 15.8479683 16.9175358 15.7593893 17.0664214 15.7593893 17.1124242 15.6161304"/>
    <polygon class="st1" points="19.0447883 15.6720996 19.0907911 15.8154123 19.2396767 15.8154123 19.1192065 15.9039912 19.1652115 16.0472568 19.0447883 15.958716 18.9243741 16.0472568 18.9703679 15.9039912 18.8499447 15.8154123 18.9987923 15.8154123 19.0447883 15.6720996"/>
    <polygon class="st1" points="18.868237 16.2627339 18.9142309 16.4060376 19.0630784 16.4060376 18.9426552 16.4945695 18.9886602 16.6378822 18.868237 16.5493055 18.7478139 16.6378822 18.7938166 16.4945695 18.6733934 16.4060376 18.8222321 16.4060376 18.868237 16.2627339"/>
    <polygon class="st1" points="19.7280548 16.7690104 19.7795164 16.9292322 19.9459446 16.9292322 19.8112913 17.0282878 19.8627081 17.1884985 19.7280548 17.0894809 19.5934015 17.1884985 19.6448631 17.0282878 19.510174 16.9292322 19.6766358 16.9292322 19.7280548 16.7690104"/>
    <polygon class="st1" points="22.0542445 16.294934 22.1056636 16.4551916 22.2720895 16.4551916 22.1374362 16.5542092 22.1889001 16.7144669 22.0542445 16.6154023 21.9195465 16.7144669 21.9710193 16.5542092 21.836366 16.4551916 22.002783 16.4551916 22.0542445 16.294934"/>
    <polygon class="st1" points="22.7374662 15.1370025 22.7850939 15.2853935 22.9392302 15.2853935 22.8145299 15.3771059 22.8621576 15.5254521 22.7374662 15.4337487 22.6128219 15.5254521 22.6604496 15.3771059 22.5357582 15.2853935 22.6898856 15.2853935 22.7374662 15.1370025"/>
    <polygon class="st1" points="22.0542445 14.6007909 22.1018364 14.7491371 22.2559637 14.7491371 22.1312635 14.8408405 22.1789001 14.9892405 22.0542445 14.8975393 21.9295532 14.9892405 21.9771361 14.8408405 21.8524918 14.7491371 22.0065721 14.7491371 22.0542445 14.6007909"/>
    <polygon class="st1" points="21.4669921 15.1405276 21.5092057 15.2719759 21.6457099 15.2719759 21.5352487 15.3531913 21.5774533 15.4846374 21.4669921 15.4033682 21.3565779 15.4846374 21.3987444 15.3531913 21.2882765 15.2719759 21.4247785 15.2719759 21.4669921 15.1405276"/>
    <polygon class="st1" points="21.7587248 15.6122942 21.7900543 15.7098347 21.8913481 15.7098347 21.8093919 15.7701414 21.8407236 15.8676885 21.7587248 15.8073818 21.6767238 15.8676885 21.7080556 15.7701414 21.6260568 15.7098347 21.7274021 15.7098347 21.7587248 15.6122942"/>
    <polygon class="st1" points="23.6411314 13.4458115 23.6724542 13.5433497 23.7737995 13.5433497 23.6918007 13.6036565 23.7231325 13.7012058 23.6411314 13.6408991 23.5591327 13.7012058 23.5904532 13.6036565 23.5084634 13.5433497 23.6098019 13.5433497 23.6411314 13.4458115"/>
    <polygon class="st1" points="23.8637773 11.7749541 23.9217563 11.9556347 24.1094155 11.9556347 23.9576248 12.0672799 24.0156128 12.2479606 23.8637773 12.1363176 23.7119328 12.2479606 23.7699208 12.0672799 23.6180853 11.9556347 23.8057893 11.9556347 23.8637773 11.7749541"/>
    <polygon class="st1" points="26.1284987 15.6839192 26.1864844 15.8646111 26.3741436 15.8646111 26.2223551 15.9762898 26.2803319 16.1569369 26.1284987 16.045294 25.9766632 16.1569369 26.0346959 15.9762898 25.8828604 15.8646111 26.0705107 15.8646111 26.1284987 15.6839192"/>
    <polygon class="st1" points="26.005656 16.7020183 26.054123 16.8530033 26.2109854 16.8530033 26.0840828 16.9463137 26.1325497 17.0972897 26.005656 17.0039794 25.8787982 17.0972897 25.9272651 16.9463137 25.8003737 16.8530033 25.9572339 16.8530033 26.005656 16.7020183"/>
    <polygon class="st1" points="26.3664735 16.2512701 26.4149405 16.4022462 26.5718028 16.4022462 26.4449092 16.4955565 26.4933761 16.6465348 26.3664735 16.5532245 26.2396269 16.6465348 26.2880938 16.4955565 26.1611912 16.4022462 26.3180513 16.4022462 26.3664735 16.2512701"/>
    <polygon class="st1" points="26.9346055 15.8082771 26.9716221 15.9236577 27.0914679 15.9236577 26.994534 15.9949336 27.0315394 16.1103232 26.9346055 16.0390003 26.8376716 16.1103232 26.8746882 15.9949336 26.7777454 15.9236577 26.8975531 15.9236577 26.9346055 15.8082771"/>
    <polygon class="st1" points="25.5450354 17.0594629 25.5820856 17.1748525 25.7018955 17.1748525 25.6049616 17.2461306 25.6419693 17.361518 25.5450354 17.2901951 25.4481015 17.361518 25.4851517 17.2461306 25.388173 17.1748525 25.5080188 17.1748525 25.5450354 17.0594629"/>
    <polygon class="st1" points="24.969278 17.4958154 25.0117535 17.628103 25.1491418 17.628103 25.0379755 17.7098578 25.080451 17.8421991 24.969278 17.7604443 24.8580693 17.8421991 24.9005425 17.7098578 24.7893785 17.628103 24.9268026 17.628103 24.969278 17.4958154"/>
    <polygon class="st1" points="24.9308626 16.9502774 24.9661111 17.0600023 25.0800548 17.0600023 24.987877 17.1278448 25.0230785 17.2375608 24.9308626 17.1697272 24.8386847 17.2375608 24.8738862 17.1278448 24.7817084 17.0600023 24.8956521 17.0600023 24.9308626 16.9502774"/>
    <polygon class="st1" points="24.3013518 17.1601367 24.3365533 17.2698616 24.4505418 17.2698616 24.3583192 17.3376504 24.3935744 17.4473753 24.3013518 17.3795328 24.2091292 17.4473753 24.2443754 17.3376504 24.1521976 17.2698616 24.2661413 17.2698616 24.3013518 17.1601367"/>
    <polygon class="st1" points="23.3417308 17.0046934 23.3769323 17.1144182 23.4909208 17.1144182 23.3986982 17.1822138 23.4339087 17.2919409 23.3417308 17.2241431 23.249506 17.2919409 23.2847186 17.1822138 23.1925386 17.1144182 23.3064823 17.1144182 23.3417308 17.0046934"/>
    <polygon class="st1" points="24.9662006 18.1402815 25.0014021 18.2499974 25.1153928 18.2499974 25.023168 18.3177929 25.0583695 18.4275178 24.9662006 18.3597223 24.873978 18.4275178 24.9091795 18.3177929 24.8170016 18.2499974 24.9309454 18.2499974 24.9662006 18.1402815"/>
    <polygon class="st1" points="23.8069352 17.6506746 23.849809 17.7841216 23.9884238 17.7841216 23.876284 17.8666441 23.9191108 18.000091 23.8069352 17.9176245 23.6947976 18.000091 23.7376244 17.8666441 23.6254846 17.7841216 23.7641083 17.7841216 23.8069352 17.6506746"/>
    <polygon class="st1" points="22.0719147 18.3889792 22.0918744 18.4511593 22.1565119 18.4511593 22.104211 18.4896531 22.1242155 18.5518689 22.0719147 18.5134199 22.0196115 18.5518689 22.0396183 18.4896531 21.9873152 18.4511593 22.0519527 18.4511593 22.0719147 18.3889792"/>
    <g>
      <path class="st0" d="M17.2714867,11.8151824c.0322069.1680575-.0644652.2710971-.2030352.2915671-.1434246.0212735-.2682524-.0605708-.3045193-.2071825-.0379813-.1536081.0497942-.2739015.2026838-.2962449.1562491-.0228358.2770685.0671666.3048706.2118602ZM16.8403826,11.8853907c.0247606.1037423.1099375.185853.2208844.169575.1118243-.0163228.1566363-.1163207.134519-.2270326-.0193913-.0968712-.0988296-.1908038-.2213186-.1729166-.1216586.0179768-.1594138.1240378-.1340848.2303741Z"/>
      <path class="st0" d="M17.5759052,11.5435996c.0362221-.0102216.0890937-.018872.1401144-.0232364.0789594-.0067883.1317929.0016898.1710455.0267547.0317279.0197113.0522584.0521845.0571935.0900583.0085542.0647181-.0324307.1110118-.0888296.1330441.0000895.0007587.0001791.0014727.0002708.0021844.0450292.009727.0755194.0429589.0955261.0929075.0272248.0671756.0464817.1136528.0603604.1317124-.0244092.0016987-.0487736.0034355-.073138.0052261-.0107565-.0131647-.0288675-.0545077-.0530507-.1143668-.025864-.0664549-.0594853-.0896935-.125224-.0862222-.02265.0019651-.0452552.0039749-.0679052.0060743.0111527.0707387.0222538.1414774.0333617.2122631-.0235341.0021374-.0470592.0044114-.070629.0066853-.0263496-.1610164-.0527463-.3220775-.0790959-.4830849ZM17.6847326,11.7597436c.0246822-.002274.0493533-.0044673.0740332-.0065578.0772785-.0066495.1211618-.0473277.1134559-.1034312-.0086817-.0633394-.0658282-.0871085-.143776-.0810879-.0355551.0030774-.0604522.0082476-.071822.0122583.0093845.0595927.0187713.1191788.0281088.1788185Z"/>
      <path class="st0" d="M18.2870656,11.4939532c.044407-.0076723.0975471-.0140488.1562379-.0157923.1063654-.0030707.1835634.0169987.2360814.0565601.0533595.0396084.0860073.0964348.0907275.176088.0046195.0803761-.0195188.1460723-.0679858.1920191-.0484669.0466048-.1311349.0726568-.2374981.0760453-.0503179.0016092-.0928829.0009781-.1289707-.0011594-.0162153-.1612357-.0323859-.3224781-.0485923-.4837608ZM18.401795,11.9260666c.0182453.002321.0445054.0021374.0722181.0012422.1515266-.0043666.2289059-.080685.220533-.2136865-.0066607-.1160543-.087424-.1896064-.2435366-.185195-.0381066.0010788-.0666138.0050425-.0856984.0093733.0121643.1294362.0243286.2588746.0364839.388266Z"/>
      <path class="st0" d="M19.4034035,11.750245c-.0722987-.0032162-.1446511-.0058013-.2170415-.0078111.0012735.0591004.0025537.1182388.003872.1773861.0794003.0021822.1587111.0051321.2380218.0088317v.0532543c-.1023927-.004812-.2049309-.0082923-.3075049-.0105215-.0046195-.164049-.009295-.3280981-.0139235-.4921471.1029702.0022292.2058598.0057565.3086956.010432.0000448.0177574.0000448.0355059.0000448.0532543-.0778582-.0035609-.155806-.0064212-.2337448-.0085587.0011012.0518309.0022471.1036506.003393.1554814.0726971.0020099.1454008.0046397.2181069.0078559.0000448.0175291.0000448.0350582.0000806.0525426Z"/>
      <path class="st0" d="M20.2371424,11.8294953c.0009669-.0686371.0018509-.1511506.0071397-.2119497-.0008863-.0000448-.0016697-.0001746-.0025537-.0002641-.023355.0552172-.0510229.1135969-.0834536.1781874-.0379365.0756895-.075168.1515983-.1116967.2276995-.0177597-.0017458-.0355171-.0033975-.0533125-.0050425-.0252932-.0804679-.0512467-.1608418-.0778135-.2412537-.0234445-.0712781-.0434938-.1364438-.0571935-.195947-.0005774-.000038-.0011012-.0000828-.0016786-.0001276-.0040958.0609737-.0111437.142818-.0189392.2159605-.0075358.0697136-.0149888.1394765-.0223434.2091901-.0223434-.0017435-.0447673-.0034333-.0671465-.0050403.0174888-.1626703.0355529-.3253295.0541876-.4878633.0312847.0024038.0625717.0048142.0938565.0074463.0290757.0817168.0575448.1635186.0853023.2453652.0200963.0624441.0360408.1179724.0471509.1701592.0007833.0000358.0015779.0001276.0024172.0002193.016569-.048167.0391719-.1000897.0677687-.1592818.0377574-.0756425.0762691-.1510208.1154881-.2262627.0311952.0033885.0623009.0067771.0934961.0103492-.0009221.1642214-.0022919.3284069-.0042323.4925007-.0227776-.0026768-.0456424-.0052619-.0684737-.0078559.0007945-.0720256.0014615-.1441072.00203-.2161888Z"/>
      <path class="st0" d="M21.3801925,11.9934996c-.0708103-.0143599-.1417907-.0280999-.2128181-.0412064-.0092502.0579768-.0185072.1160096-.0277574.1740311.0779477.0144159.1557612.0295793.2333934.0454544-.0031692.0173478-.0063004.0347024-.0094763.0520502-.1002822-.020517-.2008351-.039783-.3016388-.0578962.0245793-.1610969.0492145-.3222051.0738408-.4833132.1011215.0181603.2021153.037471.3027959.057988-.0031312.0173456-.0062623.0347024-.0093845.052048-.0762691-.0155193-.1527196-.0303716-.2292595-.0445592-.0081043.0508998-.0162086.1016967-.0243196.1525853.0714236.0132095.1427196.02703.2138745.0414347-.0030774.0171285-.0061191.0342548-.0092502.0513832Z"/>
      <path class="st0" d="M22.211991,11.9282958c.0356894.0042838.0816026.0121307.1388319.0280976.0702866.019539.1176076.0483036.1429837.0828694.0237959.0310497.0315914.0704276.0195636.1120906-.0122001.0424575-.0361326.0714974-.0702329.0880395-.0463564.0233751-.110506.023731-.1780128.0049978-.0206648-.0057565-.0396509-.0116383-.054586-.0194853-.016522.0630193-.0330081.1260387-.0494875.189114-.02265-.0062489-.0453806-.012359-.0680753-.0183796.0396599-.1557993.0793555-.3115537.1190154-.467344ZM22.2235331,12.1751225c.0143666.0076723.0330909.0143689.0562624.0207901.0836796.0233214.1445727.0025851.1628986-.06218.0175784-.0619495-.0250224-.1068645-.1031873-.1286327-.0308438-.0086057-.0550807-.0129342-.06795-.0134736-.0159893.061202-.0319898.122348-.0480238.1834962Z"/>
      <path class="st0" d="M22.8872807,12.1285625c.0374933.0053536.0892638.018599.1375136.0347852.0746823.0251567.1188363.0535654.1431538.0912177.0197896.0299262.0238429.0666742.0110654.1020883-.0218107.0606626-.07998.0852821-.1412245.0825225-.0002171.000667-.0004767.0013339-.0007028.0020457.0365735.0263631.0490444.0676612.0445054.1197562-.0056849.0701165-.0093398.1187401-.0049821.14028-.0229566-.008167-.0458685-.0162332-.0688251-.0242615-.0038339-.0159669-.0014526-.059595.0037914-.1220391.0066495-.0689571-.0132655-.1027195-.07451-.1256-.0214145-.007227-.0428268-.0143599-.0642861-.0214481-.0220725.0669003-.0441003.1338028-.0661348.2007053-.0223344-.0073545-.0446778-.0147158-.0670211-.0219405.0492167-.1527218.0984402-.3054436.1476569-.4581117ZM22.8877597,12.3624997c.0233975.0077664.0467525.0155663.0701053.0234132.0731022.0246733.1314326.0060296.1499846-.0465601.020846-.0594115-.0203559-.1029455-.0937199-.1284604-.0334871-.0112802-.0586013-.0164973-.070676-.0174821-.018543.0563788-.037142.1127106-.0556939.1690893Z"/>
      <path class="st0" d="M23.9165571,12.7625876c-.0688251.153297-.2099488.1896064-.3387897.1374666-.1333731-.0538855-.1918826-.1826458-.1386618-.3204705.0557409-.1445168.1981919-.1991073.340334-.1415311.1452307.058928.1963857.1924667.1371175.324535ZM23.5115856,12.6059379c-.0383326.09701-.0134356.2066073.0896711.2481696.1039348.0421554.199246-.0171733.2437873-.1186864.0389996-.0887602.025338-.2049891-.088561-.2512023-.113194-.0456715-.2055889.0222606-.2448974.1217191Z"/>
      <path class="st0" d="M24.50778,13.2869774c-.0332252-.0052149-.0968063-.0182856-.1634649-.0504029-.0745547-.0360363-.1276971-.0818018-.1566453-.1454881-.0251142-.0564235-.0241025-.1274733.0087713-.1961664.0630484-.131126.2158598-.1793937.3893694-.0955373.0595748.0289011.1004164.0629813.1175987.0828672-.013346.0124978-.026701.0250761-.0399575.0376075-.0218107-.0237758-.0515086-.0489795-.1033238-.0740892-.1251882-.0606089-.23979-.0316697-.293013.0785028-.0539795.111596-.0096106.2123056.1053985.2679257.0418085.0202529.0730932.0291675.0910677.0299709.0225157-.0430775.0450381-.0861214.0675091-.1292079-.0338855-.0166809-.0679052-.0332789-.101916-.0496935.0076612-.0150716.0153313-.0301433.0230014-.0452239.0554253.0267637.1106783.0538833.165759.081352-.0367078.0692302-.0734088.1384067-.1101546.2075831Z"/>
      <path class="st0" d="M25.0501756,13.0490674c.0362221.0119562.0852217.0343465.1299442.0588721.069304.0380462.1074644.0737803.1241139.1148592.0137511.0326925.0102238.069313-.0096464.1013766-.0339302.0551254-.0969339.0683349-.1574309.0545055-.0003962.00062-.0007923.0012511-.0011459.0018733.0309804.0322897.0352037.0748032.0200873.1247137-.0197337.0671666-.0333505.1137804-.0333975.1355396-.0211862-.0121307-.0424284-.0242167-.0636617-.0361728-.0005774-.0161862.010611-.0582521.028505-.1180552.0205305-.0658797.0075806-.1023636-.0487378-.1358238-.0198702-.0108796-.0397852-.021757-.0597002-.032556-.0355103.0611013-.0710722.1221667-.1065803.1832321-.0207565-.0112444-.0415108-.0224351-.0623099-.033543.0800225-.1396041.1599913-.2792171.2399601-.4188211ZM25.0032082,13.2768117c.0217189.0117279.0434043.0235945.0650784.0354969.0678157.0372964.129763.0297964.1588476-.0179678.0328649-.0539303.0006133-.1039236-.067283-.1420615-.03124-.0170367-.0548636-.0267637-.0668466-.0298881-.0299598.0514728-.0598389.1029455-.0897965.1544206Z"/>
      <path class="st0" d="M25.7757027,13.7673496c-.0612915-.0391138-.1229321-.0776993-.1847988-.1157455-.0327843.0489705-.0655686.09795-.0983417.1469205.067894.0417458.1354008.0840758.2025473.1271645-.0101791.0144964-.0203581.0289929-.030535.0434893-.0866653-.0555753-.1740446-.110036-.2620349-.1634738.0900225-.1363879.1799891-.2727869.2700116-.4091837.0883417.0536102.1760276.1082544.2631338.1639573-.0101791.0144964-.0203111.0290846-.0304902.0435341-.0659558-.0421912-.1322719-.0837624-.1989394-.1247495-.0287243.0429499-.0574553.0858551-.0861886.1287692.0621756.0382655.1240781.0769786.1856404.1163207-.010009.0143599-.0200067.0286818-.0300045.0429969Z"/>
      <path class="st0" d="M25.9838454,14.0874173c.016081.0319808.0457789.06998.0862781.0980328.0598725.041663.1157477.0392503.1464102.0002283.0282901-.0361281.0202238-.074219-.0264392-.1378225-.0578515-.0748412-.0804567-.1399152-.0389929-.1955374.0456514-.0614661.1413498-.0655663.2331763-.0013876.0482968.0338071.0758282.0677508.0890467.0923323-.0162601.0096285-.0325112.0192659-.0487288.0289034-.0097807-.0177597-.0320345-.0513832-.0745077-.0811349-.0641518-.0447315-.1130597-.0294853-.1332477-.0027216-.0277574.0366652-.0127328.074219.0350761.1395212.0586013.0802396.0726613.1399622.0277574.1965133-.0473658.0594585-.139237.0738631-.2455554,0-.0435766-.0302351-.0831022-.0739079-.0970704-.1044093.0156021-.0108886.0311594-.0217212.0467973-.032518Z"/>
      <path class="st0" d="M26.5139961,14.4677468c.0143666.0328201.0419428.0723904.08107.102536.0576814.0447852.1140333.0456715.1470795.0083013.0306267-.034436.0245457-.0729298-.0186795-.1389371-.0539347-.0778358-.0727955-.1441162-.0280282-.197234.0492615-.0587445.1456269-.0577575.2342774.011419.046663.0363452.0723524.0718533.0842011.09701-.0169203.0086952-.0337489.0173904-.0505775.0261325-.0088183-.0181961-.0291742-.0529902-.0702329-.0850068-.0619137-.048176-.1117884-.0355976-.1336439-.0099933-.0300045.0350135-.0170546.073232.0272337.1410768.0542794.08327.0650359.1436685.0166495.1976346-.0510654.0567369-.1439931.0660543-.2466566-.0135184-.0419898-.032556-.0792212-.0783663-.0915109-.1094966.0162601-.0099933.0325112-.0199776.0488183-.0299239Z"/>
      <path class="st0" d="M27.5167505,15.0763019c-.1235902.1179747-.2739709.1022719-.3799021.0095927-.1094876-.0960319-.1187446-.2350608-.016081-.3441097.1073838-.114275.2658688-.1157455.3825923-.0132923.1193131.1046823.1196645.2462067.0133908.3478094ZM27.1813986,14.791156c-.0731022.0764482-.0894898.1861283-.0047202.2603921.0852217.074886.1998705.0531626.2806338-.0252485.070629-.0685543.1002441-.180947.006739-.2630666-.0929724-.081446-.2076995-.050488-.2826526.0279231Z"/>
    </g>
  </g>
</svg>