<?xml version="1.0" encoding="UTF-8"?>
<svg id="Capa_1" xmlns="http://www.w3.org/2000/svg" version="1.1" viewBox="0 0 80.4983176 80.4983176">
  <!-- Generator: Adobe Illustrator 29.5.1, SVG Export Plug-In . SVG Version: 2.1.0 Build 141)  -->
  <defs>
    <style>
      .st0 {
        fill: #853cd3;
      }

      .st1 {
        fill: #582796;
      }
    </style>
  </defs>
  <rect class="st0" y="0" width="80.4983176" height="80.4983176" rx="9.0100554" ry="9.0100554"/>
  <g>
    <path class="st1" d="M65.8930075,43.0142973v-25.9059775c0-1.8594925-1.4510641-3.3732955-3.2348569-3.3732955H16.5115964c-1.7825623,0-3.2348569,1.513803-3.2348569,3.3732955v26.2663742c.7423878.0576281,1.4342827.1879489,2.067309.3949021v-26.6612763c0-.7210415.5231389-1.3078323,1.1675479-1.3078323h46.1465541c.6456495,0,1.1687785.5867908,1.1687785,1.3078323v26.5489773c.6246108-.2943431,1.3164958-.5102179,2.0660785-.6429998Z"/>
    <path class="st1" d="M33.4353347,50.9530374c0,3.5051544,2.8432198,6.3477589,6.3483742,6.3477589,3.5068812,0,6.3495452-2.8426045,6.3495452-6.3477589,0-3.5062659-2.842664-6.34893-6.3495452-6.34893-3.5051544,0-6.3483742,2.842664-6.3483742,6.34893Z"/>
    <path class="st1" d="M36.1091831,57.9001906c-3.2960577,0-5.9675541,2.6711888-5.9675541,5.9676137v2.895489h19.2852714v-2.895489c0-3.2964249-2.6702758-5.9676137-5.9687252-5.9676137h-7.3489921Z"/>
    <path class="st1" d="M55.1043435,51.6339045c0,2.5216937,2.0454817,4.5667328,4.5671754,4.5667328,2.522936,0,4.5680179-2.0450391,4.5680179-4.5667328,0-2.5224933-2.0450819-4.5675752-4.5680179-4.5675752-2.5216937,0-4.5671754,2.0450819-4.5671754,4.5675752Z"/>
    <path class="st1" d="M57.0279753,56.631856c-2.3712644,0-4.2932042,1.9217185-4.2932042,4.293247v2.0830855h13.8742951v-2.0830855c0-2.3715285-1.9210616-4.293247-4.2940466-4.293247h-5.2870443Z"/>
    <path class="st1" d="M15.6463118,51.6339045c0,2.5216937,2.0454817,4.5667328,4.5671754,4.5667328,2.522936,0,4.5680179-2.0450391,4.5680179-4.5667328,0-2.5224933-2.0450819-4.5675752-4.5680179-4.5675752-2.5216937,0-4.5671754,2.0450819-4.5671754,4.5675752Z"/>
    <path class="st1" d="M17.5699436,56.631856c-2.3712644,0-4.2932042,1.9217185-4.2932042,4.293247v2.0830855h13.8742951v-2.0830855c0-2.3715285-1.9210616-4.293247-4.2940466-4.293247h-5.2870443Z"/>
    <path class="st1" d="M47.3320326,20.5971791c-1.6035846-1.4855695-3.9969834-2.4864453-6.5225388-2.5366305l-.0600297,9.3207438,6.5825686-6.7841132Z"/>
    <path class="st1" d="M39.0557803,17.9975119c-6.5988041,0-11.4715129,5.3498305-11.4715129,11.9480193,0,6.5979506,5.3477465,11.9480888,11.9477811,11.9480888,4.6252164,0,8.928541-2.7327568,10.5141137-6.2579674l-10.7501638-5.6901213v-11.9419955l-.2402181-.0060238Z"/>
    <polygon class="st1" points="44.4834142 30.9266089 46.9362175 23.1109946 45.2155208 24.879465 43.4864087 30.3924048 44.4834142 30.9266089"/>
    <polygon class="st1" points="43.1891082 30.2329276 44.7062258 25.4032191 42.9848642 27.1707666 42.1902668 29.6987236 43.1891082 30.2329276"/>
    <path class="st1" d="M48.365697,33.0055983l2.4197765-7.7105002c-.2041844-.5011773-.4420109-.9823082-.7129336-1.4426387l-2.70625,8.6189448.9994071.5341941Z"/>
    <path class="st1" d="M49.6599336,33.6990315l1.828252-5.8225361c-.101472-.7138466-.2756465-1.4123211-.5116966-2.0841003l-2.3159625,7.3714499.9994071.5351865Z"/>
    <path class="st1" d="M50.5404522,34.1710523c.7507437-1.4519274,1.0486595-3.1570535,1.0486595-4.9032645,0-.1877008-.0060238-.374181-.0186371-.5603436l-1.6161979,5.1495263.5861755.3140818Z"/>
    <path class="st1" d="M44.7782436,31.0849051l.9994071.5335887,2.9981915-9.5519212c-.1308666-.1477273-.2648195-.2915744-.404181-.4306282l-.9260893.9516731-2.6673284,8.4972876Z"/>
    <polygon class="st1" points="42.4755692 27.6953742 41.0965825 29.1119427 41.8953679 29.540735 42.4755692 27.6953742"/>
    <path class="st1" d="M47.0713911,32.3128499l2.7723631-8.8339562c-.2486435-.3918852-.5213426-.7663739-.8143957-1.1192085l-2.9573646,9.4189011.9993972.5342636Z"/>
  </g>
</svg>