<?xml version="1.0" encoding="UTF-8"?>
<svg id="Capa_1" xmlns="http://www.w3.org/2000/svg" version="1.1" viewBox="0 0 80.4983176 80.4983176">
  <!-- Generator: Adobe Illustrator 29.5.1, SVG Export Plug-In . SVG Version: 2.1.0 Build 141)  -->
  <defs>
    <style>
      .st0 {
        fill: #853cd3;
      }

      .st1 {
        fill: #582796;
      }
    </style>
  </defs>
  <rect class="st0" y="0" width="80.4983176" height="80.4983176" rx="9.0100554" ry="9.0100554"/>
  <g>
    <path class="st1" d="M64.7804633,63.8870433h-1.618397v-28.9679509c0-.2524561-.2548982-.5049122-.5106384-.5049122h-5.3666714c-.2557402,0-.5114805.2524561-.5114805.5049122v28.9679509h-3.1512384v-24.7575419c0-.2524561-.2557292-.5049123-.5114805-.5049123h-5.3665872c-.2557402,0-.5107226.2524561-.5107226.5049123v24.7575419h-3.2375518v-19.4525949c0-.2524561-.2548982-.5049122-.5107226-.5049122h-5.3665872c-.2557402,0-.5114805.2524561-.5114805.5049122v19.4525949h-3.236794v-25.7682085c0-.2524561-.2557402-.5049122-.51147-.5049122h-5.3658398c-.2557402,0-.5114805.2524561-.5114805.5049122v25.7682085h-3.2367098v-20.5471329c0-.2524561-.2557402-.5049122-.5115647-.5049122h-5.3665872c-.2557402,0-.5106384.2524561-.5106384.5049122v20.5471329h-1.6183869c-.2557503,0-.5114906.2524561-.5114906.5049122s.2557402.5049123.5114906.5049123h48.1285848c.2557515,0,.5114805-.2524561.5114805-.5049123s-.2557289-.5049122-.597036-.5049122Z"/>
    <g>
      <path class="st1" d="M40.5671607,23.2930355c-.5854287,0-.9370564.3469979-.9370564.8104334,0,.2317177.117595.4634355.2340326.5787157.117595.1152802.3515119.2317177.7030238.3469979v-1.736147h0Z"/>
      <path class="st1" d="M42.2060834,28.3861963c0-.2317177-.1164376-.4634355-.2339169-.5787157-.2340326-.1164376-.4679495-.2317177-.8194613-.3469979v1.6197094c.7030238,0,1.0533782-.2317177,1.0533782-.6939958Z"/>
      <path class="st1" d="M40.8011933,36.3717778c5.6197918,0,10.3038004-4.5132876,10.3038004-10.185164,0-5.6707189-4.5664136-10.185164-10.3038004-10.185164-5.7375026,0-10.3027443,4.5144451-10.3027443,10.185164,0,5.6718764,4.5652417,10.185164,10.3027443,10.185164ZM39.8641369,26.9970472c-.4679495-.1152802-.8194613-.2317177-1.1699169-.4634355-.3515265-.1152802-.5854434-.3469979-.8194614-.5787157-.2350889-.2305603-.3515265-.4622781-.4690058-.6939958-.1164376-.2317177-.1164376-.5787157-.1164376-.9257136,0-.4634355.1164376-.9257136.2339169-1.2738689.1164376-.3469979.3515265-.6939958.7019821-.9257136.2339169-.2317177.5854287-.4622781.9369406-.5787157.3516276-.1152802.8195771-.2317177,1.2874108-.3469979v-1.3891491h.9370564v1.3891491c.5855445,0,1.1709732.2317177,1.6389227.3469979.4691069.2317177.9370564.4634355,1.4050058.6951532l-1.0534939,1.8514271s-.1163218-.1152802-.2339169-.2317177c-.117595-.1152802-.3515119-.1152802-.4679495-.2317177-.2350743-.1152802-.4691069-.2305603-.7030238-.2305603-.2340326-.1164376-.4679495-.1164376-.8194613-.2317177v1.8514271l.4679495.2317177c.4689912.1152802.9369406.2317177,1.2884525.4634355.3516276.1152802.7019821.3469979.9358989.5787157.23519.2305603.4691069.4622781.5855445.809276.117595.3481553.2350743.6951532.2350743,1.1574313,0,.4634355-.1174793.926871-.2350743,1.2738689-.2339021.3469979-.4679495.6939958-.7018663.9257136-.3516276.2317177-.7031395.4634355-1.0534939.5787157-.3515119.1152802-.8194613.2317177-1.2885682.2317177v1.6197094h-.9370564v-1.8514271c-.5854287,0-1.2874108-.2317177-1.8728395-.3469979-.5855445-.2317177-1.1709732-.4634355-1.6389227-.8104334l.9369553-1.9678647s.1164229.1164376.3504555.2317177c.1174793.1152802.3515119.2317177.5854287.3469979.2340326.1164376.5855445.2317177.8194613.3469979.3516276.1164376.5855445.2317177.9370564.2317177v-1.8514271l-.7030238-.2317177Z"/>
    </g>
  </g>
</svg>