<?xml version="1.0" encoding="UTF-8"?>
<svg id="Capa_1" xmlns="http://www.w3.org/2000/svg" version="1.1" viewBox="0 0 90 90">
  <!-- Generator: Adobe Illustrator 29.5.1, SVG Export Plug-In . SVG Version: 2.1.0 Build 141)  -->
  <defs>
    <style>
      .st0 {
        fill: #853cd3;
      }
    </style>
  </defs>
  <path class="st0" d="M15.7305548,42.8355103c-.8568726,0-1.5515137.6946411-1.5515137,1.5515747s.6946411,1.5516357,1.5515137,1.5516357c.8569336,0,1.5516357-.6947021,1.5516357-1.5516357s-.6947021-1.5515747-1.5516357-1.5515747Z"/>
  <path class="st0" d="M74.2694342,42.8355103c-.8569336,0-1.5516357.6946411-1.5516357,1.5515747s.6947021,1.5516357,1.5516357,1.5516357c.8568726,0,1.5515747-.6947021,1.5515747-1.5516357s-.6947021-1.5515747-1.5515747-1.5515747Z"/>
  <path class="st0" d="M22.5304815,19.0162964c0-.8569336-.6946411-1.5515747-1.5515747-1.5515747s-1.5516357.6946411-1.5516357,1.5515747.6947021,1.5515747,1.5516357,1.5515747,1.5515747-.6946411,1.5515747-1.5515747Z"/>
  <path class="st0" d="M69.7652838,17.0609741c-.8569336,0-1.5516357.6947021-1.5516357,1.5516357s.6947021,1.5515747,1.5516357,1.5515747c.8568726,0,1.5515747-.6946411,1.5515747-1.5515747s-.6947021-1.5516357-1.5515747-1.5516357Z"/>
  <path class="st0" d="M45.9459479,11.2824707c.8569336,0,1.5516357-.6947021,1.5516357-1.5516357,0-.8568726-.6947021-1.5515747-1.5516357-1.5515747s-1.5515747.6947021-1.5515747,1.5515747c0,.8569336.6946411,1.5516357,1.5515747,1.5516357Z"/>
  <path class="st0" d="M45.4034674,14.9224243c-13.0537109,0-23.6740112,10.6203003-23.6740112,23.6740112,0,10.2973633,5.7128296,18.5081787,15.3410645,22.1530762v12.737854c0,4.5948486,3.7380371,8.333374,8.3329468,8.333374,4.5948486,0,8.333374-3.7385254,8.333374-8.333374v-12.730835c9.21875-3.4577026,15.3405762-12.2342529,15.3405762-22.1600952,0-13.0537109-10.6203003-23.6740112-23.6739502-23.6740112ZM44.9555914,37.930481c-.8366699,0-1.5170898-.6803589-1.5170898-1.5170898,0-.8362427.6804199-1.5166626,1.5170898-1.5166626.8362427,0,1.5166626.6804199,1.5166626,1.5166626,0,.836731-.6804199,1.5170898-1.5166626,1.5170898ZM50.8701422,65.9255981v7.5617676c0,.1465454-.0106201.2905273-.0219727.4342041h-10.8889771c-.0113525-.1436768-.0219727-.2876587-.0219727-.4342041v-7.5617676h10.9329224ZM51.8589117,58.3779297c-.5895996.1923218-.9887695.7421875-.9887695,1.3626709v3.6056519h-4.5401611v-23.0908813c1.5810547-.5679932,2.7216797-2.0675659,2.7216797-3.84198,0-2.2583618-1.8377075-4.0960083-4.0960693-4.0960083-2.2587891,0-4.0964966,1.8376465-4.0964966,4.0960083,0,1.8566284,1.2493896,3.4107056,2.9458008,3.9116821v23.0211792h-3.8676758v-3.6056519c0-.6148682-.3921509-1.161438-.9747314-1.3579712-8.9960327-3.0375366-14.366333-10.434082-14.366333-19.7861938,0-11.4733887,9.3339233-20.807312,20.807312-20.807312s20.807251,9.3339233,20.807251,20.807312c0,9.0320435-5.7675781,16.9816895-14.3518066,19.7814941Z"/>
</svg>