<?xml version="1.0" encoding="UTF-8"?>
<svg id="Capa_1" xmlns="http://www.w3.org/2000/svg" version="1.1" viewBox="0 0 35.5195143 35.5197003">
  <!-- Generator: Adobe Illustrator 29.5.1, SVG Export Plug-In . SVG Version: 2.1.0 Build 141)  -->
  <defs>
    <style>
      .st0 {
        fill: #853cd3;
      }
    </style>
  </defs>
  <path class="st0" d="M24.8554766,4.8438833h-13.361345c-3.4427645,0-6.2352943,2.7925026-6.2352943,6.2352943v13.361345c0,3.4427645,2.7925298,6.2352943,6.2352943,6.2352943h13.361345c3.4427645,0,6.2352943-2.7925298,6.2352943-6.2352943v-13.361345c0-3.4427917-2.7925298-6.2352943-6.2352943-6.2352943ZM28.8638801,23.9951444c0,2.458469-1.9952855,4.4537817-4.4537817,4.4537817h-12.4705886c-2.4584962,0-4.4537817-1.9953127-4.4537817-4.4537817v-12.4705886c0-2.4584962,1.9952855-4.4537817,4.4537817-4.4537817h12.4705886c2.4584962,0,4.4537817,1.9952855,4.4537817,4.4537817v12.4705886Z"/>
  <path class="st0" d="M18.1748041,11.0791776c-3.6877443,0-6.6806725,2.9929282-6.6806725,6.6806725,0,3.6877171,2.9929282,6.6806725,6.6806725,6.6806725s6.6806725-2.9929554,6.6806725-6.6806725c0-3.6877443-2.9929282-6.6806725-6.6806725-6.6806725ZM18.1748041,22.2136318c-2.454038,0-4.4537817-1.9997436-4.4537817-4.4537817s1.9997436-4.4537817,4.4537817-4.4537817,4.4537817,1.9997436,4.4537817,4.4537817-1.9997436,4.4537817-4.4537817,4.4537817Z"/>
  <circle class="st0" cx="25.3008548" cy="10.6337995" r="1.3361345"/>
</svg>