<?xml version="1.0" encoding="UTF-8"?>
<svg id="Capa_1" xmlns="http://www.w3.org/2000/svg" version="1.1" viewBox="0 0 35.5195143 35.5197003">
  <!-- Generator: Adobe Illustrator 29.5.1, SVG Export Plug-In . SVG Version: 2.1.0 Build 141)  -->
  <defs>
    <style>
      .st0 {
        fill: #853cd3;
      }

      .st0, .st1 {
        fill-rule: evenodd;
      }

      .st1 {
        fill: #fff;
      }
    </style>
  </defs>
  <path class="st0" d="M17.7597953,0C27.568159,0,35.5195143,7.9514561,35.5195143,17.7598152s-7.9513552,17.7598851-17.7597189,17.7598851C7.9513162,35.5197003,0,27.5681781,0,17.7598152S7.9513162,0,17.7597953,0"/>
  <path class="st1" d="M17.7596789,17.8177623c-2.043081,0-3.6993733-1.6562924-3.6993733-3.6995791,0-2.0431004,1.6562923-3.6993928,3.6993733-3.6993928,2.043275,0,3.6995674,1.6562924,3.6995674,3.6993928,0,2.0432867-1.6562923,3.6995791-3.6995674,3.6995791M12.6204378,8.9674394c.0223841-.0221861.0445663-.0447526.0671444-.0665429l.0095117-.0091857c1.3675931-1.3200697,3.1976801-2.039794,5.062585-2.0450912,1.8650602.0054951,3.695186.7252195,5.0627412,2.0450912l.009472.0091857.0671405.0665429c2.2696924,2.2717104,2.8405752,5.8841749,1.1631678,8.7894652l-6.3025215,10.9161799-6.302405-10.9161799c-1.6773719-2.9052903-1.1065246-6.5177548,1.1631639-8.7894652Z"/>
</svg>