<?xml version="1.0" encoding="UTF-8"?>
<svg id="Capa_1" xmlns="http://www.w3.org/2000/svg" version="1.1" viewBox="0 0 80.4983176 80.4983176">
  <!-- Generator: Adobe Illustrator 29.5.1, SVG Export Plug-In . SVG Version: 2.1.0 Build 141)  -->
  <defs>
    <style>
      .st0 {
        fill: #853cd3;
      }

      .st1 {
        fill: #582796;
      }
    </style>
  </defs>
  <rect class="st0" y="0" width="80.4983176" height="80.4983176" rx="9.0100554" ry="9.0100554"/>
  <g>
    <path class="st1" d="M67.6010336,33.6483247h-3.8438c-.708,0-1.3149.6006-1.3149,1.2998,0,.7002.6069,1.3008,1.3149,1.3008h3.8438c.7085,0,1.3154-.6006,1.3154-1.3008,0-.6992-.6069-1.2998-1.3154-1.2998Z"/>
    <path class="st1" d="M64.4652336,32.1483247l3.8443-2.5c.6069-.3994.708-1.2002.3032-1.7002-.4043-.5996-1.2139-.6992-1.7197-.2998l-3.8438,2.5c-.6069.4004-.708,1.2002-.3037,1.7002.4048.5,1.1128.7002,1.7197.2998Z"/>
    <path class="st1" d="M68.3095336,40.0487247l-3.8443-2.5c-.6069-.4004-1.416-.2002-1.7197.2998-.4043.5996-.2022,1.4004.3037,1.7002l3.8438,2.5c.6069.3994,1.3154.2002,1.7197-.2998.4048-.5.2026-1.3008-.3032-1.7002Z"/>
    <path class="st1" d="M54.9564636,62.3485247h-22.76073v-5h2.5288c.708,0,1.3149-.5996,1.3149-1.2998v-5c0-.7002-.6069-1.2998-1.3149-1.2998h-2.5288v-1.3008c0-.6992-.6069-1.2998-1.3154-1.2998v-1.2998h4.8559l21.34426,6.4004c.80957.1992,1.61864-.4004,1.61864-1.2002V18.5487247c0-.7998-.80907-1.4004-1.61864-1.2002l-21.34426,6.2002h-12.5439c-3.3379,0-6.1704,2.7002-6.1704,6h-1.4165c-2.023,0-3.7427,1.5996-3.7427,3.7002v2.8994c0,2,1.6186,3.7002,3.7427,3.7002h1.3154v.0996c0,3.4004,2.7309,6.1006,6.1704,6.1006h.1011v1.2998c-.8091,0-1.416.7002-1.2139,1.5l2.3267,13.5h-3.5406c-.708,0-1.3149.5996-1.3149,1.2998s.6069,1.2998,1.3149,1.2998h34.19193c.70801,0,1.31494-.5996,1.31494-1.2998-.10107-.7002-.60693-1.2998-1.31494-1.2998ZM33.4096336,52.3485247v2.5h-1.315v-2.5h1.315ZM56.1703336,49.4481247l-19.0181-5.5v-18.1992l19.0181-5.5v29.1992ZM15.6054336,37.3485247c-.607,0-1.2139-.5-1.2139-1.2002v-2.8994c0-.6006.5059-1.2002,1.2139-1.2002h1.3154v5.2998h-1.3154ZM19.5507336,39.9481247v-10.2998c0-2,1.6186-3.5996,3.6416-3.5996h11.5322v17.5h-11.5322c-2.023.0996-3.6416-1.6006-3.6416-3.6006ZM25.8226336,46.1483247h2.5289v1.2998h-2.5289v-1.2998ZM26.9354336,62.3485247l-2.1245-12.5h4.8555v12.5h-2.731Z"/>
    <path class="st1" d="M32.1957336,34.8485247c.708,0,1.3149-.5996,1.3149-1.2998v-3.7002c0-.7002-.6069-1.2998-1.3149-1.2998h-10.1162c-.708,0-1.315.5996-1.315,1.2998v3.7998c0,.7002.607,1.2998,1.315,1.2998h10.1162v-.0996Z"/>
  </g>
</svg>