<?xml version="1.0" encoding="UTF-8"?>
<svg id="Capa_1" xmlns="http://www.w3.org/2000/svg" version="1.1" viewBox="0 0 90 90">
  <!-- Generator: Adobe Illustrator 29.5.1, SVG Export Plug-In . SVG Version: 2.1.0 Build 141)  -->
  <defs>
    <style>
      .st0 {
        fill: #853cd3;
      }
    </style>
  </defs>
  <path class="st0" d="M56.9056778,47.9072723c-3.4419937-.6500244-8.0002747-1.0079498-12.8350906-1.0079498-4.8348465,0-9.3931007.3579292-12.8351212,1.0079498-4.3905506.8291473-6.3485203,1.9856377-6.3485203,3.7497864v6.5610085c0,.0241051.0006008.0480995.0018463.0718842-.0012455.0280914-.0018463.0561485-.0018463.084095v6.5610809c0,.0241013.0006008.0481033.0018463.071846-.0012455.0280914-.0018463.0561829-.0018463.0841293v6.5609741c0,.0241394.0006008.0481033.0018463.0718842-.0012455.0281601-.0018463.056221-.0018463.0841675v6.5610123c0,.0241013.0006008.0481033.0018463.0718842-.0012455.0281296-.0018463.056221-.0018463.0841675v6.5609741c0,.0241394.0006008.0481033.0018463.0718842-.0012455.0280914-.0018463.0561829-.0018463.0841293,0,1.7641449,1.9579697,2.920639,6.3485203,3.7497864,3.4420242.6500244,8.0002747,1.0080185,12.8351212,1.0080185,4.834816,0,9.3931007-.3580017,12.8351593-1.0080185,4.3905487-.8291473,6.348526-1.9856415,6.348526-3.7497864,0-.0279465-.0006065-.0560379-.0017815-.0841293.0011749-.0237808.0017815-.0477448.0017815-.0718842v-6.5609741c0-.0279465-.0006065-.0560379-.0018501-.0841675.0012474-.0237808.0018501-.0477829.0018501-.0718842v-6.5610123c0-.0279465-.0006065-.0560074-.0018501-.0841675.0012474-.0237808.0018501-.0477448.0018501-.0718842v-6.5609741c0-.0279465-.0006065-.0560379-.0017815-.0841293.0011749-.0237503.0017815-.0477448.0017815-.071846v-6.5610809c0-.0279503-.0006065-.0560036-.0017815-.084095.0011749-.0237846.0017815-.0477791.0017815-.0718842v-6.5610085c0-1.7641449-1.9579735-2.9206352-6.3485947-3.7497864ZM32.7182655,50.4885674c3.1465797-.509922,7.1782074-.7907677,11.3523216-.7907677,4.1740799,0,8.2057762.2808456,11.3523178.7907677,2.5470085.4128304,3.8671761.8624725,4.5277672,1.1684189-.0020638.0009613-.0038795.0018501-.005909.0028114-.0372772.0171967-.0766563.0348549-.1181717.052906-.0085449.0037384-.0177307.0075836-.0264549.011322-.0345726.0148811-.0707054.030014-.1083069.0454292-.0122414.0050545-.0244942.0100403-.0370636.0151329-.0468559.01894-.0953102.0381317-.1467896.0577507-.000824.0002861-.0015717.0006065-.0023918.000927-.0520821.0198669-.1074524.0401611-.1644554.0606689-.0150604.0053749-.0306206.0108604-.0460014.0163078-.0463524.0164146-.0943871.0330391-.1439819.0498085-.0148773.0050545-.0293732.0100403-.0446129.0151329-.063694.0212555-.1298141.0427589-.1988411.0645142-.0112915.0035591-.0233269.0071907-.0347557.0107536-.0589943.0184441-.1202011.0370636-.1832199.0558281-.0207214.0061226-.0416908.0123558-.062912.0185509-.0669365.0195808-.1359024.039341-.2073936.0592079-.0106468.0029907-.0207214.005909-.0315094.0088997-.0817833.0226097-.16716.0453949-.2549248.0682869-.0223961.0058746-.0456429.0117493-.0683899.0175896-.0704651.0181236-.142849.0362816-.2171555.0545464-.0246735.0060539-.0490265.012104-.0741272.0181923-.096447.0232849-.1953583.046711-.2982903.0701752-.0106087.0024223-.0219307.004879-.0325775.0072975-.0927773.0210419-.1886673.0421181-.2867889.0631981-.0309029.0066566-.0622368.0133171-.093708.0199394-.0908966.0192261-.1841812.0384521-.2797394.0577126-.0234261.0046997-.0459938.0094337-.0696754.0141335-.1175652.0233574-.2388306.046711-.3634109.0700684-.0295143.0055199-.0601349.0110359-.0900764.0165558-.1000099.0184441-.202301.0368843-.3069077.055294-.0375252.006588-.0749474.0131721-.1130447.0197601-.1351547.0233192-.2727623.0466042-.4155006.0697479-3.1462593.509922-7.177494.7907677-11.3512497.7908363-.0007133-.0000725-.0014954-.0000725-.002243,0h-.0012817c-4.1736794-.0000725-8.2049904-.2809143-11.3511429-.7908363-.1427727-.0231438-.2803802-.0464287-.415535-.0697479-.0380974-.006588-.0755157-.0131721-.1130447-.0197601-.1045685-.0184059-.2068958-.03685-.3069077-.055294-.0299435-.0055199-.0605278-.0110359-.0900421-.0165558-.1246147-.0233574-.245882-.046711-.3634109-.0700684-.0236759-.0046997-.0462856-.0094337-.0697136-.0141335-.095562-.0192604-.1888447-.0384865-.2797413-.0577126-.0314732-.0066223-.0628052-.013279-.0937042-.0199394-.0981293-.0210762-.1939754-.0421562-.2867603-.0631981-.0106812-.0024223-.0219669-.004879-.032608-.0072975-.1029358-.0234642-.2018452-.0468903-.298296-.0701752-.0251007-.0060883-.0494537-.0121422-.0741234-.0181923-.0743103-.0182648-.1466885-.0364227-.2171192-.0545464-.0227871-.0058403-.0460358-.0117149-.0684261-.0175896-.0878048-.022892-.1731472-.045681-.2549248-.0682869-.0107937-.0029907-.020834-.005909-.0315151-.0088997-.0714931-.0198669-.1404533-.0396271-.2073879-.0592079-.021225-.0061951-.0421963-.0124245-.0629177-.0185509-.0630188-.0187645-.1241875-.037384-.183218-.0558281-.0114288-.0035591-.0234623-.0071907-.0347137-.0107536-.0690727-.0217552-.1351891-.0432587-.198885-.0645142-.0152378-.0050926-.0297298-.0100746-.044611-.0151329-.0495911-.0167694-.0976257-.0333977-.1439419-.0498085-.0153866-.0054474-.0309753-.0109291-.0460415-.0163078-.057003-.0205078-.1123657-.040802-.1644554-.0606689-.0008183-.0003204-.0015659-.0006409-.0023861-.000927-.0514832-.019619-.099905-.0388069-.1467953-.0577507-.0125675-.0050926-.0248165-.0100746-.0370636-.0151329-.0375614-.0154152-.0737362-.0305481-.1083069-.0454292-.0087185-.0037384-.0179081-.0075836-.026453-.011322-.0415134-.0180511-.0808868-.0357094-.1181698-.052906-.0020294-.0009613-.0038452-.0018501-.0059109-.0028114.6605988-.3059464,1.98069-.7555885,4.527729-1.1684189ZM60.4557877,84.8515091c-.0067635.039772-.0118217.0797882-.0150948.120018-.3440056.2401886-1.5320778.8742599-5.0177879,1.4391479-3.146225.5098877-7.1774216.7907639-11.3510361.7908401h-.0012817c-.1462631,0-.2918816-.0011749-.437748-.0018539-1.4655037-.0069046-2.9097481-.048027-4.3011169-.1218338-.2203522-.0116806-.4397469-.0239639-.6573219-.0372772-2.1743393-.1329117-4.2028809-.3457184-5.956131-.6298752-.4827538-.0782242-.9199371-.1578293-1.3184185-.2374802-.3648357-.0729141-.6960602-.1459045-.9964504-.2180405-1.7405758-.4180984-2.4502716-.8072128-2.7029533-.9836349-.0032711-.0400925-.0083313-.0800018-.0150204-.1195602v-3.5077133c.0170498.0064087.0355644.0125656.0527611.0189438.0798244.0296936.1616421.0590286.2449913.0880814.0290928.0101471.0573578.020401.086874.0304413.111227.0379181.2254086.0753403.3427963.1121521.0289459.0091171.0591736.0179443.0884762.0269547.0916805.0281982.1848927.0561447.2802391.0837021.0428677.0123901.0863762.0247116.1299896.0369949.0905113.0254593.1827259.0506287.2764301.0755539.0402679.0107498.0799313.0215378.1208038.0321503.1319847.0343246.2665005.0682144.404747.1015396.0242462.0058365.0496674.0114975.0740929.0173721.1172791.0278778.2367668.0554733.3585682.0826721.0488853.0109634.0986595.0217514.1482964.0326157.1047421.0228577.2111626.0455017.319149.067894.04949.0102539.098587.0205765.1487541.0307617.1455841.02948.2935562.0586777.4449844.0873718.0093231.0017776.0181179.0036316.0274811.0054092.2150841.0405884.4345474.0801086.6581764.1184158.2868252.0491714.5825901.0957718.8829823.1409912.447506.0673599.9074745.1308823,1.3815155.1896973.1447983.0179443.2916985.0351791.4388161.0523376,1.118927.1303482,2.3040085.2368011,3.5380478.3178406.5123787.0336456,1.0332642.0628052,1.5611687.0876236,1.2432213.0583572,2.5255394.0920029,3.8311043.0993347.1809769.0009995.3620949.0018539.5439224.0018539h.0018501c.099369,0,.1978531-.0011063.2969742-.0013885,2.6135864-.0080109,5.1416168-.1198044,7.4489403-.3268127.0826721-.0074081.1631012-.0157394.2452049-.0233917.1820068-.016983.3645134-.0337143.543644-.0519104.2593689-.0262756.5156479-.0537949.7686157-.0825653.0005341-.0000381.0010681-.0001068.0015678-.0001068.7611084-.0865173,1.4922028-.1839676,2.1876907-.2920227.463459-.071991.9110718-.1486816,1.3412743-.2298965.0118217-.002243.0228271-.0045929.0346069-.0067978.1484375-.0281982.293663-.0567856.4365425-.0857697.0512695-.0103607.1014366-.0209351.1519623-.0313644.10709-.0222168.2126236-.0446854.3165207-.0673599.0499458-.0108948.1000061-.0217896.1492462-.0327911.1222992-.0273438.2422867-.0550461.3600998-.0830612.0236778-.0056229.0483856-.0111771.0718842-.0168381.1387863-.033432.2737236-.0674667.4061356-.10186.0397682-.0103607.0783272-.0208664.1174927-.0312958.0952415-.0253525.1889915-.0509109.28088-.0767975.0423698-.0119247.0846291-.0238876.1262512-.0359268.0969849-.0280228.1918716-.0564346.2849731-.0850906.0280571-.0086136.057003-.0170898.0846672-.0258102.1177788-.0369186.2323151-.0744476.3439369-.1124725.0291595-.0099716.0571098-.0201492.0858765-.030159.0834541-.0290527.1653824-.0584259.2452812-.0881195.0172615-.0064774.0359192-.0126419.0530815-.0190811,0,0,0,3.5072479-.0000076,3.5072479ZM60.4557877,78.1344452c-.0067635.039772-.0118217.0798569-.0150948.1201248-.3441505.2401505-1.5323296.8741837-5.0177879,1.4390793-3.1462936.5098877-7.1774216.7907333-11.3510361.7908401h-.0012817c-.5557785,0-1.1086731-.0053406-1.6576195-.0152054-.5661049-.0101471-1.1271172-.0257797-1.6822166-.0461044-1.1996841-.0439682-2.3695641-.110939-3.489418-.2005539-.6333618-.0506668-1.2499161-.1087723-1.8480644-.1733551-.9441147-.102005-1.8413353-.2205353-2.6750031-.3556137-.3054848-.0495224-.5923042-.0995483-.8634701-.1498566-.488203-.0904312-.9226379-.1816177-1.308485-.271698-1.8453236-.4308472-2.5862789-.8363724-2.8458691-1.017601-.0032711-.040123-.0083313-.0800018-.0150204-.1195602v-3.5077515c.0170498.0064087.0355644.0125656.0527611.0189438.0798244.0296936.1616421.0590286.2449913.0880814.0290928.0101471.0573578.0204391.086874.0304794.111227.0379181.2254086.0753403.3427963.1121521.0289459.009079.0591736.0179062.0884762.0269547.0916805.0281601.1848927.0561142.2802391.0836716.0428677.0124283.0863762.0247116.1299896.0370255.0905113.0254211.1827259.0506287.2764301.0755539.0402679.0107193.0799313.0215073.1208038.0321503.1319847.0342865.2665005.0682144.404747.1015396.0242462.0058365.0496674.0114975.0740929.0173416.1172791.027916.2367668.0554733.3585682.0827103.0488853.0109634.0986595.0217514.1482964.0325775.016943.0037003.0346012.0073318.0516567.0110016.0882263.0190811.1769886.0381317.2674942.0569305.04949.0102158.098587.020546.1487541.0307236.1455841.02948.2935562.0586777.4449844.0873718.0093231.0017776.0181179.0036316.0274811.0054092.0910797.0172348.1861019.0333633.2787437.0501633.1261101.0228577.2505093.0461807.3794327.0682526.7141094.122406,1.4722271.2324219,2.2644939.3306885,2.8635941.3553314,6.1925735.5496216,9.6737633.5581665.0798225.0002136.159256.0008163.239296.0008163h.0018501c.099369,0,.1978531-.0011063.2969742-.0013504,2.6135864-.008049,5.1416168-.1198425,7.4489403-.3268127.0826721-.0074387.1631012-.01577.2452049-.0234299.1820068-.016983.3645134-.0337143.543644-.0518723.2593689-.0262756.5156479-.053833.7686157-.0825653.0005341-.0000381.0010681-.0001068.0015678-.000145.7611084-.0864792,1.4922028-.1839676,2.1876907-.2920227.463459-.071991.9110718-.1486435,1.3412743-.2298965.0118217-.0022049.0228271-.0045929.0346069-.0067978.1484375-.0281982.293663-.0567856.4365425-.0857315.0512695-.0103989.1014366-.0209732.1519623-.0314026.10709-.0222168.2126236-.0446472.3165207-.0673294.0499458-.0108948.1000061-.0217896.1492462-.0327911.1222992-.0273819.2422867-.0550766.3600998-.0830994.0236778-.0056229.0483856-.0111465.0718842-.0168381.1387863-.033432.2737236-.0674667.4061356-.10186.0397682-.0103607.0783272-.0208664.1174927-.0312958.0952415-.0253525.1889915-.0508804.28088-.0767975.0423698-.0119247.0846291-.0238571.1262512-.0359268.0969849-.0280228.1918716-.0564346.2849731-.0850906.0280571-.0086136.057003-.0170898.0846672-.0257797.1177788-.0369568.2323151-.0744476.3439369-.1125107.0291595-.0099335.0571098-.0201187.0858765-.0301208.0834541-.0290909.1653824-.0584641.2452812-.0881577.0172615-.0064468.0359192-.0126419.0530815-.0190811v3.5072556ZM60.4557877,71.4174194c-.0067635.0397339-.0118217.0798569-.0150948.1200943-.3441505.2401505-1.5323296.8741837-5.0177879,1.4390793-3.1462936.5098877-7.1774216.7907639-11.3510361.7908401h-.0012817c-4.1741142,0-8.2057419-.2808838-11.3523178-.7908401-1.5233498-.2468796-2.6078491-.5069656-3.3748741-.7416306-.9432945-.2885742-1.4060402-.5385132-1.6145725-.6782227-.0098972-.0066223-.0196171-.013176-.0283756-.0192947-.0032711-.0400925-.0083313-.0800018-.0150204-.1195602v-3.5077515c.0161228.0060883.0336761.0118942.0499115.0179443.0826721.0307999.1673393.0611649.2537899.0912552.0263767.0091476.0520134.0185165.0787506.0275955.1127586.0384521.2285118.0763702.3476028.1137543.0247803.0077591.0507412.0153427.0758018.0230713.0961666.0296936.1942616.0589981.2945175.087944.0397701.0114975.0800381.0228958.1204128.0342865.0950985.0267715.1921196.0532608.2907791.0795059.0358524.0094681.0711021.0191193.1074181.0285873.1344757.0349655.2716599.0695343.4126873.1035004.0170536.0041275.0349274.0080795.0520878.0121765.1249352.0298386.2526112.0592422.3826008.0882645.0440826.0098953.0889034.0196152.1335869.0294113.1075249.0234604.2169704.0467148.3279133.0697098.003952.0008163.007761.0016708.0117493.0024948.0435085.0090103.0866604.0181198.130703.0270233.156908.0318298.3160934.0633392.4797287.0942459.1816521.0343246.3680744.0673294.5558205.1000443,1.1071377.1926193,2.3178234.356575,3.6072903.4899445.6027412.0623398,1.2222862.1180649,1.8567505.1668396,1.1043663.0849533,2.252739.1487885,3.4317322.1908722.5854378.0208969,1.1782112.0363541,1.7770004.0462875.5315323.0088272,1.0669518.0139923,1.6065254.0139923h.0018501c.099369,0,.1978531-.0011063.2969742-.0013885,4.7233124-.0144882,9.1654472-.3700333,12.5362663-1.0065994.1632042-.0307999.3219604-.062233.4784775-.093956.0451469-.0091858.0893669-.0184784.1339798-.0277023.1141129-.0236435.2264786-.0475311.3369942-.0716705.045002-.0098648.0901146-.0196533.1345139-.0295486.1305962-.0291977.25877-.0587463.3842392-.0886917.0163765-.0039139.0335388-.0077286.0498466-.0116425.1414909-.034111.2790298-.0687866.4140053-.1038589.0352135-.0091858.0693932-.0185165.1041489-.0277328.1001854-.0266342.1987-.0535126.2951889-.0806808.039135-.0110397.0781517-.02211.1166763-.0332184.1019058-.0294418.2015533-.0592422.2992516-.0893631.0237846-.0073318.04842-.0145645.0719566-.0219345.1194916-.0374527.2356262-.0755157.3487434-.1141129.0264168-.0089722.0517311-.0181961.0777931-.0272369.086483-.030159.1713257-.0605621.2539978-.0913239.0164146-.0061264.0340729-.0119629.0503082-.0180893v3.5072861h-.0000114ZM60.4557877,64.7004318c-.0067635.039772-.0118217.0798569-.0150948.120018-.3440056.2401886-1.5320778.8741837-5.0177879,1.4391479-3.146225.5098495-7.1774216.7906952-11.3510361.7907639h-.0012817c-.2592316,0-.5178986-.0010681-.7758484-.003273-1.1658554-.0096817-2.3157234-.0420837-3.4354706-.0944214-.6218605-.0290146-1.2351036-.0638046-1.8348923-.1054916-1.2186165-.0846329-2.3855095-.1948929-3.4776268-.3290863-.5407181-.0663986-1.0609283-.1392441-1.5619507-.217186-.0886879-.0138168-.1791954-.0271301-.2665329-.0412979-3.4859581-.5649643-4.6739235-1.1991119-5.0178223-1.4391556-.0032711-.0400925-.0083313-.0799637-.0150204-.1195221v-3.5077477c.017334.0065498.0362053.0127831.0536861.0192986.0789337.0293388.1597557.0583191.2420712.0869789.0300198.0104675.0591736.0210762.0895805.0314369.1109066.0378113.2246971.0750885.3416977.1117973.0295506.0092926.060379.0182991.0903225.027523.0910034.0279846.1835384.0556831.2781792.083065.0433254.0125313.0872612.0249596.1313782.037384.0900021.0253143.1818256.0503426.2750359.0751953.0405178.0107536.0803585.0216484.1214447.0323639.0116425.0029907.0240326.005909.0357513.0089378.1205502.0311546.2425652.0620575.3684616.0924263.0252781.0060883.051733.0119972.0771904.0180511.1162834.0276642.2346668.0550079.3553276.0819969.0492764.0110359.0994072.0219307.149395.0328636.1046047.0228233.2108479.0453949.3186913.0677528.04949.0102539.098587.0205803.1487541.0307617.1455841.02948.2935562.0586739.4449844.0873718.0093231.0017815.0181179.0036316.0274811.0054131.6458931.1219788,1.3333054.2329941,2.0523262.3340034.1885605.0264549.3791847.0522652.5723419.0772972.7870216.1018639,1.6091576.1919785,2.4632263.2685623.0455017.0040932.0922508.0075836.1379318.0116081.221386.0194054.4435921.038559.6688576.0562553.0511627.0039864.1036072.0074043.1549835.011322.2212143.0169106.4429855.0335732.6676483.0488129.0679665.0046272.1374741.0084381.2057571.0128899.209816.0137444.419735.0274162.6322937.0395927.0707436.0040588.1428452.00737.2139091.0112495.2119141.0116425.4239006.0232849.6382751.0334663.0777588.0037041.1568718.0064812.234951.010006.2088165.0093269.4175301.0187645.6284103.0267372.1057434.0039864.2129822.0068359.319191.0105019.1852875.0063019.3700752.013031.556778.0182648.1047821.0029564.2108459.0048065.3160934.0074043.1897697.0046997.3791466.0097542.5702362.0133171.1158218.0021362.2328148.0031319.3490639.004879.1813316.0027428.362236.005909.5445633.007618.140316.0012817.2817688.0012817.4226189.0019951.1577263.000782.3148842.002243.4732132.002243.0043793.0000725.0087242,0,.0130653,0h.0017433c.0037804,0,.0075111.0000725.0112877,0,.1583328,0,.3154869-.001461.4732132-.002243.1408501-.0007133.2823029-.0007133.4226189-.0019951.1823273-.001709.3632317-.004879.5445633-.007618.1162834-.0017433.2332764-.0027428.3490639-.004879.1914444-.0035973.381176-.0086517.5713387-.0133171.1048546-.0025978.2105637-.0044518.3149872-.0074043.1880951-.0052681.3742714-.0119972.5609055-.0184059.1048546-.0035973.2106705-.006443.3149872-.0103607.2135887-.0080833.4250069-.0176239.6364594-.0270576.0753746-.0033836.1518173-.0061226.2269402-.0096855.2184677-.0103951.4345474-.0222168.6505203-.0340729.0669365-.0037041.134903-.0067635.2015915-.0106087.2183952-.0125694.434227-.0265961.6497726-.0406952.0624847-.0040932.1260376-.0075836.1882401-.0118217.2344894-.0158806.4661293-.0331841.6969185-.0509148.0415802-.0032387.0841637-.0059471.1256409-.0092201.2395439-.0188332.4761696-.0390205.7113686-.0597801.0315437-.0028114.0638733-.0051994.0953102-.0080452,1.8629112-.1670914,3.5824814-.3955269,5.0882835-.6798935.0118217-.002243.0228271-.0045929.0346069-.0068016.1484375-.0281982.293663-.0567894.4365425-.0857697.0512695-.0103607.1014366-.0209351.1519623-.0313683.1069489-.0222168.2123375-.0446129.3160515-.0672188.0503159-.0109673.1007576-.0219307.150322-.0330391.1211967-.0271301.240078-.0545807.356823-.082386.0247459-.0058746.0505295-.0116081.0750961-.0175514.1385002-.0333595.2733269-.0673637.405529-.1017189.0399437-.0103951.0787506-.0209694.1181297-.0314751.0947838-.0252075.1880646-.050663.2795677-.0764046.0428276-.0120354.0855522-.0241394.1275978-.0363159.0962715-.0278435.1904449-.0560036.2829437-.0844879.0286255-.0087929.0582123-.0174446.0864449-.0263481.117424-.03685.2315674-.0741997.3428307-.1121521.0301208-.0102196.05896-.0207214.0886536-.0310822.0824242-.0287323.1633148-.0577126.2422867-.0870857.0176239-.0065155.036602-.0128517.0540466-.0194054v3.5072517l.0000076-.0000153ZM60.4557877,57.9833679c-.0067635.0397682-.0118217.079895-.0150948.1200562-.3440056.2401505-1.5320778.8741875-5.0177879,1.4391518-3.146225.5098152-7.1774216.7906952-11.3510361.7907677h-.0012817c-4.1741142,0-8.2057419-.28088-11.3523178-.7907677-.282589-.0457878-.5485115-.0920715-.8016567-.1385345-.6963139-.1277847-1.2847061-.2570953-1.780386-.3829231-1.5471687-.392643-2.1964149-.7506409-2.4357815-.9176941-.0032711-.0400887-.0083313-.0800018-.0150204-.1195602v-3.5077477c.9330349.3520164,2.1105328.6588173,3.5494347.9306183.5774632.1090546,1.1888199.209137,1.8251724.3014221.4622459.0670776.9388809.1295624,1.4285431.1874542,1.1216049.1326981,2.3095627.2416077,3.5489426.3243523.6041641.0403023,1.2207222.0741615,1.8464279.1021118,1.1061821.0494881,2.2419167.0796471,3.3971329.0890083.2580528.0020638.5166435.0036316.7764473.0036659.0043793.0000725.0087242,0,.0130653,0h.0017433c.0037804,0,.0075111.0000725.0112877,0,4.8301888-.0006065,9.3838081-.358532,12.822731-1.0080223,1.4389038-.271801,2.616436-.5786743,3.5494385-.9306183v3.5072479l-.0000038.0000114Z"/>
  <path class="st0" d="M54.261013,19.5935059c-.522522-1.0115967-1.2598877-1.8596802-2.1917725-2.520752-.8779297-.6226196-1.9475708-1.1558838-3.1794434-1.585022-.833313-.2901611-1.7453003-.5648193-2.7203369-.8209229v-4.2377319c.5130005.4379883.9682007,1.0626831,1.3527832,1.8604736l.0184326.0361938c.4069214.7617188.7902222,1.3104858,1.1714478,1.6773071.4904175.4721069,1.1665649.7115479,2.0096436.7115479.9180908,0,1.7270508-.3669434,2.3393555-1.0609741.5896606-.6681519.8886108-1.4377441.8886108-2.2871704,0-.8116455-.2070312-1.6442871-.6154785-2.4749756-.4011841-.8150024-1.0314941-1.5929565-1.8736572-2.3121338-.8346558-.7125854-1.8866577-1.2878418-3.1269531-1.710022-.6565552-.2232056-1.3812866-.385376-2.1641846-.489624v-2.2808228c0-1.1591797-.9396973-2.098877-2.098877-2.098877s-2.098877.9396973-2.098877,2.098877v2.258606c-1.2345581.1420288-2.3654175.4154053-3.3742676.822876-1.6015625.6469727-2.8508301,1.5975952-3.7131348,2.8255615-.8696899,1.2387085-1.3106689,2.6696777-1.3106689,4.2531128,0,1.6587524.4244385,3.0804443,1.2614746,4.2252808.8104248,1.1090088,1.9135742,1.992981,3.2786865,2.6274414,1.0697632.4971924,2.3653564.9436646,3.8579102,1.333252v5.7703857c-.0840454-.0335693-.1651001-.0691528-.2406006-.1082764-.5280762-.2728271-.9366455-.6149292-1.2146606-1.0172729-.3286743-.4752197-.6431274-1.0856323-.9315186-1.8070068-.321167-.8232422-.7138672-1.4418335-1.2007446-1.8912964-.5568848-.5140991-1.239502-.7747192-2.0288696-.7747192-.9213257,0-1.7307129.3308105-2.3408813.9569702-.6114502.6279907-.9214478,1.3920288-.9214478,2.2709961,0,1.248291.4122925,2.5307617,1.2251587,3.8116455.7954102,1.2539673,1.8447266,2.270813,3.1237793,3.0252686,1.269165.7382202,2.7876587,1.2120361,4.5297852,1.4192505v2.2644653c0,1.1591187.9396973,2.098877,2.098877,2.098877s2.098877-.9397583,2.098877-2.098877v-2.2663574c1.3583984-.1654053,2.5934448-.4974365,3.687439-.9946899,1.6769409-.7622681,2.9752197-1.842041,3.8587646-3.2092896.8842163-1.3682861,1.3325806-2.9273682,1.3325806-4.6338501,0-1.4221191-.2648315-2.6560669-.7872314-3.6677246ZM41.9717064,13.512207c-.2290649-.0949707-.4574585-.2034912-.6833496-.3272705-.3549805-.194397-.6306763-.4205933-.8196411-.6725464-.1473389-.1965332-.2160034-.4242554-.2160034-.7167969,0-.3071289.0830688-.7748413.8008423-1.2891235.2633667-.1885376.5716553-.3361816.9181519-.4470215v3.4527588ZM47.0382347,25.6599121c-.2579956.1922607-.5497437.3497925-.8687744.4779663v-4.5598145c.5723877.218689,1.0455322.5146484,1.4059448.8830566.3261719.3338013.4848022.7752686.4848022,1.3493652,0,.7420654-.324707,1.3296509-1.0219727,1.8494263Z"/>
</svg>