<?xml version="1.0" encoding="UTF-8"?>
<svg id="Capa_1" xmlns="http://www.w3.org/2000/svg" version="1.1" viewBox="0 0 80.4983176 80.4983176">
  <!-- Generator: Adobe Illustrator 29.5.1, SVG Export Plug-In . SVG Version: 2.1.0 Build 141)  -->
  <defs>
    <style>
      .st0 {
        fill: #582796;
        fill-rule: evenodd;
      }

      .st1 {
        fill: #853cd3;
      }
    </style>
  </defs>
  <rect class="st1" x="0" y="0" width="80.4983176" height="80.4983176" rx="9.0100554" ry="9.0100554"/>
  <g>
    <path class="st0" d="M65.9710496,63.3618959h-6.5147095v-26.3655396h-6.6491089v26.3654785l-6.1008911-.000061v-17.6121826h-6.6491089v17.6121216l-6.1008911-.000061v-12.2870483h-6.6491089v12.2869873l-3.9140015-.000061h-.6610718c-1.8815918,0-3.4090576-1.5264282-3.4090576-3.4119263V19.0190004c0-2.3001099-3.4085693-2.2147827-3.4085693,0v40.9300537c0,3.7694092,3.052063,6.8234863,6.817627,6.8234863l43.2212524-.0009155c2.5447388,0,2.1428833-3.409729.0176392-3.409729Z"/>
    <path class="st0" d="M25.2753709,38.5578187l11.6395264-8.5259399,6.039917,6.4143066c.6245117.6638184,1.6539917.7183228,2.3441162.1408081l15.3139038-11.4545898,1.3618774,1.7675171c.4710693.6110229,1.4458618.4957886,1.7462158-.2351685l3.1947632-7.7562866c.3026123-.7128296-.2819824-1.5075684-1.0685425-1.4050903l-8.2990112,1.109436c-.7810059.0807495-1.1911621.9973755-.699646,1.6341553l1.6776123,2.1771851-14.1242676,10.5646362-6.006958-6.3790894c-.5808716-.6453247-1.5680542-.7581177-2.2833252-.2338257l-12.8604126,9.4202271c-.7625122.5588989-.9277344,1.6304932-.3687744,2.3930054.5588989.7625122,1.6304932.9276733,2.3930054.3687134Z"/>
  </g>
</svg>