<?xml version="1.0" encoding="UTF-8"?>
<svg id="Capa_1" xmlns="http://www.w3.org/2000/svg" version="1.1" viewBox="0 0 80.4983176 80.4983176">
  <!-- Generator: Adobe Illustrator 29.5.1, SVG Export Plug-In . SVG Version: 2.1.0 Build 141)  -->
  <defs>
    <style>
      .st0 {
        fill: #853cd3;
      }

      .st1 {
        fill: #582796;
      }
    </style>
  </defs>
  <rect class="st0" y="0" width="80.4983176" height="80.4983176" rx="9.0100554" ry="9.0100554"/>
  <g>
    <path class="st1" d="M68.0418504,30.8414491c-6.9534302-6.9400635-17.3012695-10.9761963-27.6824341-10.8138428-8.7528076.1425781-18.3217163,4.5163574-25.5965576,11.7001953-.5353394.5286865-.5408936,1.3914795-.012207,1.9268188.2666626.2700195.618103.4052734.9695435.4052734.3458862,0,.6919556-.1309814.9573364-.3930054,4.2751465-4.2216797,9.3762817-7.4000854,14.5828247-9.2097168-3.3822632,2.9525757-5.5326538,7.2827148-5.5326538,12.1143799,0,4.1895752,1.6226196,7.9981079,4.2554932,10.864563-1.2844238-.2657471-2.5490723-.5771484-3.7824097-.9447021-1.1175537-.3327637-2.2940674.3034058-2.6275024,1.4213257-.3331299,1.1179199.3031006,2.2941284,1.4213257,2.6275635,1.8035278.5373535,3.6480713.973999,5.5198975,1.3138428l-3.0892334,5.8053589c-.5479126,1.0299683-.1572266,2.3088989.8723755,2.8571777.3162231.1682739.6558838.2479248.9906616.2479248.7554932,0,1.4865723-.4069214,1.8665161-1.1203613l3.8187866-7.1763306c1.4379883.1391602,2.8858032.2201538,4.3390503.2471924v8.5474243c0,1.1665039.9458008,2.1123657,2.1123657,2.1123657,1.1665039,0,2.1123657-.9458618,2.1123657-2.1123657v-8.6260376c1.5951538-.0892334,3.1896973-.2393799,4.7769165-.4630127l3.9749756,7.470459c.3800049.7141113,1.1106567,1.1206665,1.8665161,1.1206665.3348389,0,.6744995-.0800171.9903564-.2479248,1.0299683-.5479126,1.4206543-1.8272095.8727417-2.8568726l-3.3422241-6.281189c1.0946655-.2426758,2.1838379-.5111084,3.262207-.8193359,1.1213379-.3206787,1.7709961-1.4899902,1.4503174-2.6116943s-1.4882202-1.7706909-2.6116943-1.4503174c-.1292725.0369263-.2609253.0679932-.390625.1039429,2.2025757-2.7536621,3.5288696-6.2374878,3.5288696-10.0296631,0-4.7507935-2.0813599-9.0141602-5.3657837-11.9627686,5.1677856,1.6940918,9.8862915,4.4876709,13.5670166,8.161499.5320435.5311279,1.3948364.5304565,1.9268799-.0020142.5315552-.5324707.5307007-1.3952637-.0020142-1.9268188ZM53.6910203,36.5715516c0,6.5447388-5.3244019,11.8691406-11.8691406,11.8691406-6.5450439,0-11.8694458-5.3244019-11.8694458-11.8691406,0-6.5450439,5.3244019-11.8693848,11.8694458-11.8693848,6.5447388,0,11.8691406,5.3243408,11.8691406,11.8693848Z"/>
    <path class="st1" d="M41.3998215,30.5320619c-3.3285522,0-6.0367432,2.7081909-6.0367432,6.0371094,0,3.3285522,2.7081909,6.0368042,6.0367432,6.0368042s6.0368042-2.708252,6.0368042-6.0368042c0-3.3289185-2.708252-6.0371094-6.0368042-6.0371094Z"/>
  </g>
</svg>