<?xml version="1.0" encoding="UTF-8"?>
<svg id="Capa_1" xmlns="http://www.w3.org/2000/svg" version="1.1" viewBox="0 0 90 90">
  <!-- Generator: Adobe Illustrator 29.5.1, SVG Export Plug-In . SVG Version: 2.1.0 Build 141)  -->
  <defs>
    <style>
      .st0 {
        fill: #853cd3;
      }
    </style>
  </defs>
  <path class="st0" d="M38.8004313,66.8983541c-1.1535714,4.6492607,1.2362443,10.9619302,1.2362443,10.9619302l2.741951-1.3890265c.6135932,4.6116018,2.9985632,9.9994,2.9985632,9.9994,1.3550012-3.7384708,1.7121983-10.4170975,1.7121983-10.4170975l3.0531509,1.7512116c.7960897-4.310154.0402131-10.9687752.0402131-10.9687752l-11.7823209.0623575Z"/>
  <path class="st0" d="M67.5582073,54.9146305l.0000119.0000006.0504453-2.0319457-7.9905725-5.2812623-.0005258.0009071c.0239268-.1239783.0471949-.2481881.0701574-.3725095.0059539-.0322266.0118606-.0644675.01775-.0967213.0212788-.1165158.0422282-.2331444.0626599-.3499554.0014964-.0085877.0030635-.0171537.0045598-.0257414.0217628-.1248622.0428898-.2499369.0636875-.3751303.00507-.0305296.0100812-.0610801.0150924-.0916307.0189512-.115504.037561-.2311214.0556822-.3469017.0017688-.0113192.0036141-.0226105.0053771-.0339329.0198292-.1273152.0390463-.2548355.0578625-.3824784.0039581-.0268473.0078573-.0537126.0117683-.0805743.0171567-.1177492.0339484-.2356189.050239-.3536433.0015839-.0114485.0032266-.0228759.0047986-.034328.0179294-.1305388.03524-.2612683.0521086-.3921372.0028211-.0218639.0055715-.0437494.0083572-.0656241.015476-.1213897.0305392-.2429025.0450955-.3645731.0013225-.0110248.0026983-.0220379.0040091-.0330663.0159212-.1338669.031247-.2679142.0460598-.4021166.0017772-.0161302.0035012-.0322751.0052605-.0484062.0137544-.1257479.0270366-.2516279.0398059-.3776661.001072-.0105796.0021856-.0211511.0032517-.031731.0137555-.1366941.0269272-.273562.0395204-.4105944.0010017-.0108407.00195-.0216932.0029398-.0325345.0117921-.1292682.0230707-.2586826.0338299-.3882436.0009491-.0114482.0019395-.0228824.0028826-.0343309.0113855-.1382294.022192-.2766114.0323907-.4151684.0005351-.007248.0010289-.014507.0015582-.0217583.0095515-.1305274.0185242-.2612103.0270247-.3920254.0009461-.014643.0019393-.0292717.0028736-.0439183.0088259-.1378283.0171204-.2758038.024765-.4139505.0003536-.006398.0006717-.0128039.0010253-.0192019.0070558-.1284613.0135328-.2570782.0195725-.3858075.000579-.0122847.0012999-.0245321.001867-.0368174-.0000482.0000065-.0000904.0000103-.0001386.0000168.0380509-.8245312.0553428-1.6544405.0509206-2.4893248-.0725318-13.7304278-5.9392412-26.0738229-15.2679916-34.7304612-9.7360575,8.7901331-15.8291947,21.5310051-15.7544817,35.6802118.0155426,2.9307693.2955053,5.798296.8163876,8.5803302l-7.8847599,5.3318706.5772391,16.296195,12.5143132-7.2398176.000135-.0002386c.5345283.9575932,1.1011968,1.8949798,1.6984645,2.8105175l15.3383965-.081147c.6447528-.9691157,1.2550624-1.963108,1.8291789-2.9800911l-.0000249.0004838,12.1625676,6.8656023.7180676-.6476938.3285343-13.2309348ZM44.8993593,25.2038201c3.5789485-.0188746,6.4956408,2.8669365,6.5145093,6.4460044.0190338,3.5789956-2.8668902,6.4954396-6.4459967,6.5143001-3.5789585.0191256-6.4955217-2.8668076-6.5143933-6.4458727-.0189086-3.5789862,2.8667626-6.4954043,6.4458807-6.5144318Z"/>
</svg>